<svg width="159" height="156" viewBox="0 0 159 156" fill="none" xmlns="http://www.w3.org/2000/svg">
<path d="M4.87171 8.58748C4.62791 7.73704 3.42729 7.71174 3.13461 8.54665C0.160076 17.0263 -5.30598 40.6322 13.0248 67.3823C36.0252 100.947 35.357 117.904 30.2124 130.711C30.2124 130.711 41.0226 120.326 42.1525 102.881C44.9246 60.0567 9.20902 23.7103 4.87171 8.58748Z" fill="#BDD0FB"/>
<g style="mix-blend-mode:soft-light">
<path d="M6.26768 22.079C7.61493 26.4491 9.04729 30.7846 10.6378 35.0644C12.2041 39.3517 13.9 43.5865 15.7255 47.7687C17.5655 51.9404 19.4855 56.0771 21.5773 60.1263C23.6514 64.1841 25.8968 68.1488 28.1658 72.121C30.4084 76.1041 32.6952 80.1039 34.5772 84.3492C36.4592 88.5841 37.8657 93.1118 38.4033 97.7625C38.5361 98.9222 38.6483 100.088 38.6908 101.25C38.7552 102.411 38.7673 103.576 38.7592 104.74C38.734 107.072 38.5449 109.4 38.1934 111.706C37.4712 116.318 36.0481 120.816 34.0867 125.017C33.985 125.221 33.8082 125.378 33.5933 125.455C33.3784 125.532 33.1421 125.523 32.934 125.429C32.7258 125.336 32.5619 125.165 32.4766 124.953C32.3914 124.742 32.3914 124.505 32.4767 124.293V124.29C32.9246 123.255 33.3605 122.216 33.748 121.161C33.9504 120.637 34.1292 120.104 34.3178 119.576C34.4863 119.041 34.6755 118.512 34.8267 117.972C35.4711 115.825 35.9596 113.634 36.2884 111.417C36.9629 106.989 36.9784 102.442 36.4741 97.9994C36.1977 95.7794 35.7538 93.5835 35.1464 91.4304C34.5269 89.2718 33.7639 87.157 32.8625 85.1001C31.0662 80.9635 28.8374 76.9862 26.6213 72.987C24.4052 68.9878 22.215 64.9472 20.1893 60.8261C19.1707 58.7683 18.1898 56.6931 17.2464 54.6004C16.7691 53.5568 16.3114 52.5045 15.8525 51.4528C15.4029 50.3971 14.9605 49.3387 14.5254 48.2776C12.7939 44.0275 11.1959 39.7293 9.73155 35.383C8.29057 31.0313 6.96574 26.6428 5.81227 22.2101C5.79792 22.1506 5.80714 22.0879 5.838 22.035C5.86886 21.9822 5.91897 21.9433 5.97783 21.9266C6.03669 21.9099 6.09974 21.9166 6.15377 21.9453C6.2078 21.974 6.24862 22.0226 6.26768 22.0807V22.079Z" fill="white"/>
</g>
<path d="M41.4998 105.387C42.6315 106.561 44.594 106.198 45.2501 104.705C48.8726 96.4687 56.9998 72.2567 42.8166 44.6263C30.8403 21.2953 26.5628 7.50364 25.0545 1.10837C24.7354 -0.243476 22.8758 -0.402754 22.329 0.874344C16.3 14.9667 0.498137 62.8478 41.4998 105.387Z" fill="#91B3FA"/>
<g style="mix-blend-mode:soft-light">
<path d="M43.5213 104.499C43.562 104.506 43.6031 104.508 43.6443 104.507C43.7279 104.505 43.8102 104.487 43.8866 104.453C43.963 104.419 44.0319 104.37 44.0894 104.309C44.1469 104.248 44.1919 104.177 44.2218 104.099C44.2517 104.021 44.2659 103.938 44.2636 103.854C44.2533 103.456 43.0319 63.6333 27.8442 30.4379C27.811 30.3594 27.7624 30.2883 27.7013 30.2288C27.6401 30.1694 27.5677 30.1228 27.4882 30.0919C27.4088 30.061 27.3239 30.0464 27.2387 30.0489C27.1534 30.0513 27.0696 30.0709 26.992 30.1064C26.9145 30.1419 26.8449 30.1926 26.7873 30.2555C26.7297 30.3184 26.6854 30.3922 26.6568 30.4725C26.6283 30.5529 26.6162 30.6382 26.6212 30.7233C26.6263 30.8084 26.6483 30.8916 26.6861 30.9681C41.7635 63.9214 42.9808 103.492 42.9911 103.888C42.995 104.036 43.05 104.177 43.1467 104.289C43.2434 104.4 43.3758 104.475 43.5213 104.499Z" fill="white"/>
</g>
<path d="M8.66706 129.136C10.8521 107.07 16.3285 52.2648 17.5222 44.2543C19.0242 34.1859 31.3616 36.4083 31.3616 36.4083L34.0032 138.293H16.8052C15.6572 138.292 14.5226 138.046 13.4765 137.573C12.4304 137.1 11.4967 136.411 10.7371 135.55C9.96846 134.681 9.38778 133.663 9.03154 132.559C8.6753 131.456 8.55121 130.29 8.66706 129.136Z" fill="url(#paint0_linear_7_13281)"/>
<path d="M147.839 140.861C149.116 140.834 150.375 140.556 151.545 140.042C152.715 139.528 153.772 138.789 154.656 137.867C155.54 136.944 156.234 135.857 156.697 134.666C157.161 133.476 157.386 132.206 157.359 130.929L155.604 48.2155C155.558 46.0181 154.67 43.9223 153.122 42.3616C151.575 40.8009 149.487 39.8946 147.29 39.8302L27.2394 36.2685C26.3924 36.2433 25.5489 36.3887 24.7592 36.6961C23.9695 37.0034 23.2497 37.4664 22.6425 38.0576C22.0354 38.6488 21.5533 39.356 21.225 40.1372C20.8967 40.9185 20.7289 41.7577 20.7315 42.6052L21.019 137.442C21.0213 138.239 21.1825 139.027 21.493 139.761C21.8036 140.496 22.2573 141.16 22.8277 141.717C23.3981 142.274 24.0738 142.711 24.8151 143.004C25.5565 143.297 26.3488 143.439 27.1457 143.422L147.839 140.861Z" fill="url(#paint1_linear_7_13281)"/>
<path d="M155.576 133.918C155.981 133.912 156.38 133.819 156.745 133.646C157.111 133.472 157.435 133.223 157.696 132.913C157.957 132.604 158.148 132.242 158.257 131.852C158.366 131.462 158.389 131.053 158.327 130.654C156.555 119.391 150.993 80.6501 152.778 48.4846C152.797 48.1367 152.747 47.7884 152.631 47.4601C152.514 47.1318 152.332 46.8302 152.097 46.573C151.862 46.3159 151.578 46.1083 151.261 45.9626C150.945 45.8169 150.602 45.736 150.254 45.7246L29.665 41.8766C28.8709 41.8508 28.0988 42.1404 27.5175 42.6821C26.9362 43.2239 26.593 43.9737 26.5629 44.7677C26.0505 58.2908 24.1403 113.98 26.6393 133.776C26.7133 134.358 26.9993 134.892 27.4426 135.276C27.8859 135.66 28.4553 135.867 29.0417 135.857L155.576 133.918Z" fill="#BDD0FB"/>
<path d="M152.529 132.651C152.918 132.645 153.301 132.556 153.653 132.389C154.005 132.222 154.317 131.982 154.567 131.684C154.818 131.386 155.002 131.038 155.107 130.663C155.211 130.288 155.234 129.895 155.174 129.511C153.469 118.672 148.117 81.3896 149.834 50.4345C149.853 50.0996 149.805 49.7643 149.693 49.4482C149.58 49.1322 149.406 48.8418 149.18 48.5942C148.953 48.3466 148.68 48.1468 148.375 48.0065C148.07 47.8663 147.741 47.7883 147.405 47.7774L31.3573 44.0755C30.593 44.0509 29.8501 44.3298 29.2908 44.8513C28.7315 45.3728 28.4014 46.0944 28.3724 46.8585C27.8785 59.8727 26.0408 113.464 28.4455 132.515C28.5167 133.075 28.7921 133.589 29.2187 133.958C29.6453 134.328 30.1932 134.527 30.7576 134.518L152.529 132.651Z" fill="#AADFE3"/>
<path opacity="0.72" d="M81.2033 67.4439L81.3804 75.8017C81.3868 76.1047 81.3329 76.406 81.2217 76.688C81.1106 76.9699 80.9445 77.227 80.7331 77.4441C80.5216 77.6613 80.2691 77.8342 79.9902 77.9528C79.7113 78.0715 79.4116 78.1334 79.1085 78.1351L70.5357 78.1834C69.9354 78.1876 69.3576 77.9554 68.9272 77.5369C68.4967 77.1184 68.2483 76.5474 68.2357 75.9472L68.0493 67.1604C68.0427 66.8478 68.1002 66.5371 68.2185 66.2476C68.3367 65.9581 68.5131 65.696 68.7367 65.4774C68.9604 65.2588 69.2265 65.0885 69.5186 64.9769C69.8108 64.8654 70.1227 64.8149 70.4351 64.8288L79.0165 65.2094C79.5967 65.2344 80.1456 65.4793 80.5517 65.8943C80.9579 66.3093 81.1908 66.8634 81.2033 67.4439Z" fill="white"/>
<path opacity="0.72" d="M111.175 78.0649L102.602 78.1132C102.002 78.1172 101.424 77.8849 100.994 77.4663C100.563 77.0477 100.315 76.4766 100.302 75.8764L100.144 68.4012C100.137 68.0902 100.194 67.7811 100.311 67.4928C100.428 67.2045 100.603 66.9432 100.825 66.7248C101.046 66.5064 101.31 66.3356 101.6 66.2229C101.89 66.1101 102.2 66.0577 102.511 66.069L111.091 66.3772C111.674 66.3981 112.227 66.6412 112.636 67.0568C113.046 67.4724 113.281 68.0289 113.293 68.6123L113.444 75.7286C113.451 76.0317 113.397 76.333 113.286 76.6152C113.176 76.8974 113.01 77.1546 112.799 77.3721C112.587 77.5895 112.335 77.7627 112.056 77.8817C111.777 78.0006 111.478 78.0629 111.175 78.0649Z" fill="white"/>
<path opacity="0.72" d="M103.664 115.293L111.819 115.213C112.475 115.207 113.108 115.46 113.579 115.917C114.05 116.374 114.322 116.998 114.336 117.654L114.498 125.291C114.512 125.943 114.269 126.575 113.823 127.05C113.377 127.526 112.762 127.808 112.11 127.836L103.961 128.181C103.63 128.195 103.299 128.142 102.987 128.027C102.676 127.911 102.391 127.734 102.149 127.507C101.907 127.28 101.713 127.007 101.578 126.704C101.443 126.4 101.37 126.073 101.363 125.741L101.195 117.84C101.188 117.51 101.246 117.182 101.367 116.875C101.488 116.568 101.668 116.288 101.898 116.051C102.127 115.814 102.402 115.625 102.705 115.495C103.008 115.365 103.334 115.296 103.664 115.293Z" fill="white"/>
<path opacity="0.72" d="M117.383 125.107L117.225 117.641C117.218 117.316 117.276 116.994 117.394 116.692C117.513 116.391 117.69 116.115 117.916 115.882C118.141 115.65 118.411 115.464 118.709 115.336C119.007 115.208 119.327 115.141 119.652 115.138L127.892 115.058C128.536 115.052 129.158 115.301 129.62 115.75C130.083 116.199 130.35 116.812 130.364 117.457L130.517 124.655C130.53 125.295 130.292 125.916 129.854 126.383C129.416 126.85 128.812 127.127 128.172 127.155L119.938 127.504C119.612 127.518 119.286 127.466 118.98 127.353C118.675 127.239 118.395 127.065 118.157 126.842C117.919 126.619 117.728 126.351 117.595 126.053C117.462 125.755 117.39 125.433 117.383 125.107Z" fill="white"/>
<path opacity="0.72" d="M116.667 91.3989L116.539 85.2699C116.531 84.9184 116.594 84.5691 116.724 84.2423C116.853 83.9155 117.047 83.6179 117.293 83.367C117.539 83.116 117.833 82.9168 118.157 82.7809C118.481 82.6451 118.829 82.5754 119.181 82.5759L127.049 82.5903C127.738 82.5917 128.399 82.8625 128.891 83.345C129.383 83.8275 129.667 84.4832 129.682 85.1721L129.806 91.0297C129.821 91.7239 129.561 92.396 129.084 92.9C128.606 93.404 127.949 93.6994 127.255 93.7219L119.391 93.9767C119.043 93.9881 118.695 93.9303 118.369 93.8066C118.043 93.6829 117.745 93.4958 117.492 93.2561C117.238 93.0163 117.035 92.7288 116.894 92.41C116.752 92.0912 116.675 91.7476 116.667 91.3989Z" fill="white"/>
<path opacity="0.72" d="M117.045 109.21L116.846 99.8377C116.832 99.1927 117.074 98.5683 117.517 98.1C117.961 97.6317 118.572 97.3573 119.216 97.3364L127.267 97.0731C127.615 97.0616 127.963 97.1194 128.289 97.2432C128.615 97.3671 128.914 97.5544 129.167 97.7944C129.42 98.0343 129.624 98.3222 129.765 98.6413C129.906 98.9604 129.983 99.3043 129.99 99.6532L130.191 109.108C130.197 109.434 130.139 109.758 130.019 110.062C129.899 110.365 129.72 110.641 129.492 110.875C129.263 111.108 128.991 111.293 128.69 111.419C128.39 111.546 128.067 111.611 127.74 111.611H119.496C118.854 111.611 118.239 111.36 117.78 110.911C117.322 110.462 117.058 109.852 117.045 109.21Z" fill="white"/>
<path opacity="0.72" d="M95.143 78.1552L86.5707 78.2041C85.9704 78.208 85.3927 77.9756 84.9623 77.5571C84.5319 77.1385 84.2835 76.5675 84.2707 75.9673L84.0982 67.8269C84.0916 67.5159 84.1485 67.2068 84.2656 66.9185C84.3826 66.6303 84.5573 66.369 84.7789 66.1506C85.0004 65.9323 85.2643 65.7615 85.5542 65.6487C85.8441 65.5359 86.154 65.4835 86.4649 65.4946L95.0447 65.8028C95.6278 65.8239 96.1809 66.0671 96.5905 66.4828C97 66.8985 97.2351 67.4551 97.2475 68.0385L97.4126 75.8218C97.419 76.1247 97.3652 76.4258 97.2543 76.7076C97.1433 76.9895 96.9774 77.2465 96.7662 77.4636C96.555 77.6807 96.3027 77.8537 96.0241 77.9724C95.7454 78.0912 95.4459 78.1533 95.143 78.1552Z" fill="white"/>
<path opacity="0.72" d="M101.014 109.171L100.828 100.402C100.814 99.7461 101.059 99.1108 101.511 98.6343C101.962 98.1577 102.583 97.8784 103.239 97.8567L111.39 97.5899C111.72 97.5792 112.048 97.634 112.357 97.7511C112.665 97.8683 112.947 98.0454 113.187 98.2723C113.426 98.4993 113.618 98.7714 113.752 99.0731C113.886 99.3747 113.958 99.6999 113.965 100.03L114.156 109.064C114.163 109.396 114.104 109.725 113.982 110.034C113.86 110.343 113.677 110.624 113.445 110.861C113.213 111.098 112.935 111.286 112.63 111.415C112.324 111.544 111.995 111.61 111.663 111.61H103.505C102.853 111.61 102.228 111.355 101.762 110.899C101.296 110.442 101.028 109.822 101.014 109.171Z" fill="white"/>
<path opacity="0.72" d="M86.3476 82.5166L95.7088 82.5339C96.2029 82.5346 96.6771 82.7288 97.0298 83.0747C97.3826 83.4206 97.5861 83.8908 97.5966 84.3848L97.7754 92.8162C97.786 93.3139 97.5998 93.7957 97.2574 94.1571C96.915 94.5185 96.4439 94.7303 95.9463 94.7465L86.5914 95.0524C86.3412 95.0609 86.0918 95.0197 85.8576 94.931C85.6235 94.8424 85.4092 94.7081 85.2274 94.536C85.0455 94.364 84.8996 94.1575 84.7982 93.9286C84.6967 93.6997 84.6417 93.4529 84.6364 93.2026L84.4536 84.4481C84.4482 84.1961 84.4932 83.9456 84.5861 83.7113C84.6789 83.477 84.8176 83.2636 84.994 83.0837C85.1705 82.9037 85.3811 82.7609 85.6136 82.6635C85.846 82.5661 86.0956 82.5162 86.3476 82.5166Z" fill="white"/>
<path opacity="0.72" d="M81.5721 84.8305L81.7446 92.8606C81.7579 93.4863 81.5239 94.0921 81.0932 94.5463C80.6626 95.0005 80.0702 95.2665 79.4446 95.2865L71.0609 95.5608C70.7466 95.5712 70.4334 95.519 70.1394 95.4074C69.8454 95.2958 69.5765 95.127 69.3482 94.9107C69.1199 94.6944 68.9368 94.435 68.8096 94.1474C68.6823 93.8598 68.6134 93.5499 68.6068 93.2355L68.4302 84.9162C68.4235 84.5995 68.4801 84.2847 68.5968 83.9902C68.7134 83.6957 68.8877 83.4275 69.1095 83.2013C69.3313 82.9752 69.596 82.7956 69.8882 82.6732C70.1803 82.5508 70.494 82.488 70.8108 82.4885L79.2008 82.5041C79.8215 82.5056 80.417 82.7498 80.8601 83.1845C81.3032 83.6192 81.5587 84.21 81.5721 84.8305Z" fill="white"/>
<path opacity="0.72" d="M111.968 94.2222L102.613 94.5281C102.363 94.5366 102.114 94.4953 101.88 94.4067C101.645 94.3181 101.431 94.1838 101.249 94.0117C101.067 93.8397 100.922 93.6332 100.82 93.4043C100.719 93.1754 100.664 92.9286 100.658 92.6783L100.486 84.4775C100.48 84.2255 100.525 83.975 100.618 83.7406C100.711 83.5063 100.85 83.2929 101.026 83.1129C101.203 82.9329 101.413 82.7901 101.646 82.6927C101.878 82.5954 102.128 82.5455 102.38 82.546L111.742 82.5627C112.236 82.5636 112.71 82.7579 113.063 83.1039C113.415 83.4499 113.619 83.9202 113.629 84.4142L113.796 92.2919C113.807 92.7894 113.621 93.2709 113.278 93.6322C112.936 93.9936 112.466 94.2055 111.968 94.2222Z" fill="white"/>
<path opacity="0.72" d="M87.2135 98.3812L95.3643 98.1144C95.694 98.1036 96.0226 98.1584 96.3309 98.2756C96.6393 98.3927 96.9214 98.5699 97.1608 98.7968C97.4002 99.0237 97.5923 99.2959 97.7258 99.5975C97.8593 99.8992 97.9317 100.224 97.9386 100.554L98.1192 109.064C98.1263 109.396 98.0671 109.726 97.945 110.035C97.8229 110.343 97.6405 110.625 97.4083 110.862C97.1761 111.099 96.8989 111.287 96.593 111.416C96.287 111.545 95.9584 111.611 95.6265 111.611H87.47C86.8177 111.611 86.1915 111.355 85.7254 110.899C85.2593 110.443 84.9906 109.822 84.9767 109.17L84.8042 100.924C84.7909 100.269 85.0362 99.6345 85.4871 99.1585C85.938 98.6825 86.5582 98.4033 87.2135 98.3812Z" fill="white"/>
<path opacity="0.72" d="M70.9094 98.9154L79.6306 98.6279C79.9226 98.6183 80.2136 98.6668 80.4868 98.7705C80.7599 98.8742 81.0098 99.031 81.2219 99.2319C81.434 99.4329 81.6041 99.6739 81.7225 99.941C81.8408 100.208 81.9049 100.496 81.9111 100.788L82.0928 109.356C82.099 109.65 82.0465 109.942 81.9383 110.215C81.8301 110.489 81.6685 110.738 81.4628 110.948C81.2572 111.158 81.0117 111.325 80.7407 111.438C80.4697 111.552 80.1787 111.611 79.8848 111.611H71.1578C70.5803 111.611 70.0257 111.385 69.6129 110.981C69.2002 110.577 68.9621 110.027 68.9498 109.45L68.7738 101.165C68.7627 100.584 68.9805 100.023 69.3802 99.602C69.7798 99.181 70.3292 98.9343 70.9094 98.9154Z" fill="white"/>
<path opacity="0.72" d="M126.008 77.87L119.501 77.9068C118.67 77.9114 117.87 77.5888 117.274 77.0086C116.678 76.4285 116.334 75.6373 116.316 74.8058L116.201 69.4381C116.193 69.0538 116.263 68.672 116.408 68.316C116.552 67.9599 116.768 67.6371 117.042 67.3674C117.316 67.0977 117.642 66.8867 118 66.7474C118.358 66.6081 118.741 66.5434 119.125 66.5573L126.365 66.8172C127.157 66.8455 127.907 67.1754 128.463 67.7394C129.019 68.3033 129.338 69.0586 129.355 69.8503L129.45 74.3354C129.46 74.7945 129.378 75.2508 129.21 75.6779C129.041 76.1051 128.79 76.4944 128.469 76.8233C128.149 77.1523 127.766 77.4142 127.344 77.5939C126.921 77.7736 126.467 77.8674 126.008 77.87Z" fill="white"/>
<path opacity="0.72" d="M133.259 117.674C133.252 117.325 133.314 116.978 133.442 116.653C133.569 116.329 133.76 116.032 134.003 115.782C134.246 115.531 134.536 115.332 134.857 115.194C135.177 115.056 135.522 114.984 135.871 114.981L138.705 114.953C140.859 114.932 142.621 116.356 142.659 118.149L142.769 123.338C142.807 125.116 141.135 126.607 139 126.697L135.957 126.826C135.631 126.84 135.305 126.788 135 126.675C134.694 126.561 134.414 126.388 134.176 126.164C133.938 125.941 133.747 125.673 133.615 125.375C133.482 125.077 133.41 124.755 133.403 124.429L133.259 117.674Z" fill="white"/>
<path opacity="0.72" d="M42.1192 115.89L47.6934 115.836C48.3503 115.829 48.9833 116.082 49.4549 116.539C49.9265 116.997 50.1988 117.622 50.2125 118.278L50.4189 128.002C50.4327 128.654 50.1903 129.286 49.7436 129.762C49.2968 130.238 48.6814 130.52 48.0292 130.548L42.4803 130.783C40.2683 130.877 38.4121 129.434 38.373 127.591L38.1959 119.254C38.1574 117.424 39.9227 115.911 42.1192 115.89Z" fill="white"/>
<path opacity="0.72" d="M138.48 111.608H135.713C135.023 111.608 134.361 111.337 133.868 110.855C133.375 110.372 133.09 109.716 133.075 109.026L132.874 99.4967C132.859 98.8025 133.118 98.1305 133.596 97.6264C134.073 97.1224 134.73 96.827 135.424 96.8045L138.209 96.7136C140.405 96.6418 142.234 98.0787 142.272 99.9072L142.448 108.245C142.487 110.087 140.694 111.607 138.48 111.608Z" fill="white"/>
<path opacity="0.72" d="M138.247 93.362L134.764 93.477C134.5 93.4857 134.237 93.442 133.99 93.3484C133.744 93.2548 133.518 93.1131 133.326 92.9317C133.135 92.7502 132.981 92.5325 132.874 92.2912C132.768 92.0499 132.71 91.7898 132.704 91.5259L132.558 84.6425C132.552 84.3767 132.6 84.1125 132.698 83.8653C132.795 83.6181 132.942 83.393 133.128 83.2032C133.314 83.0134 133.536 82.8627 133.781 82.76C134.027 82.6573 134.29 82.6047 134.556 82.6052L138.073 82.6116C140.206 82.615 141.934 84.0318 141.972 85.8075L142.061 90.0022C142.099 91.7945 140.401 93.2918 138.247 93.362Z" fill="white"/>
<path opacity="0.72" d="M41.2297 63.7592L46.8194 63.9599C47.4259 63.9818 48.0011 64.2348 48.427 64.6672C48.8529 65.0995 49.0974 65.6784 49.1102 66.2852L49.3143 75.8879C49.321 76.2031 49.2648 76.5165 49.1492 76.8098C49.0336 77.1032 48.8608 77.3706 48.6409 77.5965C48.421 77.8224 48.1583 78.0023 47.8682 78.1258C47.5781 78.2492 47.2663 78.3138 46.951 78.3156L41.1952 78.3484C39.0487 78.3604 37.2989 76.939 37.261 75.1519L37.0884 67.1184C37.0505 65.2203 38.9509 63.6776 41.2297 63.7592Z" fill="white"/>
<path opacity="0.72" d="M87.6333 115.448L95.7881 115.369C96.4446 115.363 97.0771 115.615 97.5484 116.072C98.0197 116.529 98.2918 117.154 98.3055 117.81L98.478 125.969C98.4918 126.621 98.2496 127.253 97.8032 127.728C97.3567 128.204 96.7417 128.486 96.09 128.513L87.9415 128.858C87.6099 128.872 87.2788 128.82 86.9677 128.705C86.6565 128.589 86.3716 128.412 86.1295 128.185C85.8875 127.958 85.6932 127.685 85.558 127.382C85.4229 127.079 85.3496 126.752 85.3425 126.42L85.1636 117.995C85.1567 117.665 85.2153 117.337 85.336 117.03C85.4567 116.723 85.6371 116.443 85.8668 116.206C86.0965 115.969 86.3709 115.78 86.6741 115.65C86.9774 115.52 87.3034 115.451 87.6333 115.448Z" fill="white"/>
<path opacity="0.72" d="M41.465 82.4356L47.1306 82.4459C47.7516 82.447 48.3476 82.6911 48.7909 83.126C49.2342 83.5609 49.4896 84.1521 49.5025 84.773L49.6969 93.9093C49.7101 94.535 49.4759 95.1407 49.0453 95.5949C48.6147 96.0491 48.0224 96.3151 47.3968 96.3353L41.7082 96.5216C39.5123 96.5935 37.6832 95.1565 37.6458 93.328L37.4859 85.7988C37.448 83.953 39.2466 82.4315 41.465 82.4356Z" fill="white"/>
<path opacity="0.72" d="M41.6721 99.8722L47.5855 99.6784C47.8775 99.6689 48.1685 99.7173 48.4416 99.821C48.7147 99.9247 48.9645 100.082 49.1766 100.283C49.3887 100.483 49.5587 100.724 49.677 100.992C49.7952 101.259 49.8593 101.547 49.8654 101.839L50.0253 109.362C50.0315 109.656 49.979 109.948 49.8708 110.221C49.7627 110.495 49.6011 110.744 49.3955 110.954C49.1899 111.164 48.9445 111.331 48.6736 111.445C48.4027 111.559 48.1117 111.617 47.8178 111.617H41.8745C39.7383 111.617 38.0041 110.2 37.9644 108.421L37.854 103.232C37.8195 101.44 39.5175 99.9424 41.6721 99.8722Z" fill="white"/>
<path opacity="0.72" d="M65.8874 101.314L66.0599 109.36C66.0662 109.654 66.0137 109.946 65.9056 110.22C65.7975 110.493 65.6359 110.742 65.4303 110.952C65.2247 111.162 64.9792 111.329 64.7083 111.443C64.4373 111.557 64.1464 111.616 63.8524 111.616H55.1249C54.5473 111.616 53.9928 111.389 53.58 110.985C53.1673 110.581 52.9292 110.032 52.9169 109.454L52.7524 101.692C52.7403 101.111 52.9575 100.549 53.3569 100.127C53.7564 99.7056 54.3059 99.4584 54.8863 99.4392L63.6075 99.1517C63.8997 99.1421 64.1908 99.1907 64.4641 99.2945C64.7374 99.3983 64.9873 99.5554 65.1994 99.7566C65.4115 99.9577 65.5815 100.199 65.6996 100.466C65.8177 100.734 65.8815 101.022 65.8874 101.314Z" fill="white"/>
<path opacity="0.72" d="M55.5739 115.759L63.7247 115.68C64.3816 115.674 65.0144 115.927 65.486 116.384C65.9576 116.842 66.2299 117.466 66.2438 118.123L66.4393 127.323C66.4531 127.976 66.2107 128.608 65.764 129.084C65.3173 129.56 64.7018 129.842 64.0496 129.87L55.9046 130.215C55.5727 130.229 55.2413 130.177 54.93 130.061C54.6186 129.945 54.3334 129.769 54.0912 129.542C53.8489 129.314 53.6545 129.041 53.5193 128.737C53.3841 128.434 53.3108 128.107 53.3038 127.775L53.1031 118.309C53.0961 117.979 53.1546 117.65 53.2753 117.343C53.396 117.036 53.5765 116.755 53.8063 116.518C54.0361 116.281 54.3107 116.092 54.6141 115.962C54.9175 115.831 55.2437 115.763 55.5739 115.759Z" fill="white"/>
<path opacity="0.72" d="M137.789 77.8039L134.378 77.8228C133.854 77.8258 133.35 77.6224 132.975 77.2565C132.599 76.8907 132.383 76.3918 132.373 75.8678L132.23 69.1362C132.224 68.8646 132.274 68.5948 132.376 68.3431C132.478 68.0915 132.631 67.8634 132.824 67.6728C133.017 67.4821 133.248 67.333 133.501 67.2345C133.754 67.136 134.025 67.0903 134.296 67.1L137.909 67.23C139.979 67.3042 141.61 68.6997 141.646 70.423L141.731 74.4389C141.771 76.2749 139.993 77.7912 137.789 77.8039Z" fill="white"/>
<path opacity="0.72" d="M71.6052 115.604L79.6185 115.526C80.312 115.519 80.9801 115.786 81.478 116.269C81.9759 116.752 82.2633 117.411 82.278 118.105L82.4591 126.645C82.4731 127.298 82.2307 127.93 81.7839 128.406C81.3372 128.882 80.7216 129.164 80.0693 129.192L71.9249 129.537C71.593 129.551 71.2617 129.499 70.9503 129.383C70.6389 129.267 70.3537 129.091 70.1115 128.864C69.8693 128.636 69.6749 128.363 69.5397 128.059C69.4044 127.756 69.3312 127.429 69.3241 127.097L69.1344 118.153C69.1273 117.823 69.1858 117.495 69.3065 117.187C69.4271 116.88 69.6076 116.599 69.8374 116.362C70.0673 116.125 70.3419 115.936 70.6453 115.806C70.9487 115.676 71.275 115.607 71.6052 115.604Z" fill="white"/>
<path opacity="0.72" d="M65.1571 66.8614L65.3469 75.7988C65.3535 76.1141 65.2974 76.4274 65.1818 76.7208C65.0662 77.0141 64.8934 77.2815 64.6734 77.5074C64.4535 77.7333 64.1909 77.9133 63.9007 78.0367C63.6106 78.1602 63.2989 78.2247 62.9836 78.2265L54.5953 78.2737C53.9713 78.2771 53.3709 78.0351 52.9238 77.5999C52.4766 77.1647 52.2184 76.5711 52.205 75.9472L52.0083 66.6608C52.0015 66.3373 52.0607 66.0158 52.1825 65.716C52.3042 65.4162 52.4859 65.1444 52.7163 64.9173C52.9468 64.6902 53.2212 64.5125 53.5227 64.3951C53.8243 64.2778 54.1466 64.2232 54.47 64.2348L62.8651 64.5367C63.4719 64.558 64.0474 64.8108 64.4736 65.2431C64.8999 65.6754 65.1444 66.2545 65.1571 66.8614Z" fill="white"/>
<path opacity="0.72" d="M65.5353 84.8017L65.7176 93.3849C65.7308 94.0107 65.4967 94.6163 65.0661 95.0705C64.6355 95.5247 64.0431 95.7907 63.4176 95.8109L55.0339 96.0852C54.7196 96.0956 54.4063 96.0435 54.1122 95.932C53.8181 95.8204 53.5492 95.6516 53.3208 95.4353C53.0925 95.219 52.9094 94.9595 52.782 94.6719C52.6547 94.3843 52.5858 94.0743 52.5792 93.7598L52.3912 84.8874C52.3844 84.5707 52.4411 84.2558 52.5577 83.9613C52.6744 83.6667 52.8488 83.3985 53.0707 83.1723C53.2925 82.9461 53.5573 82.7666 53.8495 82.6442C54.1417 82.5218 54.4555 82.4591 54.7723 82.4597L63.1617 82.4747C63.783 82.4754 64.3792 82.7194 64.8229 83.1543C65.2665 83.5893 65.5223 84.1806 65.5353 84.8017Z" fill="white"/>
<path opacity="0.72" d="M138.719 59.9936L138.333 62.8238C138.274 63.2629 138.06 63.6665 137.729 63.9617C137.399 64.2569 136.973 64.4243 136.53 64.4338H136.397C135.904 64.444 135.427 64.2581 135.072 63.9169C134.716 63.5758 134.51 63.1073 134.499 62.6145L134.438 59.7176C134.432 59.453 134.483 59.1903 134.587 58.947C134.691 58.7038 134.846 58.4855 135.041 58.3069C135.237 58.1282 135.468 57.9933 135.719 57.9111C135.971 57.829 136.237 57.8014 136.5 57.8304L137.081 57.8942C137.328 57.9214 137.567 57.9977 137.783 58.1187C138 58.2396 138.19 58.4027 138.343 58.5984C138.496 58.794 138.608 59.0183 138.672 59.2579C138.737 59.4975 138.753 59.7477 138.719 59.9936Z" fill="white"/>
<path opacity="0.72" d="M125.584 59.2632L125.197 62.0934C125.138 62.5325 124.924 62.9361 124.593 63.2313C124.263 63.5265 123.838 63.6939 123.395 63.7034H123.261C122.768 63.7137 122.292 63.5279 121.936 63.1867C121.58 62.8455 121.374 62.3769 121.364 61.8841L121.302 58.9872C121.296 58.7226 121.347 58.4599 121.451 58.2165C121.555 57.9732 121.71 57.7549 121.905 57.5762C122.101 57.3976 122.332 57.2627 122.583 57.1805C122.835 57.0984 123.101 57.0709 123.364 57.1L123.946 57.1638C124.192 57.1911 124.431 57.2674 124.648 57.3884C124.864 57.5094 125.055 57.6725 125.207 57.8681C125.36 58.0638 125.472 58.288 125.537 58.5276C125.601 58.7672 125.617 59.0173 125.584 59.2632Z" fill="white"/>
<path opacity="0.72" d="M109.421 59.4858L109.035 62.316C108.975 62.7547 108.76 63.1576 108.43 63.4522C108.1 63.7468 107.675 63.9138 107.232 63.9232L107.098 63.926C106.605 63.9362 106.129 63.7503 105.773 63.4091C105.417 63.068 105.211 62.5995 105.201 62.1067L105.139 59.2098C105.133 58.9452 105.184 58.6825 105.289 58.4391C105.393 58.1958 105.548 57.9775 105.743 57.7989C105.938 57.6202 106.169 57.4853 106.421 57.4032C106.672 57.3211 106.939 57.2936 107.202 57.3226L107.783 57.3865C108.03 57.4137 108.268 57.4901 108.485 57.6111C108.702 57.732 108.892 57.8951 109.045 58.0908C109.197 58.2865 109.309 58.5107 109.374 58.7503C109.438 58.9899 109.454 59.24 109.421 59.4858Z" fill="white"/>
<path opacity="0.72" d="M93.6726 58.7802L93.2861 61.6104C93.2268 62.0496 93.0126 62.4531 92.6821 62.7483C92.3516 63.0434 91.9265 63.2109 91.4835 63.2205H91.3501C90.8573 63.2308 90.3806 63.045 90.0248 62.7039C89.6689 62.3629 89.4631 61.8945 89.4526 61.4017L89.391 58.5042C89.3855 58.2397 89.4365 57.9771 89.5406 57.7338C89.6447 57.4906 89.7995 57.2724 89.9947 57.0938C90.1899 56.9151 90.4209 56.7802 90.6724 56.698C90.9239 56.6158 91.19 56.5882 91.453 56.617L92.0344 56.6809C92.281 56.7081 92.5197 56.7845 92.7364 56.9055C92.9531 57.0264 93.1434 57.1895 93.296 57.3852C93.4487 57.5808 93.5607 57.8051 93.6253 58.0446C93.69 58.2842 93.7061 58.5343 93.6726 58.7802Z" fill="white"/>
<path opacity="0.72" d="M77.4997 56.7239L77.1133 59.5541C77.0539 59.9933 76.8397 60.3968 76.5092 60.6919C76.1787 60.9871 75.7537 61.1546 75.3107 61.1642H75.1773C74.6844 61.1743 74.2077 60.9884 73.8519 60.6473C73.4961 60.3061 73.2903 59.8377 73.2797 59.3448L73.2182 56.4479C73.2126 56.1834 73.2635 55.9206 73.3676 55.6773C73.4717 55.434 73.6265 55.2158 73.8217 55.0371C74.0168 54.8584 74.2479 54.7234 74.4994 54.6412C74.751 54.5589 75.0171 54.5313 75.2802 54.5602L75.8615 54.6246C76.1082 54.6518 76.347 54.7281 76.5637 54.849C76.7804 54.97 76.9707 55.1331 77.1234 55.3287C77.2761 55.5244 77.388 55.7486 77.4527 55.9883C77.5173 56.2279 77.5333 56.478 77.4997 56.7239Z" fill="white"/>
<path opacity="0.72" d="M60.3659 57.0874L59.9795 59.9176C59.9203 60.3568 59.7061 60.7604 59.3756 61.0556C59.045 61.3508 58.6199 61.5182 58.1769 61.5277H58.0435C57.5506 61.5378 57.0739 61.3519 56.7181 61.0108C56.3623 60.6696 56.1565 60.2012 56.1459 59.7083L56.0844 56.8114C56.0788 56.5469 56.1297 56.2842 56.2338 56.0409C56.3379 55.7976 56.4927 55.5794 56.6879 55.4007C56.8831 55.2221 57.1142 55.0872 57.3657 55.005C57.6172 54.9228 57.8834 54.8953 58.1464 54.9242L58.7277 54.9881C58.9744 55.0153 59.2132 55.0916 59.4299 55.2125C59.6466 55.3335 59.8369 55.4966 59.9896 55.6922C60.1423 55.8879 60.2543 56.1122 60.3189 56.3518C60.3835 56.5914 60.3995 56.8415 60.3659 57.0874Z" fill="white"/>
<path opacity="0.72" d="M45.904 56.7843L45.5176 59.6145C45.4579 60.0532 45.2435 60.456 44.9131 60.7507C44.5828 61.0453 44.1581 61.2123 43.7155 61.2217L43.5815 61.2246C43.0887 61.2347 42.612 61.0488 42.2562 60.7077C41.9004 60.3665 41.6946 59.8981 41.684 59.4052L41.6225 56.5083C41.6169 56.2438 41.6678 55.9811 41.7719 55.7378C41.876 55.4945 42.0308 55.2763 42.226 55.0976C42.4212 54.919 42.6523 54.7841 42.9038 54.7019C43.1553 54.6197 43.4215 54.5922 43.6845 54.6211L44.2658 54.685C44.5125 54.7122 44.7512 54.7885 44.968 54.9094C45.1847 55.0304 45.375 55.1935 45.5277 55.3891C45.6804 55.5848 45.7923 55.8091 45.857 56.0487C45.9216 56.2883 45.9376 56.5384 45.904 56.7843Z" fill="white"/>
<path d="M20.7331 136.723C20.8135 136.723 20.8906 136.691 20.9476 136.634C21.0046 136.578 21.0369 136.501 21.0373 136.42L21.4076 83.0197C21.4081 82.939 21.3765 82.8614 21.3198 82.8039C21.2631 82.7465 21.1859 82.7139 21.1052 82.7133C21.0247 82.7131 20.9474 82.7448 20.8903 82.8015C20.8332 82.8582 20.8009 82.9352 20.8004 83.0157L20.4307 136.416C20.4304 136.456 20.4379 136.496 20.4529 136.533C20.468 136.57 20.4901 136.604 20.5181 136.632C20.5462 136.661 20.5795 136.683 20.6163 136.699C20.6531 136.714 20.6926 136.723 20.7326 136.723H20.7331Z" fill="#BDD0FB"/>
<path d="M21.1886 71.0607C21.269 71.0607 21.3461 71.0289 21.4031 70.9722C21.4601 70.9155 21.4923 70.8386 21.4928 70.7582L21.6222 52.1077C21.6225 52.0678 21.6149 52.0281 21.5998 51.991C21.5848 51.954 21.5626 51.9202 21.5345 51.8918C21.5064 51.8633 21.473 51.8407 21.4361 51.8251C21.3993 51.8096 21.3597 51.8015 21.3197 51.8013C21.2394 51.8014 21.1624 51.8333 21.1054 51.8899C21.0484 51.9466 21.0161 52.0234 21.0155 52.1037L20.8867 70.7542C20.8864 70.7941 20.894 70.8338 20.909 70.8708C20.924 70.9078 20.9462 70.9415 20.9742 70.97C21.0022 70.9984 21.0356 71.0211 21.0724 71.0366C21.1092 71.0522 21.1487 71.0604 21.1886 71.0607Z" fill="#BDD0FB"/>
<path d="M138.643 52.8902C139.055 51.1414 137.972 49.3891 136.224 48.9764C134.475 48.5637 132.723 49.6467 132.31 51.3955C131.897 53.1442 132.98 54.8965 134.729 55.3092C136.478 55.722 138.23 54.6389 138.643 52.8902Z" fill="url(#paint2_linear_7_13281)"/>
<path d="M111.125 54.199C112.396 52.9282 112.396 50.8679 111.125 49.5972C109.855 48.3264 107.794 48.3264 106.524 49.5972C105.253 50.8679 105.253 52.9282 106.524 54.199C107.794 55.4697 109.855 55.4697 111.125 54.199Z" fill="url(#paint3_linear_7_13281)"/>
<path d="M82.6601 54.1934C84.4089 53.7806 85.4919 52.0284 85.0792 50.2796C84.6664 48.5309 82.9142 47.4478 81.1654 47.8606C79.4167 48.2733 78.3336 50.0256 78.7464 51.7743C79.1591 53.5231 80.9114 54.6061 82.6601 54.1934Z" fill="url(#paint4_linear_7_13281)"/>
<path d="M55.9112 52.9566C57.6716 52.5952 58.8057 50.8752 58.4444 49.1148C58.083 47.3543 56.363 46.2202 54.6026 46.5815C52.8421 46.9429 51.708 48.6629 52.0693 50.4234C52.4307 52.1838 54.1507 53.3179 55.9112 52.9566Z" fill="url(#paint5_linear_7_13281)"/>
<path d="M52.7803 27.2243C58.2555 28.4191 57.7392 42.8237 57.2987 48.6722C57.2487 49.3353 56.9498 49.9551 56.462 50.4073C55.9743 50.8594 55.3337 51.1105 54.6686 51.1102C54.4793 51.1096 54.2922 51.0693 54.1194 50.9919C53.9466 50.9145 53.792 50.8017 53.6656 50.6608C53.5392 50.5199 53.4437 50.354 53.3854 50.1739C53.3271 49.9938 53.3072 49.8034 53.3271 49.6152C53.7998 45.1951 54.806 32.4661 50.7752 31.7852C50.7752 31.7852 47.884 31.2735 47.3976 36.8741H44.2695C44.2695 36.8741 45.8968 25.7229 52.7803 27.2243Z" fill="url(#paint6_linear_7_13281)"/>
<path d="M79.44 27.9655C84.9153 29.1598 84.3983 43.5701 83.9579 49.418C83.908 50.0814 83.6093 50.7015 83.1215 51.1541C82.6338 51.6066 81.9931 51.8581 81.3278 51.8583C81.1383 51.8581 80.9511 51.8181 80.7781 51.7408C80.6052 51.6635 80.4504 51.5507 80.3239 51.4097C80.1974 51.2687 80.102 51.1027 80.0438 50.9224C79.9856 50.7421 79.966 50.5516 79.9863 50.3633C80.4595 45.9432 81.4658 33.2038 77.435 32.5236C77.435 32.5236 74.5438 32.1211 74.0573 37.6026H70.9287C70.9287 37.6026 72.556 26.4635 79.44 27.9655Z" fill="url(#paint7_linear_7_13281)"/>
<path d="M106.099 28.7094C111.574 29.9037 111.058 44.3175 110.617 50.1654C110.567 50.8291 110.269 51.4494 109.781 51.9023C109.293 52.3551 108.652 52.607 107.987 52.6075C107.797 52.6074 107.61 52.5675 107.437 52.4903C107.264 52.4131 107.109 52.3003 106.983 52.1592C106.856 52.0182 106.761 51.8521 106.703 51.6717C106.645 51.4914 106.625 51.3008 106.645 51.1124C107.118 46.6923 108.125 33.9466 104.094 33.2664C104.094 33.2664 101.204 32.941 100.717 38.4478L97.5879 38.3392C97.5879 38.3392 99.2152 27.2075 106.099 28.7094Z" fill="url(#paint8_linear_7_13281)"/>
<path d="M132.759 29.5702C138.234 30.7645 137.717 45.1858 137.277 51.0342C137.226 51.698 136.928 52.3184 136.44 52.7717C135.953 53.225 135.312 53.4778 134.647 53.4797C134.457 53.4801 134.27 53.4405 134.097 53.3637C133.924 53.2868 133.769 53.1743 133.643 53.0336C133.516 52.8928 133.421 52.727 133.362 52.5468C133.304 52.3667 133.285 52.1763 133.305 51.9881C133.778 47.568 134.785 34.8074 130.754 34.1272C130.754 34.1272 127.863 33.7057 127.376 39.1872H124.248C124.248 39.1872 125.875 28.0683 132.759 29.5702Z" fill="url(#paint9_linear_7_13281)"/>
<path d="M119.303 94.3158C118.526 94.3152 117.78 94.0104 117.225 93.4666C116.669 92.9228 116.349 92.1832 116.333 91.4063L116.203 85.2767C116.194 84.881 116.265 84.4877 116.411 84.1198C116.556 83.7519 116.774 83.4167 117.051 83.1339C117.328 82.8512 117.658 82.6265 118.023 82.4731C118.388 82.3197 118.779 82.2407 119.175 82.2406H119.181L127.049 82.255C127.825 82.2607 128.567 82.5673 129.121 83.1103C129.675 83.6532 129.996 84.39 130.016 85.1651L130.14 91.0222C130.154 91.8038 129.861 92.5597 129.323 93.1273C128.786 93.6949 128.047 94.0287 127.265 94.0571L119.403 94.3141C119.369 94.3153 119.336 94.3158 119.303 94.3158ZM119.175 82.9116C118.869 82.9116 118.565 82.9727 118.283 83.0914C118.001 83.2102 117.745 83.3841 117.531 83.6031C117.316 83.8221 117.148 84.0816 117.035 84.3665C116.923 84.6515 116.868 84.956 116.875 85.2623L117.006 91.3913C117.012 91.6959 117.078 91.9963 117.201 92.2749C117.325 92.5536 117.502 92.805 117.723 93.0145C117.944 93.2241 118.205 93.3876 118.49 93.4956C118.775 93.6036 119.078 93.6539 119.383 93.6436L127.245 93.3866C127.85 93.3646 128.422 93.106 128.839 92.6665C129.255 92.2271 129.482 91.6418 129.472 91.0365L129.346 85.1789C129.33 84.5782 129.081 84.0073 128.652 83.5867C128.222 83.1662 127.647 82.9288 127.046 82.9249L119.177 82.9111L119.175 82.9116Z" fill="url(#paint10_linear_7_13281)"/>
<path d="M86.527 95.3888C85.945 95.3883 85.3864 95.16 84.9708 94.7526C84.5552 94.3453 84.3156 93.7913 84.3034 93.2095L84.1177 84.4556C84.1114 84.1593 84.1643 83.8647 84.2734 83.5891C84.3824 83.3135 84.5454 83.0625 84.7527 82.8507C84.96 82.6389 85.2074 82.4706 85.4806 82.3556C85.7538 82.2407 86.0472 82.1815 86.3436 82.1814H86.3481L95.7093 82.1981C96.2899 82.2031 96.8459 82.433 97.2604 82.8396C97.6749 83.2461 97.9155 83.7976 97.9317 84.3779L98.1106 92.8087C98.121 93.3942 97.9013 93.9604 97.4986 94.3855C97.0958 94.8106 96.5423 95.0606 95.9572 95.0818L86.6023 95.3877C86.5776 95.3888 86.5523 95.3888 86.527 95.3888ZM86.3436 82.8536C86.1367 82.854 85.932 82.8956 85.7415 82.9761C85.551 83.0565 85.3784 83.1741 85.2338 83.3221C85.0892 83.47 84.9756 83.6453 84.8996 83.8376C84.8236 84.03 84.7867 84.2355 84.791 84.4423L84.9767 93.1963C84.9811 93.4021 85.0262 93.605 85.1095 93.7933C85.1928 93.9815 85.3126 94.1514 85.4621 94.2929C85.6115 94.4345 85.7876 94.545 85.9801 94.6181C86.1725 94.6911 86.3776 94.7252 86.5833 94.7183L95.9382 94.4125C96.347 94.3976 96.7338 94.2229 97.0152 93.9259C97.2966 93.6289 97.4502 93.2333 97.443 92.8243L97.2642 84.3935C97.2533 83.9878 97.0853 83.6023 96.7957 83.3181C96.506 83.034 96.1174 82.8734 95.7116 82.8703L86.3499 82.8536H86.3436Z" fill="url(#paint11_linear_7_13281)"/>
<path d="M102.55 94.865C101.968 94.8644 101.41 94.6359 100.994 94.2285C100.578 93.8211 100.339 93.2671 100.326 92.6852L100.154 84.4844C100.148 84.188 100.2 83.8934 100.31 83.6178C100.419 83.3422 100.582 83.0911 100.789 82.8793C100.996 82.6675 101.244 82.4992 101.517 82.3843C101.79 82.2694 102.084 82.2102 102.38 82.2102H102.384L111.746 82.2275C112.326 82.2324 112.882 82.4623 113.297 82.8687C113.711 83.2752 113.952 83.8265 113.968 84.4067L114.135 92.2844C114.146 92.8699 113.926 93.436 113.523 93.8611C113.12 94.2862 112.567 94.5363 111.982 94.5574L102.624 94.8633C102.6 94.8645 102.575 94.865 102.55 94.865ZM102.378 82.8812C102.171 82.8808 101.966 82.9218 101.774 83.002C101.583 83.0821 101.41 83.1996 101.265 83.3477C101.12 83.4957 101.006 83.6713 100.93 83.8641C100.854 84.0568 100.818 84.2628 100.823 84.47L100.995 92.6708C100.999 92.8767 101.044 93.0798 101.127 93.2681C101.211 93.4564 101.331 93.6261 101.481 93.7673C101.631 93.9086 101.807 94.0189 101.999 94.0919C102.191 94.1649 102.396 94.1992 102.602 94.1929L111.956 93.8869C112.365 93.8721 112.752 93.6974 113.033 93.4004C113.315 93.1034 113.468 92.7078 113.461 92.2988L113.294 84.4211C113.283 84.0155 113.115 83.63 112.825 83.3458C112.536 83.0616 112.147 82.901 111.741 82.8979L102.38 82.8812H102.378Z" fill="url(#paint12_linear_7_13281)"/>
<path d="M13.6724 97.1806C13.6724 97.1806 6.32838 101.249 5.7206 108.134C5.11281 115.019 5.67 143.6 20.3972 150.632C35.1243 157.664 54.6166 156.045 62.0785 155.276C69.5405 154.507 73.6771 149.436 74.6017 145.944C75.5263 142.453 77.0167 129.447 69.169 125.251C61.3212 121.055 53.075 114.628 44.8351 108.37C36.5952 102.111 22.481 91.8939 13.6724 97.1806Z" fill="url(#paint13_linear_7_13281)"/>
<path d="M66.8542 127.625C66.8542 127.625 64.8721 127.73 64.6289 131.808C64.6289 131.808 69.2255 135.928 75.4339 136.909C75.9003 136.982 74.7824 133.727 74.6145 133.286C73.8159 131.188 71.2967 129.837 66.8542 127.625Z" fill="url(#paint14_linear_7_13281)"/>
<path d="M44.531 122.83H48.7142C48.7142 122.83 61.5519 108.651 69.9723 107.221C69.9723 107.221 75.8334 114.703 69.6601 128.683C69.1633 129.807 67.7746 130.306 66.7384 129.645C66.437 129.457 66.2032 129.178 66.0709 128.849L66.5671 116.913C66.5671 116.913 55.6166 126.491 53.7127 128.339C51.8089 130.187 42.1326 129.061 44.531 122.83Z" fill="url(#paint15_linear_7_13281)"/>
<path d="M84.9707 152.598C83.2174 151.063 80.4246 149.339 76.3932 148.845L75.0293 149.679C75.0293 149.679 75.8987 150.961 77.4875 152.316C78.9468 153.164 81.2015 154.312 83.0702 154.561C84.8867 154.803 85.1547 153.705 84.9707 152.598Z" fill="url(#paint16_linear_7_13281)"/>
<path d="M74.6143 133.285C73.5344 133.635 73.0618 135.165 70.3196 134.154C68.3188 133.416 66.4241 132.417 64.6845 131.184C64.6615 131.382 64.6425 131.587 64.627 131.808C64.627 131.808 69.4737 136.417 75.6821 137.398C75.7889 137.414 75.8979 137.401 75.9984 137.362C76.0988 137.322 76.1872 137.257 76.2547 137.173C76.3222 137.089 76.3665 136.988 76.3832 136.882C76.3999 136.775 76.3883 136.666 76.3497 136.565C75.9035 135.407 75.3209 134.306 74.6143 133.285Z" fill="url(#paint17_linear_7_13281)"/>
<path d="M86.294 153.91C85.8817 153.445 85.44 153.007 84.9715 152.598C85.1561 153.705 84.8881 154.803 83.074 154.561C81.2052 154.312 78.9506 153.164 77.4912 152.316C79.3209 153.877 82.1045 155.533 85.6184 155.435C86.3952 155.414 86.807 154.496 86.294 153.91Z" fill="url(#paint18_linear_7_13281)"/>
<path d="M44.6837 125.856L64.272 126.069C64.272 126.069 75.4576 135.323 77.4869 149.435C77.4869 149.435 77.8232 150.473 75.8015 150.651C75.8015 150.651 69.0382 146.234 64.6285 138.424C59.2234 128.849 48.5098 133.16 48.5098 133.16C44.9901 130.622 40.0163 130.105 36.2695 129.26L44.6837 125.856Z" fill="url(#paint19_linear_7_13281)"/>
<path d="M45.147 110.077C45.147 110.077 47.2555 120.644 57.5873 124.825L61.2628 124.392L62.1299 125.775L53.5088 126.05C53.5088 126.05 46.14 123.131 42.2386 115.178C42.1069 114.916 39.9569 110.479 45.147 110.077Z" fill="url(#paint20_linear_7_13281)"/>
<path d="M46.2756 125.684C46.2756 125.684 43.8778 119.166 43.3626 112.832C43.3626 112.832 45.1164 111.324 46.2129 110.674C46.3841 110.573 46.511 110.411 46.5684 110.22C46.6258 110.03 46.6096 109.825 46.5229 109.646C45.7179 107.978 40.8418 101.418 40.4766 101.328C38.4917 100.832 30.3507 96.9616 24.6178 104.804C22.1568 108.17 25.106 118.53 36.2687 129.26L38.5688 129.7L46.2756 125.684Z" fill="url(#paint21_linear_7_13281)"/>
<path d="M37.0362 114.26C37.0362 114.26 43.6982 122.149 52.2164 123.302C52.2164 123.302 54.4176 121.295 56.0546 122.011C57.6917 122.728 59.936 125.89 59.936 125.89H48.9993C48.9993 125.89 38.6583 125.526 33.4912 119.255C33.9092 117.061 35.1518 115.751 37.0362 114.26Z" fill="url(#paint22_linear_7_13281)"/>
<path d="M33.1507 95.7948L31.6931 100.657C31.6601 100.765 31.6624 100.881 31.6997 100.988C31.737 101.095 31.8074 101.187 31.9006 101.252C32.6027 101.732 34.437 102.689 36.9533 101.759C37.0941 101.706 37.2168 101.614 37.3071 101.493C37.3973 101.373 37.4513 101.229 37.4627 101.079L37.8077 96.843L33.1507 95.7948Z" fill="url(#paint23_linear_7_13281)"/>
<path d="M41.6861 91.8572C41.6861 91.8572 40.9696 96.8972 39.0335 98.4468C37.0975 99.9965 33.326 98.8298 32.0518 95.0307L34.5904 88.5331L41.6861 91.8572Z" fill="url(#paint24_linear_7_13281)"/>
<path d="M34.3033 92.7381C34.3379 92.7494 34.3744 92.753 34.4105 92.7487C34.4465 92.7444 34.4812 92.7323 34.5121 92.7133C34.543 92.6943 34.5694 92.6687 34.5895 92.6385C34.6095 92.6082 34.6227 92.5739 34.6282 92.538C34.6978 92.0728 34.872 91.1522 35.2257 90.5255C35.2257 90.5255 35.0405 89.8642 36.8966 90.8636C38.7528 91.863 41.5398 93.3292 43.1804 92.4558C44.7806 91.6036 46.4004 87.3169 42.1729 88.111C42.1354 88.1184 42.0968 88.1171 42.0599 88.1072C42.023 88.0972 41.9889 88.0789 41.9602 88.0537C41.9315 88.0284 41.909 87.9969 41.8944 87.9616C41.8799 87.9263 41.8737 87.8881 41.8762 87.8499C41.928 87.145 41.8578 85.524 40.2167 85.0036C38.6803 84.5172 39.5049 85.3061 39.1587 85.7247C39.0564 85.8478 39.2875 85.3055 37.1042 85.6229C36.3567 85.7316 35.3947 83.7432 33.5547 84.554C32.0395 85.2216 31.8038 86.1554 31.8296 86.739C31.8318 86.782 31.8227 86.8247 31.8034 86.8631C31.7841 86.9015 31.7552 86.9343 31.7195 86.9582C31.6837 86.9821 31.6424 86.9963 31.5996 86.9996C31.5567 87.0028 31.5137 86.9948 31.4749 86.9765C31.0108 86.7626 30.2645 86.6516 29.5492 87.5475C28.5607 88.7861 29.9735 89.8602 30.3973 90.1419C30.432 90.1641 30.4606 90.1945 30.4807 90.2304C30.5008 90.2663 30.5116 90.3067 30.5123 90.3478C30.5163 90.9918 30.6164 93.8019 32.0246 95.3866C32.0531 95.4179 32.089 95.4416 32.1291 95.4553C32.1691 95.469 32.212 95.4724 32.2538 95.4652C32.2955 95.458 32.3347 95.4404 32.3678 95.414C32.4009 95.3876 32.4269 95.3532 32.4432 95.3142L33.5271 92.7306C33.5516 92.6729 33.5968 92.6264 33.6538 92.6003C33.7108 92.5741 33.7755 92.5702 33.8353 92.5892L34.3033 92.7381Z" fill="url(#paint25_linear_7_13281)"/>
<path d="M34.3269 93.2625C34.3269 93.2625 33.6651 90.5657 32.6594 91.4414C31.6537 92.3172 32.9216 94.244 34.0739 94.6115L34.3269 93.2625Z" fill="url(#paint26_linear_7_13281)"/>
<path d="M59.3857 126.503L64.2958 110.126C64.3937 109.8 64.5888 109.512 64.855 109.299C65.1212 109.086 65.4458 108.96 65.7856 108.937L72.4155 108.484C72.5708 108.473 72.7264 108.501 72.8682 108.565C73.01 108.629 73.1337 108.728 73.228 108.852C73.3223 108.976 73.3843 109.121 73.4085 109.275C73.4327 109.429 73.4183 109.586 73.3665 109.733L67.8775 125.373C67.7909 125.62 67.6357 125.837 67.4302 125.999C67.2247 126.161 66.9774 126.261 66.7171 126.287L60.1879 127.01L59.3857 126.503Z" fill="url(#paint27_linear_7_13281)"/>
<path d="M68.4414 115.677C68.0752 116.417 67.4421 116.851 67.0275 116.645C66.6129 116.44 66.5744 115.673 66.9412 114.933C67.3081 114.193 67.9406 113.76 68.3552 113.965C68.7698 114.17 68.8083 114.937 68.4414 115.677Z" fill="#91B3FA"/>
<path d="M60.1883 127.01H60.1561L46.2448 126.307C46.1623 126.304 46.0812 126.285 46.0063 126.25C45.9313 126.215 45.864 126.166 45.8082 126.105C45.7524 126.044 45.7093 125.973 45.6813 125.895C45.6534 125.818 45.6411 125.735 45.6453 125.653C45.6495 125.57 45.6701 125.489 45.7058 125.415C45.7414 125.34 45.7916 125.274 45.8532 125.219C45.9149 125.164 45.9869 125.122 46.0649 125.095C46.143 125.068 46.2257 125.057 46.3081 125.062L60.2193 125.766C60.3826 125.772 60.5366 125.843 60.6483 125.963C60.7599 126.082 60.8201 126.24 60.8161 126.404C60.812 126.567 60.7439 126.722 60.6265 126.836C60.5091 126.95 60.3517 127.013 60.1883 127.012V127.01Z" fill="url(#paint28_linear_7_13281)"/>
<path d="M43.3633 112.942C43.3488 112.942 43.3344 112.939 43.321 112.934C43.3075 112.928 43.2953 112.92 43.2851 112.91C43.2748 112.899 43.2667 112.887 43.2612 112.874C43.2557 112.86 43.2529 112.846 43.2529 112.831C43.2621 109.925 42.1409 106.067 42.1294 106.028C42.1253 106.014 42.1241 106 42.1257 105.985C42.1273 105.971 42.1317 105.957 42.1387 105.944C42.1457 105.932 42.1551 105.92 42.1664 105.911C42.1778 105.902 42.1908 105.895 42.2047 105.891C42.2186 105.887 42.2332 105.886 42.2476 105.888C42.2621 105.889 42.276 105.894 42.2887 105.901C42.3014 105.908 42.3126 105.917 42.3217 105.929C42.3308 105.94 42.3375 105.953 42.3415 105.967C42.353 106.005 43.4835 109.894 43.4737 112.832C43.4736 112.862 43.4619 112.89 43.4412 112.91C43.4205 112.931 43.3925 112.942 43.3633 112.942Z" fill="url(#paint29_linear_7_13281)"/>
<path d="M37.0373 114.371C37.0206 114.371 37.0041 114.367 36.989 114.36C36.974 114.352 36.9608 114.342 36.9504 114.329C36.92 114.29 33.877 110.423 32.8311 107.773C32.8202 107.746 32.8207 107.716 32.8323 107.689C32.8438 107.662 32.8657 107.641 32.8929 107.63C32.9201 107.619 32.9505 107.62 32.9774 107.631C33.0043 107.643 33.0255 107.665 33.0363 107.692C34.0714 110.313 37.093 114.155 37.1235 114.193C37.1366 114.21 37.1448 114.229 37.1472 114.25C37.1496 114.271 37.146 114.291 37.137 114.31C37.128 114.329 37.1138 114.345 37.0961 114.356C37.0785 114.367 37.0581 114.372 37.0373 114.372V114.371Z" fill="url(#paint30_linear_7_13281)"/>
<path d="M32.7543 120.284L32.6727 120.249C28.271 118.365 25.5518 113.109 25.5247 113.056C25.5175 113.043 25.513 113.029 25.5114 113.014C25.5098 112.999 25.5112 112.984 25.5155 112.97C25.5199 112.956 25.527 112.943 25.5366 112.931C25.5461 112.92 25.5578 112.911 25.5711 112.904C25.5843 112.897 25.5988 112.893 25.6136 112.892C25.6284 112.891 25.6433 112.893 25.6573 112.898C25.6714 112.903 25.6843 112.91 25.6953 112.92C25.7063 112.93 25.7152 112.943 25.7214 112.956C25.7478 113.008 28.3975 118.128 32.679 120.01L33.1321 119.37C33.1405 119.358 33.1511 119.348 33.1634 119.34C33.1757 119.332 33.1894 119.327 33.2037 119.325C33.218 119.322 33.2327 119.322 33.2468 119.326C33.261 119.329 33.2744 119.335 33.2862 119.343C33.2981 119.352 33.3082 119.362 33.3159 119.375C33.3237 119.387 33.3289 119.4 33.3314 119.415C33.3338 119.429 33.3334 119.444 33.3302 119.458C33.327 119.472 33.3211 119.485 33.3127 119.497L32.7543 120.284Z" fill="url(#paint31_linear_7_13281)"/>
<path d="M65.748 48.572C65.748 48.572 75.5842 74.5136 78.6921 79.9101C82.2992 86.1743 92.8374 82.1825 92.3101 76.9402C91.7828 71.6978 79.477 50.0297 79.477 50.0297L65.748 48.572Z" fill="url(#paint32_linear_7_13281)"/>
<path d="M86.3945 80.0545C85.9363 80.0541 85.4794 80.0045 85.0317 79.9068C84.0583 79.6997 83.1476 79.2652 82.3742 78.6388C81.6008 78.0123 80.9865 77.2118 80.5817 76.3026L72.7535 58.9102C72.7262 58.8492 72.7241 58.7799 72.7479 58.7174C72.7717 58.6549 72.8193 58.6044 72.8803 58.577C72.9413 58.5497 73.0107 58.5476 73.0732 58.5714C73.1357 58.5952 73.1862 58.6428 73.2136 58.7038L81.0412 76.0939C81.4139 76.931 81.9795 77.6681 82.6916 78.2449C83.4038 78.8216 84.2423 79.2216 85.1387 79.4122C86.0149 79.6094 86.9253 79.5963 87.7954 79.3739C88.6655 79.1515 89.4706 78.7262 90.1447 78.1328C90.2189 78.0679 90.2931 78.0017 90.3673 77.9333C90.4166 77.8883 90.4818 77.8646 90.5486 77.8677C90.6153 77.8707 90.6781 77.9001 90.7232 77.9494C90.7683 77.9988 90.7919 78.064 90.7889 78.1307C90.7858 78.1975 90.7564 78.2603 90.7071 78.3054C90.6304 78.3763 90.5538 78.4451 90.4771 78.5118C89.3497 79.5063 87.8979 80.0549 86.3945 80.0545Z" fill="#91B3FA"/>
<path d="M71.8259 56.4859C71.7773 56.4861 71.7297 56.4721 71.6889 56.4458C71.6481 56.4195 71.6158 56.3819 71.5959 56.3376L70.7224 54.3975C70.695 54.3365 70.6929 54.2671 70.7166 54.2045C70.7403 54.142 70.7879 54.0914 70.8489 54.064C70.9099 54.0365 70.9793 54.0344 71.0419 54.0581C71.1044 54.0819 71.155 54.1295 71.1824 54.1905L72.0559 56.1305C72.0733 56.1689 72.0809 56.2111 72.0777 56.2531C72.0746 56.2952 72.061 56.3358 72.0381 56.3712C72.0152 56.4066 71.9837 56.4356 71.9467 56.4557C71.9096 56.4757 71.868 56.4861 71.8259 56.4859Z" fill="#91B3FA"/>
<path d="M79.0391 29.6755L140.175 8.47827L139.533 65.8402L77.3682 51.9698L79.0391 29.6755Z" fill="url(#paint33_linear_7_13281)"/>
<path d="M140.231 66.8045C143.549 66.8045 146.238 53.6065 146.238 37.326C146.238 21.0455 143.549 7.84753 140.231 7.84753C136.914 7.84753 134.225 21.0455 134.225 37.326C134.225 53.6065 136.914 66.8045 140.231 66.8045Z" fill="url(#paint34_linear_7_13281)"/>
<path d="M140.69 64.7885C140.147 64.2365 138.965 62.1067 137.95 56.5987C136.973 51.2764 136.431 44.3722 136.431 37.1593C136.431 29.9464 136.971 23.0428 137.95 17.7199C138.965 12.2102 140.145 10.0826 140.69 9.53003C141.233 10.082 142.415 12.2125 143.429 17.7199C144.407 23.0428 144.948 29.9464 144.948 37.1593C144.948 44.3722 144.409 51.2764 143.429 56.5987C142.415 62.1067 141.231 64.2365 140.69 64.7885Z" fill="url(#paint35_linear_7_13281)"/>
<path d="M148.386 36.9397C148.386 41.9486 145.688 46.0087 140.347 46.0087C135.006 46.0087 130.678 41.9486 130.678 36.9397C130.678 31.9308 135.007 27.8706 140.347 27.8706C145.687 27.8706 148.386 31.9331 148.386 36.9397Z" fill="url(#paint36_linear_7_13281)"/>
<path d="M69.1776 28.4421C72.0527 28.1081 76.1772 27.9879 80.6365 29.0091C79.1673 36.6832 79.3893 44.6816 81.0878 52.964H68.5112C67.541 52.964 66.6027 52.6179 65.8649 51.9879C65.1271 51.3579 64.6382 50.4854 64.4861 49.5272C63.8594 45.5596 63.0929 38.8843 63.9111 33.5252C64.1102 32.2177 64.7335 31.0119 65.6852 30.0935C66.6368 29.175 67.8639 28.5948 69.1776 28.4421Z" fill="url(#paint37_linear_7_13281)"/>
<path d="M76.7254 34.3193H66.9267C66.7661 34.3189 66.6085 34.2753 66.4706 34.1929C66.3327 34.1106 66.2195 33.9926 66.143 33.8513C66.0665 33.7101 66.0295 33.5508 66.0359 33.3903C66.0422 33.2298 66.0917 33.074 66.1792 32.9393C66.2155 32.8832 66.2726 32.8438 66.3379 32.8297C66.4033 32.8157 66.4715 32.8282 66.5276 32.8645C66.5838 32.9008 66.6232 32.9579 66.6372 33.0233C66.6512 33.0886 66.6387 33.1569 66.6024 33.213C66.5644 33.2718 66.5429 33.3398 66.5402 33.4099C66.5376 33.4799 66.5539 33.5493 66.5874 33.6109C66.6208 33.6724 66.6703 33.7238 66.7305 33.7596C66.7907 33.7955 66.8595 33.8144 66.9296 33.8144H76.7283C76.8317 33.8143 76.9307 33.7732 77.0038 33.7001C77.0769 33.627 77.118 33.5279 77.1182 33.4246V32.7277C77.118 32.6243 77.0769 32.5252 77.0038 32.4522C76.9307 32.3791 76.8317 32.338 76.7283 32.3378H66.8542C66.7874 32.3378 66.7234 32.3113 66.6762 32.264C66.6289 32.2168 66.6024 32.1528 66.6024 32.086C66.6024 32.0192 66.6289 31.9551 66.6762 31.9079C66.7234 31.8606 66.7874 31.8341 66.8542 31.8341H76.7254C76.9623 31.8344 77.1895 31.9286 77.357 32.0962C77.5245 32.2637 77.6187 32.4908 77.619 32.7277V33.428C77.6181 33.6645 77.5236 33.891 77.3561 34.0581C77.1887 34.2251 76.9619 34.319 76.7254 34.3193Z" fill="#91B3FA"/>
<path d="M75.8515 38.6606H66.0522C65.8915 38.6604 65.7338 38.6169 65.5958 38.5346C65.4577 38.4523 65.3445 38.3342 65.2679 38.1929C65.1914 38.0516 65.1544 37.8923 65.1609 37.7317C65.1673 37.5711 65.217 37.4153 65.3047 37.2806C65.341 37.2245 65.3981 37.1851 65.4634 37.171C65.5288 37.157 65.597 37.1695 65.6531 37.2058C65.7092 37.2421 65.7486 37.2992 65.7627 37.3646C65.7767 37.4299 65.7642 37.4982 65.7279 37.5543C65.6896 37.6131 65.668 37.6811 65.6653 37.7512C65.6625 37.8213 65.6788 37.8909 65.7123 37.9525C65.7458 38.0141 65.7953 38.0655 65.8557 38.1013C65.916 38.1371 65.9849 38.1559 66.0551 38.1557H75.8538C75.9571 38.1556 76.0561 38.1145 76.1291 38.0414C76.2021 37.9683 76.2431 37.8692 76.2431 37.7659V37.069C76.2431 36.9657 76.2021 36.8666 76.1291 36.7935C76.0561 36.7204 75.9571 36.6793 75.8538 36.6791H65.9797C65.9129 36.6791 65.8489 36.6526 65.8016 36.6054C65.7544 36.5581 65.7279 36.4941 65.7279 36.4273C65.7279 36.3605 65.7544 36.2964 65.8016 36.2492C65.8489 36.2019 65.9129 36.1754 65.9797 36.1754H75.8515C76.0884 36.1757 76.3155 36.27 76.483 36.4375C76.6505 36.605 76.7448 36.8321 76.7451 37.069V37.7659C76.7451 38.003 76.651 38.2304 76.4834 38.3981C76.3159 38.5659 76.0886 38.6603 75.8515 38.6606Z" fill="#91B3FA"/>
<path opacity="0.76" d="M87.922 28.1223C87.8617 28.1226 87.8033 28.1013 87.7574 28.0622C87.7115 28.0231 87.6812 27.9688 87.6719 27.9092C87.6627 27.8496 87.6751 27.7886 87.707 27.7374C87.7388 27.6862 87.788 27.6482 87.8456 27.6301L134.149 12.8955C134.212 12.8782 134.279 12.8859 134.336 12.9171C134.393 12.9482 134.437 13.0002 134.456 13.0624C134.476 13.1245 134.471 13.1919 134.442 13.2504C134.413 13.3089 134.363 13.354 134.302 13.3762L87.9985 28.1108C87.9738 28.1186 87.948 28.1225 87.922 28.1223Z" fill="white"/>
<path opacity="0.76" d="M81.6597 30.6824C81.6015 30.6819 81.5453 30.6614 81.5005 30.6243C81.4557 30.5872 81.4251 30.5357 81.4139 30.4787C81.4027 30.4216 81.4115 30.3624 81.4389 30.3111C81.4663 30.2598 81.5106 30.2195 81.5642 30.1971L83.9476 29.223C83.9783 29.2101 84.0113 29.2034 84.0446 29.2032C84.0779 29.2031 84.1109 29.2096 84.1417 29.2224C84.1725 29.2351 84.2004 29.2538 84.2239 29.2774C84.2474 29.3011 84.266 29.3291 84.2786 29.3599C84.2911 29.3908 84.2975 29.4238 84.2972 29.4571C84.297 29.4904 84.2901 29.5233 84.277 29.554C84.2639 29.5846 84.2449 29.6123 84.2211 29.6356C84.1972 29.6588 84.1689 29.6771 84.138 29.6893L81.7551 30.6634C81.7249 30.6761 81.6924 30.6826 81.6597 30.6824Z" fill="white"/>
<path d="M76.7254 43.7414H66.9267C66.7661 43.741 66.6085 43.6973 66.4706 43.615C66.3327 43.5326 66.2195 43.4146 66.143 43.2734C66.0665 43.1322 66.0295 42.9729 66.0359 42.8124C66.0422 42.6519 66.0917 42.4961 66.1792 42.3613C66.2155 42.3052 66.2726 42.2658 66.3379 42.2518C66.4033 42.2378 66.4715 42.2503 66.5276 42.2866C66.5838 42.3229 66.6232 42.38 66.6372 42.4453C66.6512 42.5107 66.6387 42.5789 66.6024 42.635C66.5644 42.6939 66.5429 42.7619 66.5402 42.8319C66.5376 42.902 66.5539 42.9714 66.5874 43.0329C66.6208 43.0945 66.6703 43.1459 66.7305 43.1817C66.7907 43.2175 66.8595 43.2365 66.9296 43.2365H76.7283C76.8317 43.2364 76.9307 43.1952 77.0038 43.1222C77.0769 43.0491 77.118 42.95 77.1182 42.8467V42.1509C77.118 42.0475 77.0769 41.9485 77.0038 41.8754C76.9307 41.8023 76.8317 41.7612 76.7283 41.761H66.8542C66.7874 41.761 66.7234 41.7345 66.6762 41.6873C66.6289 41.64 66.6024 41.576 66.6024 41.5092C66.6024 41.4424 66.6289 41.3783 66.6762 41.3311C66.7234 41.2839 66.7874 41.2573 66.8542 41.2573H76.7254C76.9623 41.2576 77.1895 41.3519 77.357 41.5194C77.5245 41.6869 77.6187 41.914 77.619 42.1509V42.8478C77.6187 43.0847 77.5245 43.3118 77.357 43.4793C77.1895 43.6468 76.9623 43.7411 76.7254 43.7414Z" fill="#91B3FA"/>
<path d="M77.6434 49.3828H67.8446C67.6837 49.383 67.5258 49.3397 67.3875 49.2575C67.2492 49.1754 67.1356 49.0574 67.0587 48.9161C66.9819 48.7748 66.9446 48.6153 66.9509 48.4546C66.9571 48.2938 67.0066 48.1377 67.0942 48.0028C67.1307 47.9473 67.1876 47.9084 67.2526 47.8947C67.3176 47.881 67.3854 47.8935 67.4412 47.9295C67.497 47.9656 67.5364 48.0222 67.5506 48.087C67.5649 48.1519 67.553 48.2198 67.5174 48.2759C67.4794 48.3348 67.458 48.4029 67.4554 48.4729C67.4528 48.5429 67.469 48.6124 67.5025 48.674C67.536 48.7355 67.5854 48.787 67.6456 48.8229C67.7058 48.8588 67.7745 48.8778 67.8446 48.878H77.6434C77.7467 48.8778 77.8457 48.8367 77.9187 48.7636C77.9916 48.6905 78.0326 48.5914 78.0326 48.4881V47.7918C78.0325 47.6886 77.9914 47.5896 77.9185 47.5167C77.8455 47.4437 77.7466 47.4026 77.6434 47.4025H67.7716C67.7068 47.3994 67.6457 47.3715 67.6009 47.3245C67.5562 47.2776 67.5312 47.2152 67.5312 47.1503C67.5312 47.0855 67.5562 47.0231 67.6009 46.9761C67.6457 46.9292 67.7068 46.9013 67.7716 46.8982H77.6434C77.8803 46.8985 78.1074 46.9927 78.2749 47.1602C78.4424 47.3278 78.5366 47.5549 78.5369 47.7918V48.4893C78.5366 48.7261 78.4424 48.9532 78.2749 49.1208C78.1074 49.2883 77.8803 49.3825 77.6434 49.3828Z" fill="#91B3FA"/>
<path d="M146.957 36.6786C146.894 36.6784 146.832 36.6543 146.786 36.6109C146.739 36.5675 146.711 36.508 146.706 36.4445C146.534 33.9904 145.681 32.1607 144.176 31.0061C141.576 29.0102 137.867 29.6962 137.829 29.7037C137.763 29.7163 137.695 29.7024 137.64 29.6649C137.585 29.6275 137.547 29.5695 137.534 29.5039C137.521 29.4382 137.535 29.3702 137.573 29.3149C137.61 29.2595 137.668 29.2213 137.734 29.2086C137.895 29.1776 141.705 28.4743 144.483 30.6065C146.106 31.8525 147.022 33.8047 147.207 36.4089C147.209 36.4419 147.205 36.475 147.195 36.5064C147.184 36.5378 147.168 36.5668 147.146 36.5918C147.124 36.6168 147.098 36.6373 147.068 36.6521C147.039 36.6668 147.007 36.6757 146.974 36.678L146.957 36.6786Z" fill="#91B3FA"/>
<defs>
<linearGradient id="paint0_linear_7_13281" x1="139.465" y1="28.2023" x2="36.501" y2="83.4039" gradientUnits="userSpaceOnUse">
<stop stop-color="#4F52FF"/>
<stop offset="1" stop-color="#4042E2"/>
</linearGradient>
<linearGradient id="paint1_linear_7_13281" x1="37.5425" y1="109.378" x2="182.788" y2="49.0873" gradientUnits="userSpaceOnUse">
<stop stop-color="#4F52FF"/>
<stop offset="1" stop-color="#4042E2"/>
</linearGradient>
<linearGradient id="paint2_linear_7_13281" x1="130.945" y1="43.3287" x2="138.781" y2="58.4928" gradientUnits="userSpaceOnUse">
<stop stop-color="#4F52FF"/>
<stop offset="1" stop-color="#4042E2"/>
</linearGradient>
<linearGradient id="paint3_linear_7_13281" x1="104.589" y1="43.6594" x2="112.467" y2="58.9411" gradientUnits="userSpaceOnUse">
<stop stop-color="#4F52FF"/>
<stop offset="1" stop-color="#4042E2"/>
</linearGradient>
<linearGradient id="paint4_linear_7_13281" x1="77.4098" y1="42.2935" x2="85.2146" y2="57.4737" gradientUnits="userSpaceOnUse">
<stop stop-color="#4F52FF"/>
<stop offset="1" stop-color="#4042E2"/>
</linearGradient>
<linearGradient id="paint5_linear_7_13281" x1="50.9352" y1="41.2704" x2="58.799" y2="56.4839" gradientUnits="userSpaceOnUse">
<stop stop-color="#4F52FF"/>
<stop offset="1" stop-color="#4042E2"/>
</linearGradient>
<linearGradient id="paint6_linear_7_13281" x1="36.9462" y1="8.09883" x2="65.4247" y2="63.3476" gradientUnits="userSpaceOnUse">
<stop stop-color="#FF928E"/>
<stop offset="1" stop-color="#FE7062"/>
</linearGradient>
<linearGradient id="paint7_linear_7_13281" x1="63.6042" y1="8.83141" x2="92.0914" y2="64.0968" gradientUnits="userSpaceOnUse">
<stop stop-color="#FF928E"/>
<stop offset="1" stop-color="#FE7062"/>
</linearGradient>
<linearGradient id="paint8_linear_7_13281" x1="90.2617" y1="9.57022" x2="118.755" y2="64.8466" gradientUnits="userSpaceOnUse">
<stop stop-color="#FF928E"/>
<stop offset="1" stop-color="#FE7062"/>
</linearGradient>
<linearGradient id="paint9_linear_7_13281" x1="116.919" y1="10.4189" x2="145.425" y2="65.7205" gradientUnits="userSpaceOnUse">
<stop stop-color="#FF928E"/>
<stop offset="1" stop-color="#FE7062"/>
</linearGradient>
<linearGradient id="paint10_linear_7_13281" x1="130.565" y1="62.7271" x2="117.038" y2="109.234" gradientUnits="userSpaceOnUse">
<stop stop-color="#FF928E"/>
<stop offset="1" stop-color="#FE7062"/>
</linearGradient>
<linearGradient id="paint11_linear_7_13281" x1="101.137" y1="54.1674" x2="87.6103" y2="100.675" gradientUnits="userSpaceOnUse">
<stop stop-color="#FF928E"/>
<stop offset="1" stop-color="#FE7062"/>
</linearGradient>
<linearGradient id="paint12_linear_7_13281" x1="115.85" y1="58.4467" x2="102.322" y2="104.954" gradientUnits="userSpaceOnUse">
<stop stop-color="#FF928E"/>
<stop offset="1" stop-color="#FE7062"/>
</linearGradient>
<linearGradient id="paint13_linear_7_13281" x1="48.0339" y1="111.656" x2="24.152" y2="156.288" gradientUnits="userSpaceOnUse">
<stop stop-color="#39477A"/>
<stop offset="1" stop-color="#39477A"/>
</linearGradient>
<linearGradient id="paint14_linear_7_13281" x1="68.8575" y1="131.501" x2="76.0429" y2="139.006" gradientUnits="userSpaceOnUse">
<stop stop-color="#09005D"/>
<stop offset="1" stop-color="#1A0F91"/>
</linearGradient>
<linearGradient id="paint15_linear_7_13281" x1="57.766" y1="124.056" x2="65.248" y2="95.8747" gradientUnits="userSpaceOnUse">
<stop stop-color="#4F52FF"/>
<stop offset="1" stop-color="#4042E2"/>
</linearGradient>
<linearGradient id="paint16_linear_7_13281" x1="78.3891" y1="150.339" x2="91.9812" y2="160.314" gradientUnits="userSpaceOnUse">
<stop stop-color="#09005D"/>
<stop offset="1" stop-color="#1A0F91"/>
</linearGradient>
<linearGradient id="paint17_linear_7_13281" x1="84.884" y1="145.033" x2="56.287" y2="121.673" gradientUnits="userSpaceOnUse">
<stop stop-color="#FEBBBA"/>
<stop offset="1" stop-color="#FF928E"/>
</linearGradient>
<linearGradient id="paint18_linear_7_13281" x1="92.6422" y1="161.782" x2="64.0452" y2="138.423" gradientUnits="userSpaceOnUse">
<stop stop-color="#FEBBBA"/>
<stop offset="1" stop-color="#FF928E"/>
</linearGradient>
<linearGradient id="paint19_linear_7_13281" x1="78.5846" y1="131.417" x2="50.1532" y2="142.141" gradientUnits="userSpaceOnUse">
<stop stop-color="#4F52FF"/>
<stop offset="1" stop-color="#4042E2"/>
</linearGradient>
<linearGradient id="paint20_linear_7_13281" x1="56.4298" y1="113.47" x2="47.2026" y2="124.444" gradientUnits="userSpaceOnUse">
<stop stop-color="#FEBBBA"/>
<stop offset="1" stop-color="#FF928E"/>
</linearGradient>
<linearGradient id="paint21_linear_7_13281" x1="54.5" y1="79.7435" x2="29.0523" y2="127.115" gradientUnits="userSpaceOnUse">
<stop stop-color="#FF928E"/>
<stop offset="1" stop-color="#FE7062"/>
</linearGradient>
<linearGradient id="paint22_linear_7_13281" x1="47.0471" y1="121.596" x2="64.4941" y2="82.416" gradientUnits="userSpaceOnUse">
<stop stop-color="#FEBBBA"/>
<stop offset="1" stop-color="#FF928E"/>
</linearGradient>
<linearGradient id="paint23_linear_7_13281" x1="30.5827" y1="114.117" x2="35.2805" y2="98.5548" gradientUnits="userSpaceOnUse">
<stop stop-color="#FEBBBA"/>
<stop offset="1" stop-color="#FF928E"/>
</linearGradient>
<linearGradient id="paint24_linear_7_13281" x1="38.9525" y1="100.278" x2="34.0591" y2="84.2263" gradientUnits="userSpaceOnUse">
<stop stop-color="#FEBBBA"/>
<stop offset="1" stop-color="#FF928E"/>
</linearGradient>
<linearGradient id="paint25_linear_7_13281" x1="35.3142" y1="79.1092" x2="38.0921" y2="94.9536" gradientUnits="userSpaceOnUse">
<stop stop-color="#09005D"/>
<stop offset="1" stop-color="#1A0F91"/>
</linearGradient>
<linearGradient id="paint26_linear_7_13281" x1="35.8547" y1="101.222" x2="30.9608" y2="85.1709" gradientUnits="userSpaceOnUse">
<stop stop-color="#FEBBBA"/>
<stop offset="1" stop-color="#FF928E"/>
</linearGradient>
<linearGradient id="paint27_linear_7_13281" x1="59.3857" y1="117.746" x2="73.4206" y2="117.746" gradientUnits="userSpaceOnUse">
<stop stop-color="#09005D"/>
<stop offset="1" stop-color="#1A0F91"/>
</linearGradient>
<linearGradient id="paint28_linear_7_13281" x1="61.0893" y1="123.881" x2="49.8668" y2="126.957" gradientUnits="userSpaceOnUse">
<stop stop-color="#09005D"/>
<stop offset="1" stop-color="#1A0F91"/>
</linearGradient>
<linearGradient id="paint29_linear_7_13281" x1="35.0591" y1="115.845" x2="0.50265" y2="144.551" gradientUnits="userSpaceOnUse">
<stop stop-color="#E1473D"/>
<stop offset="1" stop-color="#E9605A"/>
</linearGradient>
<linearGradient id="paint30_linear_7_13281" x1="32.6453" y1="112.939" x2="-1.91106" y2="141.646" gradientUnits="userSpaceOnUse">
<stop stop-color="#E1473D"/>
<stop offset="1" stop-color="#E9605A"/>
</linearGradient>
<linearGradient id="paint31_linear_7_13281" x1="33.02" y1="113.391" x2="-1.53642" y2="142.097" gradientUnits="userSpaceOnUse">
<stop stop-color="#E1473D"/>
<stop offset="1" stop-color="#E9605A"/>
</linearGradient>
<linearGradient id="paint32_linear_7_13281" x1="63.7171" y1="84.1755" x2="85.2104" y2="55.3433" gradientUnits="userSpaceOnUse">
<stop stop-color="#09005D"/>
<stop offset="1" stop-color="#1A0F91"/>
</linearGradient>
<linearGradient id="paint33_linear_7_13281" x1="156.119" y1="28.4587" x2="84.8663" y2="57.8211" gradientUnits="userSpaceOnUse">
<stop stop-color="#DE5064"/>
<stop offset="1" stop-color="#E01B36"/>
</linearGradient>
<linearGradient id="paint34_linear_7_13281" x1="162.356" y1="23.3659" x2="228.128" y2="-18.1326" gradientUnits="userSpaceOnUse">
<stop stop-color="#FEBBBA"/>
<stop offset="1" stop-color="#FF928E"/>
</linearGradient>
<linearGradient id="paint35_linear_7_13281" x1="185.584" y1="-0.882262" x2="134.297" y2="42.5742" gradientUnits="userSpaceOnUse">
<stop stop-color="#FF928E"/>
<stop offset="1" stop-color="#FE7062"/>
</linearGradient>
<linearGradient id="paint36_linear_7_13281" x1="153.538" y1="36.183" x2="110.899" y2="38.6291" gradientUnits="userSpaceOnUse">
<stop stop-color="#263238"/>
<stop offset="1" stop-color="#1A0F91"/>
<stop offset="1" stop-color="#39477A"/>
</linearGradient>
<linearGradient id="paint37_linear_7_13281" x1="72.7674" y1="51.3322" x2="71.1948" y2="11.753" gradientUnits="userSpaceOnUse">
<stop stop-color="#09005D"/>
<stop offset="1" stop-color="#1A0F91"/>
</linearGradient>
</defs>
</svg>
