<svg width="120" height="89" viewBox="0 0 120 89" fill="none" xmlns="http://www.w3.org/2000/svg">
<g clip-path="url(#clip0_7_13841)">
<path d="M107.976 82.1779H100.027V82.2377H107.976V82.1779Z" fill="#EBEBEB"/>
<path d="M79.4928 82.8285H77.4072V82.8883H79.4928V82.8285Z" fill="#EBEBEB"/>
<path d="M99.7872 79.958H95.1816V80.0178H99.7872V79.958Z" fill="#EBEBEB"/>
<path d="M22.9564 80.3599H12.5908V80.4197H22.9564V80.3599Z" fill="#EBEBEB"/>
<path d="M26.6139 80.3599H25.0947V80.4197H26.6139V80.3599Z" fill="#EBEBEB"/>
<path d="M54.0359 81.3693H31.5527V81.4291H54.0359V81.3693Z" fill="#EBEBEB"/>
<path d="M57.2164 67.6602H10.8724C10.5089 67.6602 10.1603 67.5163 9.90333 67.2601C9.64633 67.004 9.50195 66.6566 9.50195 66.2943V1.36588C9.50512 1.00571 9.65089 0.661354 9.90755 0.407783C10.1642 0.154211 10.511 0.0119491 10.8724 0.0119629H57.2164C57.3963 0.0119629 57.5745 0.0472922 57.7408 0.115934C57.907 0.184576 58.0581 0.285187 58.1854 0.41202C58.3126 0.538854 58.4136 0.689428 58.4824 0.855145C58.5513 1.02086 58.5868 1.19847 58.5868 1.37784V66.2943C58.5868 66.4737 58.5513 66.6513 58.4824 66.817C58.4136 66.9827 58.3126 67.1333 58.1854 67.2601C58.0581 67.387 57.907 67.4876 57.7408 67.5562C57.5745 67.6249 57.3963 67.6602 57.2164 67.6602ZM10.8724 0.0598048C10.525 0.0604371 10.1921 0.198244 9.94646 0.443045C9.70085 0.687845 9.56259 1.01968 9.56195 1.36588V66.2943C9.56259 66.6405 9.70085 66.9723 9.94646 67.2171C10.1921 67.4619 10.525 67.5998 10.8724 67.6004H57.2164C57.5637 67.5998 57.8966 67.4619 58.1422 67.2171C58.3879 66.9723 58.5261 66.6405 58.5268 66.2943V1.36588C58.5261 1.01968 58.3879 0.687845 58.1422 0.443045C57.8966 0.198244 57.5637 0.0604371 57.2164 0.0598048H10.8724Z" fill="#EBEBEB"/>
<path d="M109.128 67.6602H62.7845C62.421 67.6602 62.0724 67.5163 61.8154 67.2601C61.5584 67.004 61.4141 66.6566 61.4141 66.2943V1.36588C61.4172 1.00571 61.563 0.661354 61.8197 0.407783C62.0763 0.154211 62.4231 0.0119491 62.7845 0.0119629H109.128C109.492 0.0119629 109.84 0.155868 110.097 0.41202C110.354 0.668173 110.499 1.01559 110.499 1.37784V66.2943C110.499 66.6566 110.354 67.004 110.097 67.2601C109.84 67.5163 109.492 67.6602 109.128 67.6602ZM62.7845 0.0598048C62.4371 0.0604371 62.1042 0.198244 61.8586 0.443045C61.613 0.687845 61.4747 1.01968 61.4741 1.36588V66.2943C61.4747 66.6405 61.613 66.9723 61.8586 67.2171C62.1042 67.4619 62.4371 67.5998 62.7845 67.6004H109.128C109.476 67.5998 109.809 67.4619 110.054 67.2171C110.3 66.9723 110.438 66.6405 110.439 66.2943V1.36588C110.438 1.01968 110.3 0.687845 110.054 0.443045C109.809 0.198244 109.476 0.0604371 109.128 0.0598048H62.7845Z" fill="#EBEBEB"/>
<path d="M120 78.329H0V78.3888H120V78.329Z" fill="#EBEBEB"/>
<path d="M24.7994 50.7601L19.9346 49.2603L25.3682 49.5473C24.1682 47.4805 23.6426 46.4639 22.6994 44.4809C24.0578 46.0238 24.7682 46.8084 26.2514 48.3967C26.6391 46.1021 27.2056 43.8411 27.9458 41.6343C27.5857 43.5993 27.4297 45.5961 27.4802 47.593L27.581 47.6121C29.1933 45.7814 30.9432 44.0757 32.8154 42.5098C31.0319 44.4208 29.4441 46.5042 28.0754 48.7292C30.101 47.9685 32.141 47.2437 34.1954 46.5548C32.1362 47.6791 30.1154 48.8321 28.1186 50.0473L33.1586 51.6452L27.9554 51.3318C29.0522 52.6092 29.621 53.2455 30.8018 54.5515C29.3378 53.5947 28.6154 53.1163 27.1874 52.1595C27.3473 53.4931 27.5878 54.8159 27.9074 56.1208C27.1874 54.5037 26.8826 53.7 26.333 52.1116C25.313 56.9819 25.577 61.7039 26.573 66.5455L25.349 66.323C24.6286 61.5672 24.8233 56.7183 25.9226 52.0351C24.689 53.3029 24.113 53.9487 23.0426 55.2429C23.6601 54.049 24.3502 52.8939 25.109 51.7839C23.357 52.1666 22.4882 52.3604 20.7722 52.7407C22.3202 51.9394 23.1386 51.5423 24.7994 50.7601Z" fill="#91B3FA"/>
<path d="M23.0733 52.6045L27.5733 50.2267L22.2933 51.5185C23.0757 49.2675 23.4093 48.1695 23.9733 46.0454C22.9293 47.8155 22.3773 48.7173 21.2157 50.5545C20.4066 48.3699 19.4268 46.252 18.2853 44.2202C19.0059 46.084 19.5327 48.0165 19.8573 49.9875L19.7613 50.0234C17.8336 48.5271 15.7959 47.1774 13.6653 45.9856C15.7756 47.5305 17.7254 49.2823 19.4853 51.2147C17.3461 50.8367 15.2029 50.5042 13.0557 50.2172C15.2901 50.9348 17.4789 51.6979 19.6773 52.5184L15.0333 55.0229L20.0733 53.7479C19.2381 55.2071 18.7989 55.9462 17.8821 57.4413C19.1397 56.2237 19.7589 55.6185 20.9829 54.4129C21.0776 55.7528 21.0904 57.0973 21.0213 58.4388C21.4173 56.7165 21.5757 55.8673 21.8181 54.2072C23.7381 58.8024 24.3573 63.4885 24.2925 68.4281L25.4541 67.9856C25.2722 63.1787 24.1726 58.4505 22.2141 54.0541C23.6541 55.0707 24.3501 55.5946 25.6437 56.671C24.8134 55.6121 23.9181 54.6055 22.9629 53.657C24.7581 53.7072 25.6461 53.7359 27.4053 53.7981C25.7205 53.3054 24.8517 53.0662 23.0733 52.6045Z" fill="#4881F8"/>
<path d="M27.4751 55.274L24.1943 53.5397L28.0343 54.4822C27.4631 52.8413 27.2207 52.0399 26.8151 50.4922C27.5759 51.7816 27.9791 52.4394 28.8263 53.779C29.4154 52.1864 30.1296 50.6427 30.9623 49.1622C30.4357 50.5201 30.0513 51.9285 29.8151 53.3651L29.8847 53.3938C31.29 52.3023 32.7758 51.318 34.3295 50.4492C32.7913 51.5753 31.3698 52.8518 30.0863 54.2598C31.6415 53.9903 33.2015 53.7511 34.7663 53.5421C33.1367 54.066 31.5407 54.6186 29.9375 55.2166L33.3239 57.0418L29.6399 56.1112C30.2495 57.1757 30.5687 57.7163 31.2383 58.8047C30.3215 57.9173 29.8703 57.4747 28.9775 56.5968C28.9089 57.5737 28.8993 58.5539 28.9487 59.5319C28.6607 58.2761 28.5455 57.6589 28.3703 56.4461C26.9735 59.7951 26.5175 63.2133 26.5655 66.8134L25.7183 66.4905C25.8517 62.987 26.6532 59.5408 28.0799 56.3361C27.2152 56.9315 26.3813 57.5702 25.5815 58.2498C26.1863 57.478 26.838 56.7439 27.5327 56.0514C26.2271 56.0897 25.5791 56.1089 24.2951 56.1567C25.5455 55.7835 26.1791 55.6089 27.4751 55.274Z" fill="#4881F8"/>
<path d="M28.7477 78.3289H20.8397L20.0645 65.7728H29.5205L28.7477 78.3289Z" fill="#91B3FA"/>
<path d="M30.1319 66.4211H19.3727L19.1807 64.7515H30.3263L30.1319 66.4211Z" fill="#6673AD"/>
<path d="M26.0833 11.1089H17.1865V22.6268H26.0833V11.1089Z" fill="#F5F5F5"/>
<path d="M25.3965 11.994H17.8701V21.7418H25.3965V11.994Z" fill="#EBEBEB"/>
<path d="M24.9284 12.604H18.3428V21.1318H24.9284V12.604Z" fill="#D9E5FF"/>
<path d="M34.2933 24.1721H25.3965V31.7287H34.2933V24.1721Z" fill="#EBEBEB"/>
<path d="M33.6094 24.7534H26.083V31.1475H33.6094V24.7534Z" fill="#F5F5F5"/>
<path d="M33.1393 25.1553H26.5537V30.7504H33.1393V25.1553Z" fill="#D9E5FF"/>
<path d="M35.5635 21.9761V15.8787H27.6147V21.9761H35.5635Z" fill="#E6E6E6"/>
<path d="M34.9531 21.5073V16.3475H28.2283V21.5073H34.9531Z" fill="#F0F0F0"/>
<path d="M34.5312 21.1844V16.6705H28.6488V21.1844H34.5312Z" fill="#C4D3F2"/>
<path d="M98.2031 65.9929H104.263C104.786 65.9929 105.287 65.7861 105.657 65.4179C106.027 65.0496 106.235 64.5501 106.236 64.029V55.1974C106.236 55.1023 106.198 55.011 106.13 54.9437C106.063 54.8764 105.971 54.8386 105.876 54.8386C105.78 54.8386 105.689 54.8764 105.621 54.9437C105.554 55.011 105.516 55.1023 105.516 55.1974V64.029C105.515 64.3598 105.383 64.6768 105.148 64.9104C104.913 65.1441 104.595 65.2753 104.263 65.2753H98.2031V65.9929Z" fill="#9BC1F9"/>
<path d="M96.4805 74.4561V66.2321L96.0005 66.0814C95.7351 65.998 95.5034 65.8324 95.339 65.6087C95.1745 65.385 95.0859 65.1148 95.0861 64.8375H99.6581C99.6577 65.115 99.5686 65.3852 99.4037 65.6089C99.2389 65.8325 99.0069 65.9981 98.7413 66.0814L98.2613 66.2321V74.4561L102.063 76.1593V76.8769L97.3757 75.2431L92.6885 76.8769V76.1593L96.4805 74.4561Z" fill="#9BC1F9"/>
<path d="M91.3804 65.2753H103.335C103.505 65.2753 103.674 65.2418 103.831 65.1767C103.989 65.1117 104.132 65.0163 104.252 64.8961C104.372 64.7759 104.468 64.6332 104.533 64.4762C104.598 64.3192 104.631 64.151 104.631 63.9812C104.631 63.6386 104.494 63.31 104.251 63.0678C104.008 62.8255 103.679 62.6895 103.335 62.6895H91.3804C91.0365 62.6895 90.7066 62.8255 90.4632 63.0676C90.2197 63.3098 90.0827 63.6384 90.082 63.9812C90.082 64.1511 90.1156 64.3194 90.1809 64.4764C90.2461 64.6334 90.3418 64.7761 90.4623 64.8963C90.5829 65.0164 90.726 65.1118 90.8836 65.1768C91.0411 65.2418 91.2099 65.2753 91.3804 65.2753Z" fill="#B4E9EB" fill-opacity="0.8"/>
<path d="M105.444 58.3048L106.08 49.1096C106.103 48.7686 105.99 48.4322 105.765 48.1741C105.54 47.9159 105.222 47.7569 104.88 47.7318C104.537 47.7074 104.199 47.8198 103.939 48.044C103.679 48.2683 103.52 48.5862 103.495 48.9278L102.852 58.123C102.827 58.4646 102.94 58.8019 103.165 59.0608C103.39 59.3196 103.709 59.4787 104.052 59.5033C104.222 59.516 104.394 59.495 104.556 59.4416C104.718 59.3882 104.868 59.3034 104.998 59.1921C105.127 59.0807 105.233 58.9451 105.309 58.7928C105.386 58.6405 105.432 58.4747 105.444 58.3048Z" fill="#EBEBEB"/>
<path d="M101.225 77.3817C101.225 77.5436 101.273 77.7019 101.363 77.8365C101.453 77.971 101.582 78.0759 101.732 78.1377C101.882 78.1996 102.047 78.2157 102.206 78.1839C102.366 78.1521 102.512 78.074 102.627 77.9593C102.741 77.8447 102.819 77.6987 102.851 77.5398C102.882 77.381 102.866 77.2164 102.803 77.067C102.741 76.9175 102.635 76.7899 102.5 76.7003C102.364 76.6107 102.205 76.5631 102.043 76.5636C101.935 76.5636 101.829 76.5848 101.729 76.6259C101.63 76.6671 101.539 76.7274 101.463 76.8034C101.387 76.8794 101.327 76.9696 101.286 77.0688C101.245 77.1681 101.224 77.2744 101.225 77.3817Z" fill="#9BC1F9"/>
<path d="M91.8506 77.3817C91.8506 77.5436 91.8988 77.7019 91.9891 77.8365C92.0794 77.971 92.2077 78.0759 92.3578 78.1377C92.508 78.1996 92.6731 78.2157 92.8324 78.1839C92.9917 78.1521 93.1379 78.074 93.2526 77.9593C93.3673 77.8447 93.4453 77.6987 93.4767 77.5398C93.5081 77.381 93.4915 77.2164 93.429 77.067C93.3665 76.9175 93.261 76.7899 93.1257 76.7003C92.9904 76.6107 92.8314 76.5631 92.669 76.5636C92.5613 76.5636 92.4547 76.5848 92.3553 76.6259C92.2558 76.6671 92.1655 76.7274 92.0894 76.8034C92.0134 76.8794 91.9532 76.9696 91.9122 77.0688C91.8712 77.1681 91.8503 77.2744 91.8506 77.3817Z" fill="#9BC1F9"/>
<path d="M72.4487 78.4676H77.1312L77.6112 69.6217H71.9688L72.4487 78.4676Z" fill="#91B3FA"/>
<path d="M76.0508 78.4676H77.9708V78.0729L76.0508 77.8337V78.4676Z" fill="#E0E0E0"/>
<path d="M77.611 69.6194H71.9686C71.9686 69.4291 72.0444 69.2465 72.1794 69.1119C72.3145 68.9774 72.4976 68.9018 72.6886 68.9018H76.8982C77.0891 68.9018 77.2723 68.9774 77.4073 69.1119C77.5423 69.2465 77.6182 69.4291 77.6182 69.6194H77.611Z" fill="#E0E0E0"/>
<path d="M82.0508 55.5252H89.5412V54.6305L82.0508 54.1521V55.5252Z" fill="#E0E0E0"/>
<path d="M70.9707 59.496H93.1299V56.4389H70.9707V59.496Z" fill="#F0F0F0"/>
<path d="M66.3764 57.3479L97.6436 57.3479V55.5251L66.3764 55.5251V57.3479Z" fill="#FAFAFA"/>
<path d="M69.2803 78.4676H67.8691L70.3123 57.3479H71.9683L69.2803 78.4676Z" fill="#39477A"/>
<path d="M92.0518 57.3479H93.7078L96.1534 78.4676H94.7398L92.0518 57.3479Z" fill="#39477A"/>
<path d="M74.4628 55.0707C75.1028 51.9036 75.7428 48.7349 76.3828 45.5646C76.474 45.1124 77.17 45.3038 77.0788 45.7559L75.25 54.8076H79.2004C79.2958 54.8076 79.3874 54.8454 79.4549 54.9127C79.5224 54.98 79.5604 55.0712 79.5604 55.1664C79.5604 55.2616 79.5224 55.3528 79.4549 55.4201C79.3874 55.4874 79.2958 55.5252 79.2004 55.5252H74.8108C74.7555 55.5244 74.7012 55.5111 74.6519 55.4864C74.6025 55.4616 74.5595 55.426 74.526 55.3822C74.4925 55.3385 74.4694 55.2877 74.4584 55.2337C74.4475 55.1798 74.449 55.124 74.4628 55.0707Z" fill="#E0E0E0"/>
<path d="M78.9455 52.5208L77.7119 34.9365C77.2563 35.2605 76.8919 35.6958 76.6536 36.2005C76.4153 36.7053 76.3112 37.2626 76.3511 37.819L77.1935 49.8464C77.2306 50.4046 77.4113 50.9438 77.7181 51.4122C78.025 51.8806 78.4477 52.2624 78.9455 52.5208Z" fill="#FAFAFA"/>
<path d="M103.469 7.75037H54.6934V60.4672H103.469V7.75037Z" fill="#CB0924" fill-opacity="0.81"/>
<path d="M102.96 8.65933V60.4193H55.147V8.65933H102.96ZM103.44 8.18091H54.667V60.8977H103.44V8.18091Z" fill="#407BFF"/>
<path d="M65.1934 62.333H67.5094" stroke="#407BFF" stroke-linecap="round" stroke-linejoin="round"/>
<path d="M63.3066 62.333H64.4106" stroke="#407BFF" stroke-linecap="round" stroke-linejoin="round"/>
<path d="M54.667 62.333H62.2702" stroke="#407BFF" stroke-linecap="round" stroke-linejoin="round"/>
<path d="M93.6699 4.82959H92.5635" stroke="#407BFF" stroke-linecap="round" stroke-linejoin="round"/>
<path d="M102.309 4.82959H94.7061" stroke="#407BFF" stroke-linecap="round" stroke-linejoin="round"/>
<path d="M55.867 6.21936H102.24C102.558 6.21936 102.863 6.34537 103.088 6.56967C103.313 6.79398 103.44 7.09819 103.44 7.4154V10.7117H54.667V7.4154C54.667 7.09819 54.7934 6.79398 55.0185 6.56967C55.2435 6.34537 55.5487 6.21936 55.867 6.21936Z" fill="#6673AD"/>
<path d="M63.5973 7.60925H56.5293V9.08996H63.5973V7.60925Z" fill="#B4E9EB"/>
<path d="M92.8194 8.97986H91.2402V9.21907H92.8194V8.97986Z" fill="white"/>
<path d="M100.329 7.8322L100.159 8.00134L101.276 9.11432L101.446 8.94518L100.329 7.8322Z" fill="white"/>
<path d="M101.274 7.82745L100.157 8.94043L100.327 9.10958L101.444 7.99659L101.274 7.82745Z" fill="white"/>
<path d="M97.165 7.82651L95.9736 9.01392L96.1433 9.18306L97.3347 7.99565L97.165 7.82651Z" fill="white"/>
<path d="M96.3962 9.28602H95.8682V8.75977L96.3962 9.28602Z" fill="white"/>
<path d="M96.8682 7.76233H97.3962V8.29098L96.8682 7.76233Z" fill="white"/>
<path d="M101.405 13.6899H56.7598V13.9292H101.405V13.6899Z" fill="#E0E0E0"/>
<path d="M101.405 16.8474H56.7598V17.0866H101.405V16.8474Z" fill="#E0E0E0"/>
<path d="M66.168 55.5634H56.6208C56.4565 55.5634 56.3232 55.6962 56.3232 55.86V58.8692C56.3232 59.033 56.4565 59.1658 56.6208 59.1658H66.168C66.3324 59.1658 66.4656 59.033 66.4656 58.8692V55.86C66.4656 55.6962 66.3324 55.5634 66.168 55.5634Z" fill="#407BFF"/>
<path d="M74.575 14.9122H56.707V15.8667H74.575V14.9122Z" fill="#263238"/>
<path d="M74.575 14.9122H56.707V15.8667H74.575V14.9122Z" fill="#E0E0E0"/>
<path d="M63.811 18.2085H56.707V19.1629H63.811V18.2085Z" fill="#E0E0E0"/>
<path d="M98.1454 21.9449H66.7822V22.8994H98.1454V21.9449Z" fill="#D3E1FF"/>
<path d="M98.1457 23.5477H59.6113V24.5022H98.1457V23.5477Z" fill="#D3E1FF"/>
<path d="M71.0425 25.1504H59.6113V26.1048H71.0425V25.1504Z" fill="#D3E1FF"/>
<path d="M61.5478 11.7834H56.707V12.7379H61.5478V11.7834Z" fill="#263238"/>
<path d="M61.5478 11.7834H56.707V12.7379H61.5478V11.7834Z" fill="#E0E0E0"/>
<path d="M65.8485 57.0393L65.1933 57.6923L64.5381 57.0393H65.8485Z" fill="white"/>
<path d="M63.9314 56.0992H63.6914V58.6301H63.9314V56.0992Z" fill="white"/>
<path d="M69.6211 57.1924H68.0107V58.7975H69.6211V57.1924Z" fill="#263238"/>
<path d="M71.8799 57.1924H70.2695V58.7975H71.8799V57.1924Z" fill="#263238"/>
<path d="M74.1358 57.1924H72.5254V58.7975H74.1358V57.1924Z" fill="#263238"/>
<path d="M76.3916 57.1924H74.7812V58.7975H76.3916V57.1924Z" fill="#263238"/>
<path d="M78.6475 57.1924H77.0371V58.7975H78.6475V57.1924Z" fill="#263238"/>
<path d="M80.9034 57.1924H79.293V58.7975H80.9034V57.1924Z" fill="#263238"/>
<path d="M83.1622 57.1924H81.5518V58.7975H83.1622V57.1924Z" fill="#263238"/>
<path d="M85.418 57.1924H83.8076V58.7975H85.418V57.1924Z" fill="#263238"/>
<path opacity="0.5" d="M69.6211 57.1924H68.0107V58.7975H69.6211V57.1924Z" fill="white"/>
<path opacity="0.5" d="M71.8799 57.1924H70.2695V58.7975H71.8799V57.1924Z" fill="white"/>
<path opacity="0.5" d="M74.1358 57.1924H72.5254V58.7975H74.1358V57.1924Z" fill="white"/>
<path opacity="0.5" d="M76.3916 57.1924H74.7812V58.7975H76.3916V57.1924Z" fill="white"/>
<path opacity="0.5" d="M78.6475 57.1924H77.0371V58.7975H78.6475V57.1924Z" fill="white"/>
<path opacity="0.5" d="M80.9034 57.1924H79.293V58.7975H80.9034V57.1924Z" fill="white"/>
<path opacity="0.5" d="M83.1622 57.1924H81.5518V58.7975H83.1622V57.1924Z" fill="white"/>
<path opacity="0.5" d="M85.418 57.1924H83.8076V58.7975H85.418V57.1924Z" fill="white"/>
<path d="M101.483 57.1924H99.873V58.7975H101.483V57.1924Z" fill="#263238"/>
<path opacity="0.5" d="M101.483 57.1924H99.873V58.7975H101.483V57.1924Z" fill="white"/>
<path d="M98.1449 57.2522C98.1454 57.3058 98.1298 57.3584 98.1002 57.4032C98.0706 57.4481 98.0283 57.4831 97.9786 57.5038C97.929 57.5246 97.8743 57.5301 97.8214 57.5198C97.7686 57.5094 97.72 57.4836 97.682 57.4457C97.6439 57.4077 97.618 57.3594 97.6076 57.3067C97.5972 57.2541 97.6028 57.1995 97.6236 57.15C97.6445 57.1005 97.6796 57.0583 97.7246 57.0288C97.7695 56.9993 97.8223 56.9838 97.8761 56.9843C97.9114 56.9843 97.9464 56.9912 97.979 57.0047C98.0116 57.0181 98.0412 57.0379 98.0662 57.0627C98.0912 57.0876 98.111 57.1171 98.1245 57.1496C98.138 57.1822 98.1449 57.217 98.1449 57.2522Z" fill="#263238"/>
<path d="M98.1457 58.0655C98.1393 58.1325 98.1082 58.1947 98.0582 58.24C98.0083 58.2853 97.9432 58.3104 97.8757 58.3104C97.8082 58.3104 97.7431 58.2853 97.6932 58.24C97.6432 58.1947 97.612 58.1325 97.6057 58.0655C97.6021 58.028 97.6065 57.9902 97.6184 57.9545C97.6304 57.9188 97.6497 57.886 97.6751 57.8581C97.7005 57.8303 97.7315 57.8081 97.766 57.7929C97.8006 57.7776 97.8379 57.7698 97.8757 57.7698C97.9135 57.7698 97.9508 57.7776 97.9853 57.7929C98.0199 57.8081 98.0508 57.8303 98.0763 57.8581C98.1017 57.886 98.121 57.9188 98.1329 57.9545C98.1449 57.9902 98.1492 58.028 98.1457 58.0655Z" fill="#263238"/>
<path d="M98.1449 58.8764C98.1449 58.93 98.129 58.9823 98.0991 59.0268C98.0692 59.0713 98.0267 59.106 97.977 59.1263C97.9273 59.1467 97.8726 59.1519 97.8199 59.1413C97.7673 59.1307 97.719 59.1047 97.6811 59.0667C97.6433 59.0286 97.6177 58.9802 97.6075 58.9276C97.5973 58.8751 97.603 58.8206 97.6239 58.7713C97.6448 58.7219 97.6799 58.6799 97.7248 58.6505C97.7697 58.6211 97.8224 58.6056 97.8761 58.6061C97.9477 58.6067 98.016 58.6355 98.0664 58.6861C98.1167 58.7367 98.1449 58.8051 98.1449 58.8764Z" fill="#263238"/>
<g opacity="0.5">
<path d="M98.1449 57.2522C98.1454 57.3058 98.1298 57.3584 98.1002 57.4032C98.0706 57.4481 98.0283 57.4831 97.9786 57.5038C97.929 57.5246 97.8743 57.5301 97.8214 57.5198C97.7686 57.5094 97.72 57.4836 97.682 57.4457C97.6439 57.4077 97.618 57.3594 97.6076 57.3067C97.5972 57.2541 97.6028 57.1995 97.6236 57.15C97.6445 57.1005 97.6796 57.0583 97.7246 57.0288C97.7695 56.9993 97.8223 56.9838 97.8761 56.9843C97.9114 56.9843 97.9464 56.9912 97.979 57.0047C98.0116 57.0181 98.0412 57.0379 98.0662 57.0627C98.0912 57.0876 98.111 57.1171 98.1245 57.1496C98.138 57.1822 98.1449 57.217 98.1449 57.2522Z" fill="white"/>
<path d="M98.1447 58.0655C98.1384 58.1325 98.1072 58.1947 98.0572 58.24C98.0073 58.2853 97.9422 58.3104 97.8747 58.3104C97.8072 58.3104 97.7421 58.2853 97.6922 58.24C97.6422 58.1947 97.6111 58.1325 97.6047 58.0655C97.6012 58.028 97.6055 57.9902 97.6175 57.9545C97.6294 57.9188 97.6487 57.886 97.6741 57.8581C97.6996 57.8303 97.7305 57.8081 97.7651 57.7929C97.7996 57.7776 97.837 57.7698 97.8747 57.7698C97.9125 57.7698 97.9498 57.7776 97.9844 57.7929C98.0189 57.8081 98.0499 57.8303 98.0753 57.8581C98.1007 57.886 98.12 57.9188 98.132 57.9545C98.1439 57.9902 98.1483 58.028 98.1447 58.0655Z" fill="white"/>
<path d="M98.1449 58.8764C98.1449 58.93 98.129 58.9823 98.0991 59.0268C98.0692 59.0713 98.0267 59.106 97.977 59.1263C97.9273 59.1467 97.8726 59.1519 97.8199 59.1413C97.7673 59.1307 97.719 59.1047 97.6811 59.0667C97.6433 59.0286 97.6177 58.9802 97.6075 58.9276C97.5973 58.8751 97.603 58.8206 97.6239 58.7713C97.6448 58.7219 97.6799 58.6799 97.7248 58.6505C97.7697 58.6211 97.8224 58.6056 97.8761 58.6061C97.9477 58.6067 98.016 58.6355 98.0664 58.6861C98.1167 58.7367 98.1449 58.8051 98.1449 58.8764Z" fill="white"/>
</g>
<path d="M57.5371 57.9196L57.6451 57.6804C57.779 57.7732 57.938 57.8233 58.1011 57.8239C58.2907 57.8239 58.3675 57.7617 58.3675 57.678C58.3675 57.4197 57.5635 57.5967 57.5635 57.0848C57.5635 56.8456 57.7531 56.6566 58.1467 56.6566C58.3149 56.6531 58.4808 56.6952 58.6267 56.7786L58.5283 57.0178C58.412 56.949 58.2796 56.9119 58.1443 56.9101C57.9547 56.9101 57.8827 56.9795 57.8827 57.0656C57.8827 57.3216 58.6843 57.1446 58.6843 57.6517C58.6843 57.8909 58.4947 58.0775 58.0987 58.0775C57.8999 58.0822 57.7042 58.0272 57.5371 57.9196Z" fill="white"/>
<path d="M59.9183 57.611H59.1143C59.1312 57.6769 59.1712 57.7346 59.2271 57.7737C59.2831 57.8127 59.3512 57.8305 59.4191 57.8239C59.4682 57.826 59.5173 57.818 59.5631 57.8003C59.609 57.7826 59.6507 57.7556 59.6855 57.721L59.8487 57.898C59.7656 57.9776 59.6618 58.0325 59.5491 58.0565C59.4364 58.0805 59.3192 58.0727 59.2107 58.0339C59.1022 57.9951 59.0067 57.9269 58.935 57.837C58.8632 57.7471 58.8181 57.6389 58.8047 57.5248C58.804 57.4514 58.8183 57.3786 58.8467 57.3108C58.8752 57.243 58.9172 57.1818 58.9702 57.1307C59.0232 57.0797 59.0861 57.0399 59.155 57.0139C59.224 56.9879 59.2975 56.9762 59.3711 56.9794C59.4447 56.9757 59.5183 56.9873 59.5871 57.0136C59.6559 57.0399 59.7184 57.0803 59.7706 57.1321C59.8229 57.1839 59.8636 57.2461 59.8903 57.3145C59.917 57.383 59.929 57.4563 59.9255 57.5296C59.9255 57.5536 59.9207 57.587 59.9183 57.611ZM59.1119 57.422H59.6351C59.6234 57.3614 59.5909 57.3067 59.5432 57.2674C59.4954 57.2281 59.4354 57.2066 59.3735 57.2066C59.3116 57.2066 59.2516 57.2281 59.2039 57.2674C59.1561 57.3067 59.1236 57.3614 59.1119 57.422Z" fill="white"/>
<path d="M61.2161 57.4484V58.0536H60.9065V57.4962C60.9065 57.324 60.8297 57.2451 60.6929 57.2451C60.5561 57.2451 60.4385 57.336 60.4385 57.5321V58.0536H60.1289V56.9963H60.4241V57.1207C60.4693 57.0739 60.5238 57.0372 60.5842 57.0129C60.6446 56.9886 60.7094 56.9772 60.7745 56.9795C60.8361 56.9755 60.8978 56.9851 60.9552 57.0077C61.0125 57.0302 61.0642 57.0652 61.1064 57.11C61.1487 57.1548 61.1804 57.2084 61.1994 57.2669C61.2183 57.3254 61.224 57.3874 61.2161 57.4484Z" fill="white"/>
<path d="M62.5896 56.5944V58.0535H62.2944V57.9315C62.2536 57.9785 62.2025 58.0154 62.1451 58.0394C62.0876 58.0635 62.0254 58.0741 61.9632 58.0703C61.8181 58.0703 61.6789 58.0128 61.5763 57.9105C61.4737 57.8083 61.416 57.6695 61.416 57.5249C61.416 57.3802 61.4737 57.2415 61.5763 57.1392C61.6789 57.0369 61.8181 56.9795 61.9632 56.9795C62.0223 56.9769 62.0812 56.9871 62.1359 57.0094C62.1906 57.0317 62.2397 57.0655 62.28 57.1087V56.5944H62.5896ZM62.2872 57.5249C62.2826 57.4727 62.2628 57.423 62.2303 57.3818C62.1978 57.3406 62.154 57.3097 62.1043 57.2928C62.0545 57.276 62.0008 57.2739 61.9499 57.2869C61.899 57.2999 61.8529 57.3273 61.8174 57.3659C61.7818 57.4045 61.7583 57.4526 61.7496 57.5043C61.7409 57.5559 61.7475 57.609 61.7686 57.657C61.7896 57.705 61.8242 57.7459 61.8681 57.7747C61.9121 57.8035 61.9634 57.8189 62.016 57.8191C62.0539 57.8196 62.0914 57.8122 62.1261 57.7973C62.1609 57.7823 62.1921 57.7602 62.2177 57.7325C62.2433 57.7047 62.2627 57.6719 62.2747 57.6361C62.2867 57.6003 62.2909 57.5624 62.2872 57.5249Z" fill="white"/>
<path d="M95.6279 12.2259C95.6356 12.1039 95.679 11.9869 95.7528 11.8893C95.8265 11.7917 95.9274 11.7178 96.0429 11.6768C96.1584 11.6358 96.2834 11.6295 96.4025 11.6586C96.5216 11.6878 96.6294 11.7511 96.7127 11.8408L96.5447 11.9963C96.5101 11.9544 96.4664 11.9208 96.417 11.898C96.3676 11.8752 96.3136 11.8638 96.2591 11.8647C96.2069 11.8562 96.1535 11.8591 96.1025 11.8732C96.0516 11.8873 96.0043 11.9123 95.964 11.9464C95.9237 11.9805 95.8913 12.023 95.8691 12.0709C95.8468 12.1187 95.8353 12.1708 95.8353 12.2235C95.8353 12.2762 95.8468 12.3283 95.8691 12.3762C95.8913 12.424 95.9237 12.4665 95.964 12.5006C96.0043 12.5348 96.0516 12.5597 96.1025 12.5739C96.1535 12.588 96.2069 12.5909 96.2591 12.5823C96.3138 12.5827 96.3678 12.5709 96.4172 12.5477C96.4666 12.5245 96.5102 12.4906 96.5447 12.4484L96.7127 12.6039C96.6542 12.6727 96.5803 12.7269 96.4969 12.7622C96.4136 12.7975 96.3231 12.8129 96.2327 12.8072C96.1544 12.8097 96.0764 12.7966 96.0033 12.7686C95.9302 12.7406 95.8634 12.6982 95.807 12.644C95.7506 12.5898 95.7057 12.5248 95.675 12.453C95.6442 12.3812 95.6282 12.304 95.6279 12.2259Z" fill="#263238"/>
<path d="M96.7773 12.3575C96.7776 12.2961 96.7904 12.2353 96.8149 12.179C96.8395 12.1226 96.8753 12.0718 96.9203 12.0298C96.9652 11.9877 97.0183 11.9552 97.0762 11.9342C97.1342 11.9132 97.1958 11.9043 97.2573 11.9078C97.3374 11.9016 97.4175 11.9195 97.4873 11.9591C97.557 11.9988 97.6132 12.0584 97.6485 12.1303L97.4517 12.2356C97.4338 12.1995 97.4061 12.1692 97.3717 12.148C97.3373 12.1269 97.2977 12.1158 97.2573 12.1159C97.1937 12.1159 97.1327 12.1411 97.0876 12.186C97.0426 12.2309 97.0173 12.2917 97.0173 12.3552C97.0173 12.4186 97.0426 12.4794 97.0876 12.5243C97.1327 12.5692 97.1937 12.5944 97.2573 12.5944C97.2978 12.5951 97.3377 12.5842 97.3722 12.563C97.4066 12.5418 97.4343 12.5112 97.4517 12.4748L97.6485 12.5824C97.6126 12.6536 97.5562 12.7126 97.4865 12.7518C97.4169 12.791 97.3371 12.8086 97.2573 12.8025C97.1962 12.806 97.135 12.7972 97.0773 12.7765C97.0197 12.7559 96.9668 12.7238 96.922 12.6822C96.8771 12.6406 96.8412 12.5904 96.8163 12.5346C96.7915 12.4788 96.7782 12.4186 96.7773 12.3575Z" fill="#263238"/>
<path d="M99.5274 12.4843C99.5274 12.6805 99.3714 12.7929 99.0714 12.7929H98.4834V11.6591H99.0402C99.3234 11.6591 99.4698 11.7787 99.4698 11.9533C99.4689 12.0031 99.4544 12.0518 99.4277 12.0939C99.4011 12.1361 99.3633 12.1702 99.3186 12.1925C99.3822 12.2091 99.4379 12.2474 99.476 12.3007C99.5142 12.354 99.5324 12.419 99.5274 12.4843ZM98.745 11.8576V12.1255H99.0066C99.1362 12.1255 99.2058 12.0801 99.2058 11.9892C99.2058 11.8983 99.1362 11.8576 99.0066 11.8576H98.745ZM99.2634 12.4508C99.2634 12.3552 99.189 12.3097 99.0522 12.3097H98.745V12.5896H99.0522C99.189 12.5968 99.2634 12.5537 99.2634 12.4508Z" fill="#263238"/>
<path d="M99.6455 12.3575C99.6457 12.2961 99.6585 12.2353 99.6831 12.1789C99.7077 12.1226 99.7435 12.0718 99.7884 12.0297C99.8334 11.9876 99.8864 11.9551 99.9444 11.9341C100.002 11.9132 100.064 11.9042 100.126 11.9078C100.206 11.902 100.286 11.9201 100.356 11.9597C100.426 11.9992 100.483 12.0586 100.519 12.1303L100.322 12.2355C100.3 12.1996 100.269 12.17 100.232 12.1499C100.195 12.1298 100.153 12.1198 100.111 12.1209C100.069 12.122 100.028 12.1342 99.9917 12.1563C99.9557 12.1783 99.9262 12.2094 99.9062 12.2465C99.8861 12.2835 99.8762 12.3252 99.8775 12.3672C99.8788 12.4093 99.8912 12.4503 99.9134 12.4861C99.9357 12.5218 99.967 12.5511 100.004 12.571C100.041 12.5908 100.083 12.6005 100.126 12.5991C100.166 12.5994 100.206 12.5884 100.241 12.5673C100.276 12.5461 100.304 12.5157 100.322 12.4795L100.519 12.5871C100.482 12.6581 100.425 12.7168 100.355 12.7559C100.285 12.7951 100.206 12.8129 100.126 12.8072C100.064 12.8108 100.002 12.8018 99.9444 12.7809C99.8864 12.7599 99.8334 12.7274 99.7884 12.6853C99.7435 12.6432 99.7077 12.5924 99.6831 12.5361C99.6585 12.4797 99.6457 12.419 99.6455 12.3575Z" fill="#263238"/>
<path d="M100.596 12.3575C100.596 12.2961 100.609 12.2353 100.633 12.179C100.658 12.1226 100.694 12.0718 100.739 12.0298C100.784 11.9877 100.837 11.9552 100.895 11.9342C100.953 11.9132 101.014 11.9043 101.076 11.9078C101.156 11.9016 101.236 11.9195 101.306 11.9591C101.375 11.9988 101.432 12.0584 101.467 12.1303L101.27 12.2356C101.252 12.1991 101.224 12.1686 101.189 12.1474C101.154 12.1262 101.114 12.1153 101.073 12.1159C101.01 12.1159 100.949 12.1411 100.904 12.186C100.859 12.2309 100.833 12.2917 100.833 12.3552C100.833 12.4186 100.859 12.4794 100.904 12.5243C100.949 12.5692 101.01 12.5944 101.073 12.5944C101.114 12.5953 101.154 12.5845 101.189 12.5633C101.224 12.5421 101.252 12.5114 101.27 12.4748L101.467 12.5824C101.431 12.6536 101.375 12.7126 101.305 12.7518C101.235 12.791 101.155 12.8086 101.076 12.8025C101.015 12.806 100.953 12.7972 100.896 12.7765C100.838 12.7559 100.785 12.7238 100.74 12.6822C100.695 12.6406 100.66 12.5904 100.635 12.5346C100.61 12.4788 100.597 12.4186 100.596 12.3575Z" fill="#263238"/>
<g opacity="0.5">
<path d="M98.8793 56.9748C98.8793 57.0283 98.8633 57.0807 98.8334 57.1252C98.8035 57.1697 98.761 57.2043 98.7113 57.2247C98.6616 57.2451 98.607 57.2503 98.5543 57.2397C98.5016 57.2291 98.4533 57.2031 98.4155 57.1651C98.3777 57.127 98.352 57.0786 98.3418 57.026C98.3316 56.9734 98.3374 56.919 98.3583 56.8697C98.3792 56.8203 98.4143 56.7783 98.4592 56.7489C98.5041 56.7195 98.5568 56.704 98.6105 56.7045C98.646 56.7045 98.6812 56.7115 98.7139 56.7251C98.7467 56.7387 98.7764 56.7587 98.8014 56.7838C98.8264 56.8089 98.8462 56.8387 98.8595 56.8715C98.8729 56.9043 98.8796 56.9394 98.8793 56.9748Z" fill="white"/>
<path d="M98.8793 57.7857C98.8798 57.8394 98.8642 57.892 98.8346 57.9368C98.805 57.9816 98.7627 58.0166 98.713 58.0374C98.6634 58.0582 98.6086 58.0637 98.5558 58.0534C98.503 58.043 98.4544 58.0172 98.4163 57.9793C98.3783 57.9413 98.3524 57.8929 98.342 57.8403C98.3316 57.7876 98.3372 57.7331 98.358 57.6836C98.3788 57.6341 98.414 57.5919 98.4589 57.5624C98.5039 57.5329 98.5567 57.5174 98.6105 57.5178C98.6816 57.5185 98.7496 57.5469 98.7999 57.597C98.8502 57.6471 98.8787 57.7149 98.8793 57.7857Z" fill="white"/>
<path d="M98.8793 58.5991C98.8793 58.6526 98.8633 58.705 98.8334 58.7495C98.8035 58.794 98.761 58.8286 98.7113 58.849C98.6616 58.8694 98.607 58.8746 98.5543 58.864C98.5016 58.8533 98.4533 58.8274 98.4155 58.7893C98.3777 58.7513 98.352 58.7029 98.3418 58.6503C98.3316 58.5977 98.3374 58.5433 98.3583 58.4939C98.3792 58.4446 98.4143 58.4025 98.4592 58.3731C98.5041 58.3437 98.5568 58.3283 98.6105 58.3287C98.646 58.3287 98.6812 58.3357 98.7139 58.3494C98.7467 58.363 98.7764 58.3829 98.8014 58.4081C98.8264 58.4332 98.8462 58.463 98.8595 58.4958C98.8729 58.5286 98.8796 58.5637 98.8793 58.5991Z" fill="white"/>
</g>
<path d="M57.4938 40.4383C57.4938 40.4383 53.3082 40.8928 51.4098 40.51C49.5114 40.1273 47.709 36.9865 47.709 36.9865L49.7562 35.6732L52.0794 38.6657L57.4002 39.1441L58.8402 37.9696L60.3546 38.3332C60.3546 38.3332 60.3882 40.211 59.7426 40.3115C59.097 40.4119 57.4938 40.4383 57.4938 40.4383Z" fill="#FFC3BD"/>
<path d="M47.1882 32.3434C47.1882 32.3434 48.4482 32.3147 49.7874 34.427C50.0942 34.8942 50.3478 35.394 50.5434 35.9172C50.7234 36.3956 49.809 36.9626 49.1514 37.386C48.6402 37.7137 48.0978 38.0653 47.7786 38.0151C47.5191 37.6807 47.3045 37.314 47.1402 36.9243C46.5858 35.6086 46.005 32.2884 47.1882 32.3434Z" fill="#E01B36"/>
<path opacity="0.2" d="M46.9033 36.3239L47.4817 34.9077L47.9041 34.5657C47.9041 34.5657 48.8161 36.3119 48.7489 37.6562C48.0289 38.0892 47.6089 38.0414 47.1409 36.9243C47.0689 36.7544 46.9873 36.5511 46.9033 36.3239Z" fill="black"/>
<path d="M48 32.6043C48 32.6043 47.9568 34.5395 47.8368 35.525C47.688 36.7617 47.3448 37.8214 46.3536 39.5915C45.1704 41.7085 43.848 44.1006 43.848 44.1006L36.252 40.9646C37.0464 39.052 37.7268 37.0942 38.2896 35.1016C38.5411 34.2138 38.717 33.3063 38.8152 32.389C38.8464 31.9235 38.9425 31.4646 39.1008 31.0255C39.7032 29.485 41.064 29.5232 42.4224 29.9538C42.42 29.9833 42.42 30.0129 42.4224 30.0423C42.4512 31.1499 43.7376 33.0372 44.1024 33.1784C44.556 33.3578 45.972 32.5827 45.9888 31.5302C45.9899 31.5087 45.9899 31.4871 45.9888 31.4656C46.824 31.8699 48 32.6043 48 32.6043Z" fill="#C14068"/>
<path opacity="0.9" d="M43.3123 29.76L41.7643 29.8174L40.7803 31.5158L42.2107 31.743L43.9339 33.5826L46.2307 33.1089L47.2579 33.3577L46.9099 31.7646L45.2707 30.5374L43.3123 29.76Z" fill="white"/>
<path d="M45.9912 31.5326C45.9744 32.5851 44.5512 33.3602 44.1048 33.1807C43.7424 33.0396 42.456 31.1523 42.4248 30.0447C42.5667 30.0638 42.711 30.0488 42.8459 30.0009C42.9807 29.9531 43.1022 29.8738 43.2 29.7696C43.8384 29.0137 44.2344 27.6526 44.412 26.7963L45.66 29.296C45.4991 29.5074 45.3884 29.7524 45.3365 30.0127C45.2845 30.2729 45.2925 30.5415 45.36 30.7982C45.3744 30.8174 45.4224 31.1762 45.9912 31.5326Z" fill="#FFC3BD"/>
<path opacity="0.1" d="M45.3601 28.6835L45.6649 29.2959C45.4792 29.553 45.3612 29.8523 45.3217 30.1666C44.5537 29.3772 44.3809 28.0281 44.3809 28.0281L45.3601 28.6835Z" fill="black"/>
<path opacity="0.2" d="M40.5451 31.7478C39.9384 32.9537 39.1821 34.0788 38.2939 35.0967C38.5455 34.2089 38.7214 33.3015 38.8195 32.3841C38.8508 31.9186 38.9469 31.4597 39.1051 31.0206L39.8875 30.8364L40.5451 31.7478Z" fill="black"/>
<path d="M36.48 31.4392C36.48 31.4392 34.0104 33.3792 33.2664 34.1136C32.1576 35.2067 29.2128 38.8379 29.2128 38.8379L27.3408 40.034L27.4224 41.2587L28.3824 41.8304C28.453 41.8724 28.5312 41.9 28.6126 41.9116C28.694 41.9231 28.7769 41.9184 28.8564 41.8977C28.9359 41.877 29.0105 41.8407 29.0758 41.791C29.1412 41.7412 29.1959 41.679 29.2368 41.608L30.2976 39.7732C30.2976 39.7732 33.0288 36.9243 34.0488 36.0966C34.9104 35.3957 37.7424 33.628 37.7424 33.628L36.48 31.4392Z" fill="#FFC3BD"/>
<path d="M41.0396 29.7001C41.0396 29.7001 39.446 28.949 38.0732 29.7934C36.7004 30.6378 35.9132 30.8005 36.3044 31.9846C36.5852 32.8529 37.6628 34.5848 37.6628 34.5848C38.57 34.2188 41.6876 30.9129 41.0396 29.7001Z" fill="#E01B36"/>
<path d="M37.1201 80.4723C37.1633 82.0989 37.2017 83.3859 37.2017 83.3859L39.0233 83.4696C39.0233 83.4696 39.1217 82.362 39.2633 80.6637L37.1201 80.4723Z" fill="#FFC3BD"/>
<path d="M39.5248 83.2112C39.5148 83.2095 39.5054 83.2049 39.4978 83.1982C39.4902 83.1914 39.4846 83.1827 39.4816 83.173C39.4808 83.163 39.4828 83.1529 39.4875 83.144C39.4922 83.1351 39.4993 83.1277 39.508 83.1227C39.5416 83.106 40.3024 82.7041 40.6648 82.7926C40.7311 82.8063 40.7895 82.8449 40.828 82.9003C40.8508 82.9293 40.8632 82.9651 40.8632 83.0019C40.8632 83.0388 40.8508 83.0746 40.828 83.1036C40.6387 83.2275 40.4127 83.2832 40.1872 83.2615C39.9655 83.2615 39.7441 83.2447 39.5248 83.2112ZM39.6904 83.1467C40.096 83.1873 40.6504 83.1801 40.7464 83.051C40.7608 83.0342 40.7752 83.0055 40.7464 82.9481C40.7358 82.9303 40.7212 82.9152 40.7037 82.904C40.6862 82.8928 40.6663 82.8858 40.6456 82.8835C40.6136 82.8748 40.5804 82.8708 40.5472 82.8716C40.2478 82.913 39.9579 83.0061 39.6904 83.1467Z" fill="#407BFF"/>
<path d="M39.4964 83.2088C39.4891 83.2044 39.4832 83.198 39.4794 83.1904C39.4756 83.1828 39.474 83.1742 39.4748 83.1658C39.4748 83.1418 39.5372 82.606 39.8132 82.3955C39.8955 82.3332 39.9984 82.3042 40.1012 82.3142C40.2428 82.3261 40.2884 82.3907 40.2932 82.4434C40.3388 82.6658 39.8132 83.1012 39.554 83.2088H39.5324C39.5207 83.2124 39.5082 83.2124 39.4964 83.2088ZM40.0676 82.4027C40.0026 82.4023 39.9394 82.4234 39.8876 82.4625C39.7276 82.6304 39.6259 82.8451 39.5972 83.0749C39.8684 82.9266 40.2116 82.5965 40.1996 82.4529C40.1996 82.441 40.1996 82.4075 40.0964 82.4003L40.0676 82.4027Z" fill="#407BFF"/>
<path d="M39.3022 82.9361L37.1422 82.9194C37.1 82.9184 37.0586 82.9315 37.0247 82.9566C36.9908 82.9818 36.9662 83.0175 36.955 83.0581L36.5206 84.8211C36.5119 84.8595 36.5114 84.8994 36.519 84.9381C36.5266 84.9768 36.5421 85.0135 36.5647 85.0459C36.5873 85.0782 36.6163 85.1056 36.65 85.1262C36.6838 85.1468 36.7214 85.1602 36.7606 85.1655C36.783 85.168 36.8055 85.168 36.8278 85.1655C37.6846 85.144 38.239 85.132 39.3046 85.1249C40.5646 85.1249 40.243 85.2516 41.7238 85.2588C42.6166 85.2588 42.7798 84.3355 42.403 84.302C40.663 84.1202 39.4894 82.9265 39.3022 82.9361Z" fill="#263238"/>
<path d="M35.6253 42.1439L36.1053 40.9478C36.1365 40.7947 36.2061 40.7086 36.3453 40.7589L43.9365 43.9547C44.0757 44.0121 44.0949 44.0839 44.0181 44.213L43.6053 45.6004C43.6053 45.6004 42.5757 58.7067 42.0741 63.0627C41.5629 67.5143 39.5565 80.8622 39.5565 80.8622C39.5505 80.9094 39.5264 80.9524 39.4893 80.9823C39.4522 81.0122 39.4049 81.0266 39.3573 81.0225L37.0893 80.8096C37.0465 80.8063 37.0063 80.7878 36.9759 80.7576C36.9456 80.7273 36.9271 80.6872 36.9237 80.6445C36.8205 79.525 36.3573 72.4373 36.7341 67.3756C36.8685 65.5672 37.3773 64.0913 37.5141 63.0914C37.6677 61.9862 37.2741 61.2806 36.9501 58.6684C36.3525 53.7646 35.5197 46.0047 35.6253 42.1439Z" fill="#407BFF"/>
<path opacity="0.7" d="M35.6253 42.1439L36.1053 40.9478C36.1365 40.7947 36.2061 40.7086 36.3453 40.7589L43.9365 43.9547C44.0757 44.0121 44.0949 44.0839 44.0181 44.213L43.6053 45.6004C43.6053 45.6004 42.5757 58.7067 42.0741 63.0627C41.5629 67.5143 39.5565 80.8622 39.5565 80.8622C39.5505 80.9094 39.5264 80.9524 39.4893 80.9823C39.4522 81.0122 39.4049 81.0266 39.3573 81.0225L37.0893 80.8096C37.0465 80.8063 37.0063 80.7878 36.9759 80.7576C36.9456 80.7273 36.9271 80.6872 36.9237 80.6445C36.8205 79.525 36.3573 72.4373 36.7341 67.3756C36.8685 65.5672 37.3773 64.0913 37.5141 63.0914C37.6677 61.9862 37.2741 61.2806 36.9501 58.6684C36.3525 53.7646 35.5197 46.0047 35.6253 42.1439Z" fill="black"/>
<path opacity="0.5" d="M36.9598 58.6827C36.763 57.037 36.535 55.0755 36.3262 53.047L38.3062 49.1431L39.151 46.8586L40.1782 48.0714C40.1782 48.0714 38.9782 55.1616 37.1014 59.6946C37.0414 59.3908 36.9934 59.0583 36.9598 58.6827Z" fill="black"/>
<path d="M21.055 75.3221C20.2078 76.7119 19.6582 77.6233 19.6582 77.6233L21.1438 78.6759C21.1438 78.6759 21.8278 77.798 22.8742 76.4488L21.055 75.3221Z" fill="#FFC3BD"/>
<path d="M21.7776 78.3815C21.7723 78.3729 21.7695 78.3629 21.7695 78.3528C21.7695 78.3427 21.7723 78.3328 21.7776 78.3241C21.782 78.3145 21.7891 78.3064 21.798 78.3008C21.807 78.2953 21.8175 78.2926 21.828 78.293C21.8664 78.293 22.7304 78.3361 22.9824 78.6136C23.0297 78.6642 23.0555 78.731 23.0544 78.8001C23.0567 78.8399 23.0466 78.8793 23.0255 78.9131C23.0045 78.9469 22.9735 78.9735 22.9368 78.9891C22.8 79.0393 22.5408 78.9317 22.3128 78.7882C22.123 78.6683 21.9439 78.5323 21.7776 78.3815ZM21.9552 78.4126C22.2672 78.671 22.728 78.9604 22.8864 78.891C22.908 78.891 22.9368 78.8647 22.9392 78.7906C22.9405 78.7696 22.9371 78.7487 22.9292 78.7292C22.9213 78.7098 22.9091 78.6923 22.8936 78.6781C22.8716 78.6528 22.8457 78.631 22.8168 78.6136C22.5448 78.4933 22.2525 78.4252 21.9552 78.4126Z" fill="#407BFF"/>
<path d="M21.7552 78.3648C21.7505 78.3572 21.748 78.3485 21.748 78.3396C21.748 78.3308 21.7505 78.3221 21.7552 78.3145C21.772 78.293 22.132 77.8361 22.4752 77.7907C22.5258 77.7846 22.5772 77.7887 22.6262 77.8027C22.6752 77.8167 22.721 77.8402 22.7608 77.872C22.8736 77.9581 22.8712 78.0418 22.8448 78.0945C22.7536 78.3217 22.0624 78.4365 21.784 78.3959C21.7777 78.3971 21.7711 78.3971 21.7648 78.3959C21.759 78.3865 21.7557 78.3758 21.7552 78.3648ZM22.7008 77.9342C22.6464 77.8983 22.5805 77.8838 22.516 77.8935C22.2802 77.9633 22.0716 78.1036 21.9184 78.2954C22.228 78.2954 22.7128 78.1806 22.78 78.0562C22.78 78.0418 22.7992 78.0083 22.7248 77.9533L22.7008 77.939V77.9342Z" fill="#407BFF"/>
<path d="M21.6237 77.9534L20.0541 76.9344C20.0175 76.91 19.9735 76.899 19.9297 76.9034C19.886 76.9078 19.8451 76.9272 19.8141 76.9583L18.4221 78.3409C18.3631 78.4001 18.3301 78.48 18.3301 78.5634C18.3301 78.6467 18.3631 78.7267 18.4221 78.7859C18.4371 78.8021 18.454 78.8166 18.4725 78.8289C19.1925 79.2715 19.4325 79.3934 20.3325 79.9604C21.3837 80.6302 21.0357 80.5871 22.2525 81.3956C22.9917 81.874 23.6685 81.1229 23.3805 80.8789C22.0605 79.7738 21.7845 78.0467 21.6237 77.9534Z" fill="#263238"/>
<path d="M41.4792 44.8947C41.4792 44.8947 36.4992 58.8406 33.9864 63.0746C31.7568 66.8254 22.9776 76.6353 22.9776 76.6353C22.913 76.715 22.82 76.7667 22.718 76.7797C22.616 76.7926 22.513 76.7657 22.4304 76.7047L21.0528 75.688C20.9764 75.632 20.9226 75.5506 20.901 75.4585C20.8795 75.3664 20.8916 75.2697 20.9352 75.1857C21.6552 73.8318 24.6576 68.1936 27.3792 64.4739C28.464 62.9909 29.5392 61.8857 30.036 61.0748C30.7032 60.0031 30.4752 59.1946 30.8664 56.3169C31.5864 50.9682 33.1776 43.0648 36.3 41.6056L41.4792 44.8947Z" fill="#407BFF"/>
<path opacity="0.7" d="M41.479 44.8947C41.479 44.8947 36.499 58.8406 33.9862 63.0746C31.7566 66.8254 23.071 76.6927 23.071 76.6927C23.0068 76.7723 22.9142 76.8239 22.8126 76.8368C22.7111 76.8498 22.6084 76.823 22.5262 76.7621L20.9638 75.6235C20.9117 75.5859 20.875 75.5308 20.8604 75.4684C20.8459 75.406 20.8545 75.3404 20.8846 75.2838C21.4894 74.126 24.5854 68.2917 27.379 64.4739C28.4638 62.9909 29.539 61.8857 30.0358 61.0748C30.703 60.0031 30.475 59.1946 30.8662 56.3169C31.5862 50.9682 33.1774 43.0648 36.2998 41.6056L41.479 44.8947Z" fill="black"/>
<path d="M47.3281 22.5454C47.4313 23.22 48.2353 23.5908 48.6073 24.3562C48.6073 24.3562 49.6681 23.4448 48.9241 22.7583C48.1801 22.0718 47.1697 21.4881 47.3281 22.5454Z" fill="#263238"/>
<path d="M48.626 23.3325C49.442 23.6722 49.862 25.2773 48.866 25.8729C48.8804 25.959 48.9404 26.014 48.9932 25.9829C50.1284 25.3299 49.7132 23.2823 48.7148 22.5742L48.626 23.3325Z" fill="#263238"/>
<path d="M46.6722 23.9807C45.9066 24.7245 45.4645 25.7381 45.441 26.8034C45.4242 27.8535 44.9274 28.5472 45.6594 29.3031C48.1938 29.9801 48.213 30.2886 48.5778 30.4561C48.741 29.9442 48.7866 28.4754 48.1266 27.9755C47.6466 27.6095 47.1882 27.2052 47.0394 26.6192C46.8407 25.8383 46.7726 25.0301 46.8378 24.2271L46.6722 23.9807Z" fill="#263238"/>
<path d="M43.6944 25.1911C43.8432 27.0187 43.8648 27.7937 44.8176 28.7171C46.2384 30.1021 48.4632 29.5256 48.8568 27.6909C49.2216 26.0427 48.9192 23.3373 47.1048 22.6388C46.7985 22.5188 46.4714 22.4601 46.1424 22.4663C45.8133 22.4724 45.4886 22.5431 45.187 22.6744C44.8854 22.8057 44.6127 22.995 44.3846 23.2315C44.1565 23.468 43.9774 23.747 43.8576 24.0525C43.7139 24.4139 43.658 24.8041 43.6944 25.1911Z" fill="#FFC3BD"/>
<path d="M47.829 25.8585C47.9513 26.1994 48.121 26.5215 48.3331 26.8154C48.2553 26.8673 48.1672 26.9017 48.0747 26.9161C47.9823 26.9306 47.8878 26.9248 47.7979 26.8991L47.829 25.8585Z" fill="#ED893E"/>
<path d="M47.1959 27.7291C47.267 27.7351 47.3384 27.7351 47.4095 27.7291C47.4205 27.7285 47.4309 27.7237 47.4385 27.7157C47.4461 27.7077 47.4503 27.6971 47.4503 27.6861C47.4497 27.6749 47.445 27.6642 47.437 27.6563C47.429 27.6483 47.4184 27.6436 47.4071 27.643C47.2215 27.6514 47.0365 27.6156 46.8675 27.5387C46.6985 27.4617 46.5503 27.3458 46.4351 27.2005C46.4279 27.1913 46.4177 27.1849 46.4062 27.1827C46.3947 27.1805 46.3828 27.1826 46.3727 27.1885C46.3648 27.197 46.3604 27.2081 46.3604 27.2196C46.3604 27.2312 46.3648 27.2423 46.3727 27.2507C46.471 27.3811 46.5945 27.4905 46.7359 27.5727C46.8772 27.6549 47.0336 27.708 47.1959 27.7291Z" fill="#263238"/>
<path d="M43.9888 22.1053C42.6304 23.0933 41.3656 26.4111 44.284 28.0736C44.9056 27.7794 44.4976 27.1167 44.3584 26.0762C44.2672 25.3968 45.4648 24.2271 46.0384 23.8563C46.612 23.4856 47.2024 22.8995 47.836 23.1531C47.9908 23.2458 48.1691 23.2923 48.3496 23.287C48.9256 23.1698 48.7456 22.8086 48.532 22.5215C48.1874 22.1219 47.7352 21.8289 47.2288 21.6771C46.6934 21.4871 46.1203 21.4268 45.5569 21.5013C44.9935 21.5758 44.456 21.7828 43.9888 22.1053Z" fill="#263238"/>
<path d="M45.6521 24.1218C45.6057 24.4804 45.4668 24.8207 45.2489 25.1098C45.0056 25.3928 44.6613 25.5704 44.2889 25.6049C43.9173 25.6313 43.5438 25.6095 43.1777 25.5403C43.4349 25.6825 43.7182 25.7715 44.0106 25.8019C44.3031 25.8323 44.5987 25.8035 44.8798 25.7173C45.1608 25.6311 45.4215 25.4892 45.6462 25.3001C45.8709 25.111 46.0549 24.8787 46.1873 24.617C46.3193 24.3587 46.3961 24.0788 46.5113 23.8109C46.611 23.5373 46.7918 23.3003 47.0297 23.1315C47.1509 23.0506 47.2942 23.0092 47.44 23.013C47.5857 23.0169 47.7267 23.0658 47.8433 23.153C47.8955 23.151 47.946 23.1339 47.9886 23.1038C48.0312 23.0736 48.0641 23.0317 48.0832 22.9833C48.1023 22.9348 48.1068 22.8818 48.0962 22.8308C48.0855 22.7798 48.0602 22.733 48.0233 22.6962C47.6753 22.6651 45.9041 22.2225 45.6521 24.1218Z" fill="#263238"/>
<path d="M43.3313 22.7847C42.5729 23.5023 41.8505 24.8945 41.8313 25.9446C41.8186 27.007 42.2234 28.0321 42.9593 28.8008C43.8545 28.9338 44.7001 29.2947 45.4145 29.8485C45.7001 29.0735 45.1745 27.6143 44.5121 27.1167C44.0321 26.7484 43.5737 26.3441 43.4249 25.758C43.2265 24.9771 43.1576 24.1691 43.2209 23.3659L43.3313 22.7847Z" fill="#263238"/>
<path d="M43.1754 26.5786C43.2405 26.7425 43.3377 26.8918 43.4613 27.0179C43.5849 27.144 43.7325 27.2443 43.8954 27.3129C44.3298 27.4971 44.5986 27.124 44.5362 26.6862C44.4714 26.2915 44.1714 25.7294 43.7106 25.7294C43.6105 25.7322 43.5127 25.7597 43.4261 25.8096C43.3394 25.8596 43.2666 25.9302 43.2142 26.0152C43.1618 26.1002 43.1314 26.1969 43.1259 26.2965C43.1204 26.3961 43.1399 26.4955 43.1826 26.5857L43.1754 26.5786Z" fill="#FFC3BD"/>
<path d="M45.9859 24.9902C46.0029 24.996 46.0213 24.9963 46.0385 24.9912C46.0557 24.986 46.0709 24.9757 46.0819 24.9615C46.1814 24.8583 46.3017 24.7774 46.435 24.7242C46.5682 24.671 46.7113 24.6467 46.8547 24.6529C46.8755 24.6495 46.8943 24.6388 46.9079 24.6229C46.9215 24.6069 46.929 24.5866 46.929 24.5656C46.929 24.5447 46.9215 24.5244 46.9079 24.5084C46.8943 24.4924 46.8755 24.4818 46.8547 24.4783C46.6827 24.4721 46.5114 24.5029 46.3524 24.5685C46.1934 24.6341 46.0504 24.7331 45.9331 24.8587C45.9192 24.8769 45.913 24.8998 45.9156 24.9226C45.9183 24.9453 45.9298 24.9661 45.9475 24.9807L45.9859 24.9902Z" fill="#263238"/>
<path d="M48.7774 24.8515C48.792 24.8554 48.8075 24.8554 48.8222 24.8517C48.8369 24.8479 48.8504 24.8404 48.8614 24.83C48.8697 24.8221 48.8764 24.8127 48.8809 24.8022C48.8855 24.7917 48.8878 24.7804 48.8878 24.769C48.8878 24.7575 48.8855 24.7462 48.8809 24.7358C48.8764 24.7253 48.8697 24.7158 48.8614 24.708C48.7667 24.6064 48.6494 24.5286 48.5188 24.4808C48.3883 24.433 48.2483 24.4166 48.1102 24.4329C48.0872 24.4375 48.0669 24.4508 48.0535 24.47C48.0401 24.4891 48.0346 24.5127 48.0382 24.5358C48.0402 24.5472 48.0445 24.5581 48.0508 24.5678C48.0571 24.5775 48.0653 24.5858 48.075 24.5923C48.0846 24.5988 48.0954 24.6033 48.1069 24.6055C48.1183 24.6077 48.13 24.6075 48.1414 24.6051C48.2506 24.5933 48.3611 24.6075 48.4638 24.6466C48.5664 24.6857 48.6583 24.7486 48.7318 24.83C48.7455 24.8398 48.761 24.8471 48.7774 24.8515Z" fill="#263238"/>
<path d="M48.5395 25.514C48.6403 25.514 48.7171 25.6504 48.7075 25.8035C48.6979 25.9566 48.6115 26.0834 48.5107 26.0762C48.4099 26.069 48.3331 25.9398 48.3403 25.7867C48.3475 25.6337 48.4387 25.5093 48.5395 25.514Z" fill="#263238"/>
<path d="M48.8733 25.4351L48.4941 25.5236C48.6645 25.7149 48.8733 25.4351 48.8733 25.4351Z" fill="#263238"/>
<path d="M46.771 25.471C46.8718 25.471 46.9486 25.6073 46.939 25.7628C46.9294 25.9183 46.843 26.0403 46.7422 26.0355C46.6414 26.0307 46.5646 25.8992 46.5718 25.7437C46.579 25.5882 46.6702 25.4686 46.771 25.471Z" fill="#263238"/>
<path d="M47.1043 25.3944L46.7227 25.4829C46.8955 25.6743 47.1043 25.3944 47.1043 25.3944Z" fill="#263238"/>
<path d="M36.225 41.4358L37.677 42.0386L37.4634 42.5409L36.0186 41.9381L36.225 41.4358Z" fill="#407BFF"/>
<path d="M38.0634 42.2018L37.8525 42.7051L39.281 43.2995L39.4919 42.7962L38.0634 42.2018Z" fill="#407BFF"/>
<path d="M41.8772 43.7825L42.8468 44.1867L42.638 44.6891L41.666 44.2872L41.8772 43.7825Z" fill="#407BFF"/>
<path d="M43.2327 44.3454L43.0215 44.8485L43.4466 45.0257L43.6578 44.5226L43.2327 44.3454Z" fill="#407BFF"/>
<path d="M61.5744 36.7976C60.9913 36.7963 60.4325 36.5647 60.0204 36.1536C59.6084 35.7424 59.3766 35.1852 59.376 34.604V30.3557C59.389 30.304 59.419 30.2581 59.4611 30.2253C59.5033 30.1925 59.5553 30.1746 59.6088 30.1746C59.6623 30.1746 59.7142 30.1925 59.7564 30.2253C59.7986 30.2581 59.8286 30.304 59.8416 30.3557V34.604C59.8329 34.8364 59.8713 35.0681 59.9546 35.2854C60.0378 35.5026 60.1641 35.7009 60.326 35.8683C60.4879 36.0358 60.682 36.169 60.8967 36.26C61.1114 36.3509 61.3423 36.3978 61.5756 36.3978C61.8089 36.3978 62.0398 36.3509 62.2545 36.26C62.4692 36.169 62.6633 36.0358 62.8252 35.8683C62.987 35.7009 63.1134 35.5026 63.1966 35.2854C63.2798 35.0681 63.3183 34.8364 63.3096 34.604V30.1356C63.3007 30.1003 63.3 30.0635 63.3076 30.0279C63.3151 29.9924 63.3307 29.959 63.3532 29.9303C63.3756 29.9016 63.4043 29.8785 63.4371 29.8625C63.4699 29.8465 63.5059 29.8383 63.5424 29.8383C63.5789 29.8383 63.6149 29.8465 63.6477 29.8625C63.6804 29.8785 63.7091 29.9016 63.7316 29.9303C63.754 29.959 63.7696 29.9924 63.7772 30.0279C63.7847 30.0635 63.784 30.1003 63.7752 30.1356V34.604C63.7745 35.1856 63.5425 35.7432 63.1299 36.1544C62.7173 36.5656 62.1579 36.7969 61.5744 36.7976Z" fill="#263238"/>
<path d="M69.3191 29.2314L58.843 30.8628C58.2733 30.9515 57.8837 31.4837 57.9727 32.0515L60.3652 47.3145C60.4542 47.8823 60.9882 48.2706 61.5579 48.1819L72.034 46.5505C72.6037 46.4618 72.9933 45.9296 72.9043 45.3618L70.5118 30.0989C70.4228 29.5311 69.8888 29.1427 69.3191 29.2314Z" fill="#407BFF"/>
<path opacity="0.6" d="M69.3191 29.2314L58.843 30.8628C58.2733 30.9515 57.8837 31.4837 57.9727 32.0515L60.3652 47.3145C60.4542 47.8823 60.9882 48.2706 61.5579 48.1819L72.034 46.5505C72.6037 46.4618 72.9933 45.9296 72.9043 45.3618L70.5118 30.0989C70.4228 29.5311 69.8888 29.1427 69.3191 29.2314Z" fill="white"/>
<path opacity="0.2" d="M69.9398 37.4753L61.5169 38.8321C61.3857 38.8532 61.2965 38.9764 61.3177 39.1072L61.33 39.183C61.3512 39.3137 61.4748 39.4026 61.606 39.3815L70.0289 38.0247C70.1601 38.0036 70.2493 37.8804 70.2281 37.7496L70.2158 37.6738C70.1946 37.543 70.071 37.4542 69.9398 37.4753Z" fill="black"/>
<path opacity="0.2" d="M70.0661 39.6299L61.6666 40.9799C61.5358 41.0009 61.4468 41.1237 61.4679 41.2541L61.4801 41.3297C61.5012 41.4601 61.6244 41.5488 61.7553 41.5277L70.1548 40.1778C70.2856 40.1568 70.3746 40.034 70.3535 39.9036L70.3413 39.828C70.3202 39.6976 70.197 39.6089 70.0661 39.6299Z" fill="black"/>
<path opacity="0.2" d="M70.4294 41.8714L62.0299 43.2213C61.8991 43.2424 61.8101 43.3651 61.8312 43.4956L61.8434 43.5711C61.8645 43.7016 61.9877 43.7902 62.1185 43.7692L70.518 42.4193C70.6489 42.3982 70.7379 42.2755 70.7168 42.145L70.7046 42.0695C70.6835 41.939 70.5603 41.8503 70.4294 41.8714Z" fill="black"/>
<path d="M69.0937 29.7716L58.5605 30.9845C57.9878 31.0504 57.5771 31.5667 57.6433 32.1376L59.422 47.4836C59.4882 48.0545 60.0061 48.4638 60.5789 48.3979L71.1121 47.185C71.6848 47.1191 72.0955 46.6028 72.0293 46.0319L70.2506 30.6859C70.1844 30.115 69.6665 29.7057 69.0937 29.7716Z" fill="#407BFF"/>
<path opacity="0.7" d="M69.0937 29.7716L58.5605 30.9845C57.9878 31.0504 57.5771 31.5667 57.6433 32.1376L59.422 47.4836C59.4882 48.0545 60.0061 48.4638 60.5789 48.3979L71.1121 47.185C71.6848 47.1191 72.0955 46.6028 72.0293 46.0319L70.2506 30.6859C70.1844 30.115 69.6665 29.7057 69.0937 29.7716Z" fill="white"/>
<path opacity="0.2" d="M69.1559 37.9415L60.709 38.9559C60.5774 38.9717 60.4836 39.0908 60.4994 39.222L60.5086 39.298C60.5245 39.4292 60.644 39.5227 60.7756 39.5069L69.2225 38.4925C69.3541 38.4767 69.4479 38.3576 69.4321 38.2264L69.4229 38.1504C69.407 38.0193 69.2875 37.9257 69.1559 37.9415Z" fill="black"/>
<path opacity="0.2" d="M69.4264 40.1942L60.9795 41.2086C60.8479 41.2244 60.7541 41.3435 60.7699 41.4747L60.7791 41.5507C60.795 41.6818 60.9145 41.7753 61.0461 41.7595L69.493 40.7452C69.6246 40.7294 69.7184 40.6103 69.7026 40.4791L69.6934 40.4031C69.6775 40.2719 69.558 40.1784 69.4264 40.1942Z" fill="black"/>
<path opacity="0.2" d="M69.6998 42.4467L61.2529 43.461C61.1213 43.4768 61.0275 43.596 61.0434 43.7271L61.0525 43.8031C61.0684 43.9343 61.1879 44.0278 61.3195 44.012L69.7664 42.9976C69.898 42.9818 69.9919 42.8627 69.976 42.7315L69.9668 42.6555C69.951 42.5244 69.8314 42.4309 69.6998 42.4467Z" fill="black"/>
<path d="M71.1672 34.5275L71.1912 47.5189C71.1912 47.5995 71.1591 47.6768 71.1019 47.7337C71.0448 47.7907 70.9672 47.8227 70.8864 47.8227L58.8336 47.8442C58.7937 47.8446 58.7541 47.837 58.7172 47.822C58.6802 47.807 58.6466 47.7848 58.6182 47.7568C58.5899 47.7288 58.5674 47.6955 58.5521 47.6587C58.5367 47.622 58.5288 47.5826 58.5288 47.5428L58.5 30.6427C58.4997 30.603 58.5073 30.5635 58.5223 30.5267C58.5374 30.4898 58.5596 30.4563 58.5877 30.4281C58.6158 30.3998 58.6493 30.3774 58.6861 30.3621C58.723 30.3468 58.7625 30.3389 58.8024 30.3389L66.924 30.3246L71.1672 34.5275Z" fill="#407BFF"/>
<g opacity="0.8">
<path d="M71.1672 34.5275L71.1912 47.5189C71.1912 47.5995 71.1591 47.6768 71.1019 47.7337C71.0448 47.7907 70.9672 47.8227 70.8864 47.8227L58.8336 47.8442C58.7937 47.8446 58.7541 47.837 58.7172 47.822C58.6802 47.807 58.6466 47.7848 58.6182 47.7568C58.5899 47.7288 58.5674 47.6955 58.5521 47.6587C58.5367 47.622 58.5288 47.5826 58.5288 47.5428L58.5 30.6427C58.4997 30.603 58.5073 30.5635 58.5223 30.5267C58.5374 30.4898 58.5596 30.4563 58.5877 30.4281C58.6158 30.3998 58.6493 30.3774 58.6861 30.3621C58.723 30.3468 58.7625 30.3389 58.8024 30.3389L66.924 30.3246L71.1672 34.5275Z" fill="white"/>
</g>
<path d="M69.0985 38.4386L60.5906 38.48C60.458 38.4807 60.3511 38.5883 60.3518 38.7204L60.3521 38.797C60.3528 38.9291 60.4608 39.0356 60.5933 39.035L69.1012 38.9936C69.2337 38.9929 69.3407 38.8853 69.34 38.7532L69.3397 38.6766C69.339 38.5445 69.231 38.4379 69.0985 38.4386Z" fill="#263238"/>
<path d="M69.1004 40.7183L60.5925 40.7583C60.46 40.7589 60.353 40.8665 60.3537 40.9986L60.354 41.0752C60.3547 41.2073 60.4626 41.3139 60.5952 41.3132L69.1031 41.2733C69.2356 41.2726 69.3426 41.165 69.3419 41.0329L69.3416 40.9564C69.3409 40.8243 69.233 40.7177 69.1004 40.7183Z" fill="#263238"/>
<path d="M69.1209 42.9762L60.613 43.0176C60.4805 43.0183 60.3736 43.1259 60.3742 43.258L60.3746 43.3345C60.3752 43.4667 60.4832 43.5732 60.6158 43.5726L69.1237 43.5311C69.2562 43.5305 69.3631 43.4229 69.3625 43.2908L69.3621 43.2142C69.3615 43.0821 69.2535 42.9755 69.1209 42.9762Z" fill="#263238"/>
<path d="M66.9316 30.3149V34.2332C66.9316 34.3133 66.9634 34.3903 67.0201 34.4472C67.0767 34.5041 67.1536 34.5363 67.234 34.537H71.1556L66.9316 30.3149Z" fill="#407BFF"/>
<path opacity="0.9" d="M66.9316 30.3149V34.2332C66.9316 34.3133 66.9634 34.3903 67.0201 34.4472C67.0767 34.5041 67.1536 34.5363 67.234 34.537H71.1556L66.9316 30.3149Z" fill="white"/>
<path opacity="0.5" d="M69.0985 38.4386L60.5906 38.48C60.458 38.4807 60.3511 38.5883 60.3518 38.7204L60.3521 38.797C60.3528 38.9291 60.4608 39.0356 60.5933 39.035L69.1012 38.9936C69.2337 38.9929 69.3407 38.8853 69.34 38.7532L69.3397 38.6766C69.339 38.5445 69.231 38.4379 69.0985 38.4386Z" fill="white"/>
<path opacity="0.5" d="M69.1004 40.7183L60.5925 40.7583C60.46 40.7589 60.353 40.8665 60.3537 40.9986L60.354 41.0752C60.3547 41.2073 60.4626 41.3139 60.5952 41.3132L69.1031 41.2733C69.2356 41.2726 69.3426 41.165 69.3419 41.0329L69.3416 40.9564C69.3409 40.8243 69.233 40.7177 69.1004 40.7183Z" fill="white"/>
<path opacity="0.5" d="M69.1209 42.9762L60.613 43.0176C60.4805 43.0183 60.3736 43.1259 60.3742 43.258L60.3746 43.3345C60.3752 43.4667 60.4832 43.5732 60.6158 43.5726L69.1237 43.5311C69.2562 43.5305 69.3631 43.4229 69.3625 43.2908L69.3621 43.2142C69.3615 43.0821 69.2535 42.9755 69.1209 42.9762Z" fill="white"/>
<path d="M62.5608 30.5924H62.0952V29.7959C62.0818 29.507 61.9572 29.2343 61.7474 29.0346C61.5375 28.8349 61.2585 28.7234 60.9684 28.7234C60.6782 28.7234 60.3992 28.8349 60.1894 29.0346C59.9795 29.2343 59.855 29.507 59.8416 29.7959V30.3604H59.376V29.7959C59.392 29.3856 59.5667 28.9974 59.8636 28.7128C60.1605 28.4282 60.5564 28.2692 60.9684 28.2692C61.3803 28.2692 61.7763 28.4282 62.0731 28.7128C62.37 28.9974 62.5448 29.3856 62.5608 29.7959V30.5924Z" fill="#263238"/>
<path d="M61.5628 34.8097C61.2984 34.8091 61.0451 34.704 60.8583 34.5174C60.6716 34.3309 60.5668 34.0781 60.5668 33.8146V30.1523C60.5579 30.1171 60.5572 30.0802 60.5648 30.0447C60.5723 30.0091 60.5879 29.9757 60.6104 29.947C60.6328 29.9184 60.6615 29.8952 60.6943 29.8792C60.7271 29.8633 60.7631 29.855 60.7996 29.855C60.8361 29.855 60.8721 29.8633 60.9048 29.8792C60.9376 29.8952 60.9663 29.9184 60.9888 29.947C61.0112 29.9757 61.0268 30.0091 61.0344 30.0447C61.0419 30.0802 61.0412 30.1171 61.0324 30.1523V33.8266C61.0275 33.8992 61.0376 33.972 61.0621 34.0405C61.0866 34.109 61.125 34.1718 61.1748 34.2249C61.2246 34.278 61.2849 34.3204 61.3518 34.3493C61.4188 34.3783 61.491 34.3933 61.564 34.3933C61.637 34.3933 61.7092 34.3783 61.7761 34.3493C61.843 34.3204 61.9033 34.278 61.9531 34.2249C62.003 34.1718 62.0414 34.109 62.0659 34.0405C62.0903 33.972 62.1005 33.8992 62.0956 33.8266V30.3605C62.0867 30.3252 62.086 30.2884 62.0936 30.2528C62.1011 30.2172 62.1167 30.1838 62.1392 30.1551C62.1616 30.1265 62.1903 30.1033 62.2231 30.0873C62.2559 30.0714 62.2919 30.0631 62.3284 30.0631C62.3649 30.0631 62.4009 30.0714 62.4336 30.0873C62.4664 30.1033 62.4951 30.1265 62.5176 30.1551C62.54 30.1838 62.5556 30.2172 62.5632 30.2528C62.5707 30.2884 62.57 30.3252 62.5612 30.3605V33.8146C62.5612 34.0785 62.456 34.3317 62.2687 34.5183C62.0815 34.7049 61.8276 34.8097 61.5628 34.8097Z" fill="#263238"/>
</g>
<defs>
<clipPath id="clip0_7_13841">
<rect width="120" height="89" fill="white"/>
</clipPath>
</defs>
</svg>
