<svg width="169" height="141" viewBox="0 0 169 141" fill="none" xmlns="http://www.w3.org/2000/svg">
<path d="M14.0678 126.028L12.8516 128.456" stroke="#40A87B" stroke-width="3.09" stroke-miterlimit="10"/>
<path d="M20.4698 138.356C20.4698 138.356 -30.3736 -9.52448 62.9306 0.486249C102.894 4.77353 95.4325 30.7837 113.083 55.1194C124.523 70.8941 146.525 57.9898 154.771 71.7738C163.017 85.5577 153.327 124.863 149.928 138.356H20.4698Z" fill="#E5F0F8"/>
<path d="M158.171 46.016C157.848 45.9858 157.523 46.0116 157.208 46.0922L155 45.6196C154.944 45.496 154.859 45.3873 154.753 45.3021C154.647 45.2168 154.523 45.1575 154.39 45.1287C154.332 45.1169 154.273 45.1105 154.214 45.1094C154.048 45.1087 153.885 45.1551 153.744 45.2434C153.603 45.3317 153.49 45.4581 153.418 45.608L151.203 46.0469C150.89 45.9617 150.564 45.931 150.24 45.9562C149.756 45.9526 149.282 46.0929 148.877 46.3594C148.472 46.6259 148.156 47.0066 147.967 47.4534C147.778 47.9002 147.726 48.393 147.817 48.8695C147.908 49.346 148.138 49.7847 148.478 50.1303C148.818 50.4759 149.252 50.7127 149.727 50.8109C150.201 50.9091 150.694 50.8642 151.142 50.682C151.591 50.4997 151.976 50.1882 152.248 49.7869C152.52 49.3855 152.667 48.9124 152.671 48.4273C152.671 48.3206 152.665 48.214 152.652 48.1081L153.009 47.893C153.059 47.8621 153.096 47.813 153.112 47.7558C153.127 47.6986 153.121 47.6376 153.093 47.5853L153.078 47.5593L154.01 46.8397C154.134 46.8687 154.263 46.8687 154.388 46.8397L155.309 47.5728C155.303 47.5814 155.298 47.5901 155.293 47.5988C155.264 47.6507 155.256 47.7117 155.271 47.7692C155.286 47.8267 155.323 47.8762 155.373 47.9075L155.726 48.1283C155.658 48.6222 155.742 49.1251 155.966 49.5702C156.191 50.0152 156.545 50.3811 156.982 50.6192C157.42 50.8572 157.919 50.9561 158.414 50.9025C158.909 50.849 159.376 50.6456 159.752 50.3194C160.129 49.9933 160.397 49.56 160.521 49.0772C160.646 48.5945 160.62 48.0852 160.448 47.6174C160.276 47.1496 159.966 46.7454 159.558 46.4588C159.151 46.1721 158.666 46.0167 158.169 46.0131L158.171 46.016Z" fill="#E5F0F8"/>
<path d="M24.6022 72.5798H20.943C20.8233 72.2224 20.5948 71.9114 20.2896 71.6907C19.9844 71.47 19.6179 71.3505 19.2414 71.3491H18.994C18.6173 71.3505 18.2505 71.47 17.945 71.6907C17.6395 71.9114 17.4107 72.2223 17.2905 72.5798H13.6312C13.5097 72.5798 13.3931 72.6282 13.3071 72.7143C13.2211 72.8004 13.1729 72.9172 13.1729 73.039V79.8031C13.1731 79.9247 13.2215 80.0413 13.3074 80.1271C13.3934 80.213 13.5098 80.2613 13.6312 80.2613H24.6022C24.7236 80.2613 24.8401 80.213 24.926 80.1271C25.0119 80.0413 25.0604 79.9247 25.0606 79.8031V73.039C25.0606 72.9172 25.0123 72.8004 24.9264 72.7143C24.8404 72.6282 24.7238 72.5798 24.6022 72.5798ZM18.992 71.8082H19.2414C19.4954 71.8086 19.744 71.8813 19.9581 72.018C20.1723 72.1546 20.3432 72.3495 20.4509 72.5798H17.7825C17.8902 72.3495 18.0611 72.1546 18.2753 72.018C18.4895 71.8813 18.7381 71.8086 18.992 71.8082Z" fill="#AADFE3"/>
<path d="M21.0315 37.3982L12.5016 43.0773L3.97266 37.3982H21.0315Z" fill="#F2BB16"/>
<path d="M21.0315 37.3982V48.7573H3.97266V37.3982L12.5016 43.0773L21.0315 37.3982Z" fill="#F2BB16"/>
<path d="M3.97266 48.7572L12.5016 43.0771L21.0315 48.7572H3.97266Z" fill="#F2BB16"/>
<path d="M21.6839 37.3982L13.1539 43.0773L4.625 37.3982H21.6839Z" fill="#CBE5E7"/>
<path d="M21.6839 37.3982V48.7573H4.625V37.3982L13.1539 43.0773L21.6839 37.3982Z" fill="#AADFE3"/>
<path d="M4.625 48.7572L13.1539 43.0771L21.6839 48.7572H4.625Z" fill="#CBE5E7"/>
<path d="M23.0332 37.3972C23.0332 37.6643 22.9541 37.9254 22.806 38.1474C22.6579 38.3695 22.4473 38.5426 22.201 38.6448C21.9546 38.747 21.6836 38.7737 21.422 38.7216C21.1605 38.6695 20.9203 38.5409 20.7318 38.352C20.5432 38.1632 20.4148 37.9226 20.3628 37.6607C20.3108 37.3987 20.3375 37.1272 20.4395 36.8805C20.5416 36.6337 20.7144 36.4228 20.9361 36.2745C21.1578 36.1261 21.4184 36.0469 21.6851 36.0469C21.8624 36.0459 22.0382 36.0801 22.2022 36.1476C22.3662 36.2151 22.5152 36.3145 22.6406 36.4401C22.766 36.5657 22.8653 36.715 22.9327 36.8793C23.0001 37.0436 23.0342 37.2196 23.0332 37.3972Z" fill="#40A87B"/>
<path d="M23.0332 37.3972C23.0332 37.6643 22.9541 37.9254 22.806 38.1474C22.6579 38.3695 22.4473 38.5426 22.201 38.6448C21.9546 38.747 21.6836 38.7737 21.422 38.7216C21.1605 38.6695 20.9203 38.5409 20.7318 38.352C20.5432 38.1632 20.4148 37.9226 20.3628 37.6607C20.3108 37.3987 20.3375 37.1272 20.4395 36.8805C20.5416 36.6337 20.7144 36.4228 20.9361 36.2745C21.1578 36.1261 21.4184 36.0469 21.6851 36.0469C21.8624 36.0459 22.0382 36.0801 22.2022 36.1476C22.3662 36.2151 22.5152 36.3145 22.6406 36.4401C22.766 36.5657 22.8653 36.715 22.9327 36.8793C23.0001 37.0436 23.0342 37.2196 23.0332 37.3972Z" fill="#6ADB6A"/>
<path d="M37.4296 29.659V29.8703C37.424 29.8983 37.4246 29.9272 37.4314 29.955C37.4383 29.9827 37.4512 30.0086 37.4693 30.0307C37.4873 30.0529 37.5101 30.0707 37.5359 30.0829C37.5616 30.0952 37.5898 30.1015 37.6184 30.1015C37.6469 30.1015 37.6751 30.0952 37.7009 30.0829C37.7267 30.0707 37.7494 30.0529 37.7675 30.0307C37.7856 30.0086 37.7985 29.9827 37.8053 29.955C37.8122 29.9272 37.8128 29.8983 37.8071 29.8703V29.659C37.8128 29.631 37.8122 29.6021 37.8053 29.5743C37.7985 29.5466 37.7856 29.5207 37.7675 29.4986C37.7494 29.4764 37.7267 29.4586 37.7009 29.4463C37.6751 29.4341 37.6469 29.4277 37.6184 29.4277C37.5898 29.4277 37.5616 29.4341 37.5359 29.4463C37.5101 29.4586 37.4873 29.4764 37.4693 29.4986C37.4512 29.5207 37.4383 29.5466 37.4314 29.5743C37.4246 29.6021 37.424 29.631 37.4296 29.659Z" fill="white"/>
<path d="M30.542 29.6589V29.8701C30.5508 29.9138 30.5745 29.953 30.6089 29.9811C30.6433 30.0093 30.6863 30.0247 30.7307 30.0247C30.7752 30.0247 30.8182 30.0093 30.8526 29.9811C30.887 29.953 30.9106 29.9138 30.9195 29.8701V29.6589C30.9106 29.6153 30.887 29.5761 30.8526 29.5479C30.8182 29.5198 30.7752 29.5044 30.7307 29.5044C30.6863 29.5044 30.6433 29.5198 30.6089 29.5479C30.5745 29.5761 30.5508 29.6153 30.542 29.6589Z" fill="white"/>
<path d="M39.4916 18.7125C37.7698 18.5196 35.894 18.7695 35.5733 17.7094C35.2228 16.552 35.451 14.4368 35.503 13.1347C35.555 11.8326 36.0481 9.17539 34.3619 8.15493C32.6758 7.13447 30.6969 7.43829 29.4595 8.01411C28.4763 8.47129 28.1113 9.13971 28.1113 10.3482C28.1113 11.7265 30.149 14.1726 30.0555 16.8944C30.0344 17.5137 29.992 18.0885 29.9593 18.6084C29.836 20.3715 29.7773 21.4971 30.8086 21.5521C31.265 21.5762 32.2578 21.5829 33.3681 21.5829V22.0546H33.9007V28.6259H32.7682L30.7306 29.4698L32.7682 29.1187H35.5801L37.6177 29.4698L35.5801 28.6259H34.4563V22.0546H34.9888V21.5781C36.6201 21.5694 38.0751 21.5521 38.0751 21.5521H40.7107C40.7107 21.5521 41.2134 18.9064 39.4916 18.7125Z" fill="#AADFE3"/>
<path d="M144.446 106.559H142.352V134.265H144.446V106.559Z" fill="#93ACBF"/>
<path d="M148.635 132.429H138.164V134.265H148.635V132.429Z" fill="#93ACBF"/>
<path d="M146.432 106.16H140.367V107.952H146.432V106.16Z" fill="#93ACBF"/>
<path d="M148.634 132.429L156.227 135.574L148.634 134.265V132.429Z" fill="#93ACBF"/>
<path d="M130.571 137.77C130.664 137.77 130.755 137.752 130.84 137.716C130.926 137.681 131.003 137.629 131.069 137.563C131.134 137.498 131.186 137.42 131.221 137.335C131.256 137.249 131.274 137.157 131.274 137.065V136.279C131.274 136.186 131.256 136.095 131.221 136.009C131.186 135.924 131.134 135.846 131.069 135.78C131.003 135.715 130.926 135.663 130.84 135.627C130.755 135.592 130.664 135.574 130.571 135.574C130.384 135.574 130.205 135.648 130.073 135.78C129.941 135.912 129.867 136.092 129.867 136.279V137.065C129.867 137.252 129.941 137.431 130.073 137.563C130.205 137.696 130.384 137.77 130.571 137.77Z" fill="#93ACBF"/>
<path d="M138.163 132.429L130.57 135.574L138.163 134.265V132.429Z" fill="#93ACBF"/>
<path d="M120.799 64.3449C120.799 69.4791 128.39 78.5909 128.041 88.7289C127.693 98.867 125.86 105.815 130.834 106.078C135.808 106.34 157.927 106.078 157.927 106.078H167.749C167.749 106.078 169.625 96.2232 163.211 95.5027C156.798 94.7822 149.812 95.714 148.617 91.7662C147.308 87.4394 148.159 79.5737 148.356 74.7232C148.552 69.8726 150.384 59.9747 144.102 56.1726C137.819 52.3705 130.451 53.5057 125.843 55.6479C122.173 57.3522 120.799 59.8435 120.799 64.3449Z" fill="#39477A"/>
<path d="M127.671 95.1139C127.671 95.1139 154.743 92.9621 157.011 96.4826C159.28 100.003 157.927 106.078 157.927 106.078L133.844 106.16L127.671 95.1139Z" fill="#39477A"/>
<path d="M124.986 63.2954C124.986 68.0148 130.181 72.8075 131.335 78.5907C132.644 85.1495 131.406 90.5778 132.054 92.6833C132.703 94.7889 135.698 95.7939 138.163 95.7312C146.044 95.5325 155.695 95.9241 157.011 97.9602C159.279 101.481 157.926 106.078 157.926 106.078" stroke="white" stroke-width="2.55" stroke-linecap="round" stroke-linejoin="round"/>
<path d="M119.868 0H53.9585C50.5782 0 47.8379 2.74471 47.8379 6.13048V131.639C47.8379 135.025 50.5782 137.77 53.9585 137.77H119.868C123.249 137.77 125.989 135.025 125.989 131.639V6.13048C125.989 2.74471 123.249 0 119.868 0Z" fill="#93ACBF"/>
<path d="M123.286 0H57.3764C53.9961 0 51.2559 2.74471 51.2559 6.13048V131.639C51.2559 135.025 53.9961 137.77 57.3764 137.77H123.286C126.667 137.77 129.407 135.025 129.407 131.639V6.13048C129.407 2.74471 126.667 0 123.286 0Z" fill="#A0B4E8"/>
<path d="M125.989 125.955L125.989 6.60889L54.6733 6.60889L54.6733 125.955H125.989Z" fill="#93ACBF"/>
<path d="M124.781 7.71045H55.8809V124.853H124.781V7.71045Z" fill="white"/>
<path d="M97.8623 134.234H82.7968C82.1729 134.232 81.5751 133.983 81.1339 133.541C80.6928 133.099 80.4442 132.501 80.4424 131.876C80.4449 131.251 80.6939 130.653 81.135 130.212C81.576 129.771 82.1734 129.522 82.7968 129.52H97.8614C98.4851 129.522 99.0828 129.771 99.5239 130.213C99.9651 130.654 100.214 131.253 100.216 131.878C100.214 132.502 99.9648 133.1 99.5239 133.542C99.083 133.983 98.4857 134.232 97.8623 134.234Z" fill="#93ACBF"/>
<path d="M94.9302 3.98135H82.4772C82.2692 3.98084 82.0699 3.89786 81.9228 3.75056C81.7757 3.60325 81.6929 3.4036 81.6924 3.19528C81.6931 2.98712 81.7761 2.78771 81.9231 2.64061C82.0702 2.49351 82.2694 2.41066 82.4772 2.41016H94.9302C95.1381 2.41041 95.3374 2.49318 95.4845 2.64034C95.6316 2.78749 95.7145 2.98704 95.715 3.19528C95.7148 3.40368 95.632 3.60347 95.4849 3.75083C95.3378 3.8982 95.1383 3.9811 94.9302 3.98135Z" fill="#586773"/>
<path d="M98.1833 3.98135C97.9753 3.98084 97.7759 3.89786 97.6289 3.75056C97.4818 3.60325 97.3989 3.4036 97.3984 3.19528C97.3992 2.98712 97.4822 2.78771 97.6292 2.64061C97.7763 2.49351 97.9754 2.41066 98.1833 2.41016C98.3911 2.41066 98.5903 2.49351 98.7373 2.64061C98.8843 2.78771 98.9673 2.98712 98.9681 3.19528C98.9676 3.4036 98.8847 3.60325 98.7376 3.75056C98.5906 3.89786 98.3912 3.98084 98.1833 3.98135Z" fill="#586773"/>
<path d="M103.7 15.2624C104.067 15.6359 104.554 15.8667 105.075 15.9136C105.595 15.9604 106.116 15.8202 106.543 15.518L108.64 17.6631L109.145 17.1693L107.048 15.0242C107.297 14.6846 107.444 14.2806 107.472 13.8598C107.5 13.439 107.406 13.0192 107.203 12.6498C107 12.2805 106.696 11.9771 106.326 11.7757C105.956 11.5742 105.536 11.483 105.116 11.5129C104.696 11.5428 104.294 11.6925 103.956 11.9443C103.618 12.1962 103.36 12.5396 103.211 12.934C103.062 13.3284 103.029 13.7572 103.116 14.1699C103.202 14.5825 103.405 14.9616 103.7 15.2624ZM106.515 12.5077C106.754 12.7523 106.914 13.0622 106.977 13.3983C107.04 13.7343 107.002 14.0815 106.867 14.3959C106.733 14.7102 106.509 14.9776 106.223 15.1642C105.937 15.3508 105.602 15.4482 105.261 15.4442C104.919 15.4401 104.587 15.3348 104.305 15.1414C104.024 14.9481 103.806 14.6755 103.679 14.358C103.552 14.0406 103.522 13.6926 103.593 13.3581C103.663 13.0236 103.832 12.7176 104.076 12.4788C104.404 12.1607 104.845 11.9854 105.301 11.9908C105.758 11.9962 106.194 12.182 106.515 12.5077Z" fill="#BBDBF3"/>
<path d="M70.6102 11.4277H61.8223V12.6797H70.6102V11.4277Z" fill="#BBDBF3"/>
<path d="M70.6102 13.6392H61.8223V14.8911H70.6102V13.6392Z" fill="#BBDBF3"/>
<path d="M70.6102 15.8501H61.8223V17.102H70.6102V15.8501Z" fill="#BBDBF3"/>
<path d="M117.617 11.5049H114.236V14.8913H117.617V11.5049Z" fill="#BBDBF3"/>
<path d="M121.549 23.5776H59.1133V61.3019H121.549V23.5776Z" fill="white"/>
<path d="M121.549 59.3633V61.302H119.614" stroke="#BBDBF3" stroke-width="3.35" stroke-miterlimit="10"/>
<path d="M115.71 61.3018H63.001" stroke="#BBDBF3" stroke-width="3.35" stroke-miterlimit="10" stroke-dasharray="40.55 40.55"/>
<path d="M61.0479 61.302H59.1133V59.3633" stroke="#BBDBF3" stroke-width="3.35" stroke-miterlimit="10"/>
<path d="M59.1133 55.6024V27.396" stroke="#BBDBF3" stroke-width="3.35" stroke-miterlimit="10" stroke-dasharray="38.99 38.99"/>
<path d="M59.1133 25.5154V23.5776H61.0479" stroke="#BBDBF3" stroke-width="3.35" stroke-miterlimit="10"/>
<path d="M64.9521 23.5776H117.661" stroke="#BBDBF3" stroke-width="3.35" stroke-miterlimit="10" stroke-dasharray="40.55 40.55"/>
<path d="M119.614 23.5776H121.549V25.5154" stroke="#BBDBF3" stroke-width="3.35" stroke-miterlimit="10"/>
<path d="M121.549 29.2769V57.4832" stroke="#BBDBF3" stroke-width="3.35" stroke-miterlimit="10" stroke-dasharray="38.99 38.99"/>
<path d="M121.549 64.0469H59.1133V101.771H121.549V64.0469Z" fill="#E5F0F8"/>
<path d="M121.55 104.516H59.1123V124.853H121.55V104.516Z" fill="#E5F0F8"/>
<path d="M68.7965 66.5083H69.4398V69.9053C69.4494 70.158 69.4009 70.4094 69.2982 70.6403C69.2223 70.8053 69.1108 70.9514 68.9717 71.0682C68.8327 71.1849 68.6696 71.2694 68.4941 71.3155C68.3501 71.3555 68.2016 71.3769 68.0521 71.3791C67.7486 71.3892 67.4503 71.2983 67.2038 71.1206C66.9611 70.9278 66.8038 70.6473 66.7656 70.3394L67.3954 70.1976C67.4214 70.3589 67.4987 70.5074 67.6159 70.621C67.7361 70.7267 67.8923 70.782 68.0521 70.7753C68.1872 70.7812 68.321 70.7477 68.4373 70.6789C68.5324 70.6185 68.6098 70.534 68.6617 70.4339C68.7179 70.3261 68.7544 70.2092 68.7695 70.0886C68.7873 69.9572 68.7963 69.8248 68.7965 69.6922V66.5083Z" fill="white"/>
<path d="M72.7248 71.382C72.3824 71.3853 72.0429 71.3197 71.7262 71.1891C71.4323 71.0688 71.1661 70.8892 70.9443 70.6615C70.7248 70.4332 70.5518 70.1642 70.4349 69.8697C70.1897 69.2348 70.1897 68.5311 70.4349 67.8963C70.552 67.6015 70.725 67.3323 70.9443 67.1034C71.1664 66.8764 71.4325 66.6972 71.7262 66.5768C72.3674 66.3208 73.0822 66.3208 73.7234 66.5768C74.017 66.697 74.2828 66.8762 74.5044 67.1034C74.724 67.332 74.897 67.6013 75.0138 67.8963C75.259 68.5311 75.259 69.2348 75.0138 69.8697C74.8973 70.1644 74.7242 70.4334 74.5044 70.6615C74.2831 70.8894 74.0172 71.069 73.7234 71.1891C73.4068 71.3197 73.0672 71.3853 72.7248 71.382ZM72.7248 70.7782C72.9685 70.7821 73.2102 70.7344 73.4342 70.6383C73.6582 70.5423 73.8594 70.4 74.0248 70.2208C74.1839 70.0463 74.3069 69.8421 74.3869 69.6199C74.5577 69.1448 74.5577 68.625 74.3869 68.1499C74.3069 67.9277 74.1839 67.7235 74.0248 67.549C73.7665 67.2822 73.4332 67.1004 73.0693 67.0277C72.7054 66.955 72.328 66.9949 71.9872 67.142C71.7745 67.2392 71.5831 67.3775 71.4239 67.549C71.2651 67.7237 71.1421 67.9279 71.0618 68.1499C70.8923 68.6252 70.8923 69.1446 71.0618 69.6199C71.1421 69.8419 71.2651 70.0461 71.4239 70.2208C71.5894 70.4001 71.7908 70.5425 72.015 70.6385C72.2391 70.7346 72.481 70.7822 72.7248 70.7782Z" fill="white"/>
<path d="M76.123 66.5084H77.7716C77.9667 66.5064 78.1611 66.531 78.3494 66.5817C78.5135 66.6258 78.6679 66.7001 78.8049 66.8007C78.933 66.8979 79.0363 67.0242 79.1063 67.1691C79.183 67.3342 79.2209 67.5147 79.217 67.6967C79.2273 67.94 79.1458 68.1782 78.9888 68.3642C78.8299 68.5414 78.6263 68.6726 78.3995 68.7442V68.7577C78.5396 68.7657 78.6764 68.8032 78.801 68.8676C78.9246 68.9316 79.035 69.0184 79.1265 69.1232C79.3215 69.35 79.4276 69.64 79.425 69.9392C79.4288 70.1362 79.3839 70.3311 79.2941 70.5064C79.2072 70.6695 79.0843 70.8106 78.9349 70.9192C78.7749 71.0349 78.5955 71.1212 78.4053 71.1738C78.1939 71.2339 77.975 71.2634 77.7553 71.2616H76.1269L76.123 66.5084ZM76.7663 68.4818H77.6445C77.7595 68.4823 77.8741 68.47 77.9864 68.4452C78.0874 68.4228 78.183 68.3805 78.2676 68.3208C78.3484 68.2631 78.4144 68.1871 78.4602 68.0989C78.5101 67.9967 78.5343 67.8838 78.5305 67.77C78.5332 67.5898 78.4686 67.4151 78.3494 67.28C78.2291 67.1411 78.0384 67.0717 77.7793 67.0717H76.7673L76.7663 68.4818ZM76.7663 70.7002H77.711C77.8201 70.6995 77.929 70.6895 78.0365 70.6703C78.1537 70.6505 78.2663 70.6093 78.3687 70.5488C78.4724 70.4875 78.5614 70.4042 78.6296 70.3048C78.7067 70.1824 78.7443 70.0393 78.7375 69.8949C78.7375 69.6132 78.646 69.401 78.4621 69.2602C78.2446 69.1091 77.983 69.0348 77.7187 69.049H76.7663V70.7002Z" fill="white"/>
<path d="M81.5586 66.5083H82.303L83.6973 70.3751H83.7108L85.1553 66.5083H85.8582L83.992 71.2634H83.3892L81.5586 66.5083Z" fill="white"/>
<path d="M87.6121 66.5083H88.1957L90.2266 71.2614H89.4755L88.9998 70.0867H86.7455L86.2765 71.2614H85.5254L87.6121 66.5083ZM88.7677 69.5224L87.8827 67.3407H87.8692L86.9708 69.5224H88.7677Z" fill="white"/>
<path d="M94.1476 67.5355C94.0136 67.3611 93.8386 67.2226 93.6382 67.1323C93.4383 67.0399 93.2209 66.9919 93.0007 66.9915C92.7503 66.9878 92.5021 67.0392 92.2737 67.142C92.0619 67.2395 91.8727 67.3801 91.7181 67.5548C91.5604 67.7349 91.4385 67.9434 91.3589 68.1692C91.2728 68.4119 91.2298 68.6678 91.2318 68.9254C91.2304 69.1675 91.2712 69.4081 91.3521 69.6362C91.429 69.8541 91.5474 70.0549 91.7007 70.2275C91.8557 70.3998 92.0454 70.5372 92.2573 70.6306C92.4928 70.7337 92.7476 70.785 93.0046 70.7811C93.254 70.7868 93.5008 70.7291 93.722 70.6133C93.93 70.4991 94.109 70.3384 94.2449 70.1436L94.788 70.5525C94.7284 70.6273 94.6641 70.6982 94.5954 70.7647C94.4886 70.8705 94.3693 70.9629 94.24 71.0396C94.0724 71.1406 93.8937 71.2218 93.7075 71.2817C93.4742 71.3546 93.2307 71.3895 92.9863 71.3849C92.6362 71.3902 92.2895 71.3171 91.9713 71.1708C91.6803 71.0348 91.4186 70.8431 91.2009 70.6065C90.9916 70.3768 90.8281 70.109 90.7195 69.8176C90.6095 69.534 90.5527 69.2325 90.5519 68.9283C90.5483 68.5808 90.6094 68.2357 90.732 67.9107C90.8459 67.6113 91.0181 67.3375 91.2385 67.1053C91.4588 66.8763 91.7249 66.6965 92.0195 66.5777C92.3386 66.4478 92.6803 66.3823 93.0248 66.3848C93.3407 66.3856 93.6536 66.4471 93.9463 66.5662C94.2395 66.6811 94.4958 66.8738 94.6878 67.1237L94.1476 67.5355Z" fill="white"/>
<path d="M97.0487 66.5083H97.6322L99.6631 71.2614H98.912L98.4363 70.0867H96.182L95.713 71.2614H94.9619L97.0487 66.5083ZM98.2042 69.5224L97.3193 67.3407H97.3058L96.4073 69.5224H98.2042Z" fill="white"/>
<path d="M100.28 66.5083H101.125L103.739 70.4156H103.753V66.5083H104.396V71.2634H103.578L100.937 67.3552H100.924V71.2634H100.28V66.5083Z" fill="white"/>
<path d="M108.921 67.5355C108.787 67.3609 108.612 67.2223 108.412 67.1323C108.212 67.04 107.995 66.9919 107.775 66.9915C107.525 66.9877 107.276 67.0391 107.048 67.142C106.836 67.2395 106.646 67.3801 106.491 67.5548C106.334 67.7348 106.212 67.9434 106.132 68.1692C106.046 68.4119 106.003 68.6678 106.005 68.9254C106.004 69.1675 106.044 69.408 106.125 69.6362C106.202 69.854 106.321 70.0548 106.474 70.2275C106.629 70.3996 106.819 70.537 107.031 70.6306C107.265 70.7323 107.519 70.7826 107.775 70.7782C108.024 70.7837 108.271 70.7259 108.492 70.6104C108.7 70.4963 108.879 70.3355 109.014 70.1406L109.558 70.5496C109.498 70.6241 109.434 70.6949 109.366 70.7618C109.259 70.8676 109.14 70.96 109.01 71.0367C108.843 71.1378 108.664 71.2191 108.478 71.2788C108.245 71.3516 108.002 71.3865 107.758 71.382C107.407 71.3873 107.06 71.3142 106.742 71.1679C106.317 70.9668 105.958 70.6496 105.706 70.2527C105.454 69.8559 105.319 69.3957 105.318 68.9254C105.314 68.5778 105.376 68.2328 105.499 67.9078C105.612 67.6084 105.784 67.3347 106.004 67.1024C106.225 66.8733 106.491 66.6935 106.786 66.5748C107.105 66.4447 107.447 66.3791 107.791 66.3819C108.107 66.3828 108.42 66.4444 108.713 66.5633C109.006 66.6783 109.262 66.8711 109.453 67.1207L108.921 67.5355Z" fill="white"/>
<path d="M111.455 69.2379L109.664 66.5083H110.488L111.783 68.5965L113.116 66.5083H113.9L112.099 69.2379V71.2634H111.455V69.2379Z" fill="white"/>
<path d="M118.722 73.6938H61.9395V74.8889H118.722V73.6938Z" fill="white"/>
<path d="M118.722 76.3667H61.9395V77.5617H118.722V76.3667Z" fill="white"/>
<path d="M118.722 79.0393H61.9395V80.2343H118.722V79.0393Z" fill="white"/>
<path d="M118.722 81.7119H61.9395V82.907H118.722V81.7119Z" fill="white"/>
<path d="M118.722 84.3848H61.9395V85.5798H118.722V84.3848Z" fill="white"/>
<path d="M118.722 87.0574H61.9395V88.2524H118.722V87.0574Z" fill="white"/>
<path d="M118.722 92.4028H61.9395V93.5979H118.722V92.4028Z" fill="white"/>
<path d="M118.722 97.749H61.9395V98.9441H118.722V97.749Z" fill="white"/>
<path d="M118.722 89.73H61.9395V90.925H118.722V89.73Z" fill="white"/>
<path d="M118.722 95.0754H61.9395V96.2705H118.722V95.0754Z" fill="white"/>
<path d="M68.7965 107.403H69.4398V110.801C69.4494 111.053 69.4009 111.305 69.2982 111.536C69.2219 111.701 69.1102 111.846 68.9713 111.963C68.8323 112.08 68.6694 112.164 68.4941 112.211C68.3501 112.251 68.2016 112.272 68.0521 112.275C67.7487 112.284 67.4505 112.193 67.2038 112.016C66.9611 111.823 66.8038 111.542 66.7656 111.234L67.3954 111.093C67.4216 111.254 67.4989 111.403 67.6159 111.517C67.7362 111.622 67.8924 111.677 68.0521 111.67C68.1872 111.676 68.321 111.642 68.4373 111.573C68.532 111.513 68.6093 111.428 68.6617 111.328C68.7176 111.221 68.7541 111.104 68.7695 110.983C68.7873 110.852 68.7963 110.719 68.7965 110.587V107.403Z" fill="white"/>
<path d="M72.7248 112.278C72.3824 112.281 72.0429 112.215 71.7262 112.085C71.4325 111.964 71.1664 111.784 70.9443 111.557C70.725 111.329 70.552 111.06 70.4349 110.765C70.1897 110.13 70.1897 109.426 70.4349 108.791C70.5523 108.497 70.7252 108.228 70.9443 107.999C71.1666 107.772 71.4326 107.593 71.7262 107.471C72.3677 107.217 73.0819 107.217 73.7234 107.471C74.0168 107.592 74.2826 107.772 74.5044 107.999C74.7238 108.227 74.8968 108.496 75.0138 108.791C75.259 109.426 75.259 110.13 75.0138 110.765C74.897 111.06 74.724 111.329 74.5044 111.557C74.2828 111.785 74.017 111.964 73.7234 112.085C73.4068 112.215 73.0672 112.281 72.7248 112.278ZM72.7248 111.673C72.9685 111.677 73.2103 111.63 73.4344 111.534C73.6585 111.438 73.8597 111.296 74.0248 111.116C74.1837 110.942 74.3067 110.738 74.3869 110.515C74.5577 110.04 74.5577 109.521 74.3869 109.046C74.3067 108.823 74.1837 108.619 74.0248 108.444C73.7663 108.177 73.433 107.995 73.0691 107.923C72.7052 107.85 72.3279 107.89 71.9872 108.038C71.7745 108.134 71.5831 108.272 71.4239 108.444C71.2653 108.619 71.1423 108.823 71.0618 109.046C70.8923 109.521 70.8923 110.04 71.0618 110.515C71.1423 110.737 71.2653 110.942 71.4239 111.116C71.5831 111.288 71.7745 111.426 71.9872 111.522C72.219 111.627 72.4707 111.679 72.7248 111.677V111.673Z" fill="white"/>
<path d="M76.123 107.403H77.7716C77.9667 107.401 78.1611 107.426 78.3494 107.477C78.5134 107.521 78.6679 107.595 78.8049 107.695C78.9328 107.793 79.0361 107.92 79.1063 108.065C79.183 108.229 79.2209 108.409 79.217 108.591C79.2274 108.835 79.146 109.073 78.9888 109.26C78.8301 109.437 78.6265 109.568 78.3995 109.639V109.653C78.5396 109.661 78.6764 109.699 78.801 109.763C78.9248 109.827 79.0353 109.914 79.1265 110.019C79.3213 110.245 79.4273 110.535 79.425 110.834C79.429 111.031 79.384 111.226 79.2941 111.402C79.2072 111.565 79.0843 111.706 78.9349 111.815C78.7749 111.93 78.5955 112.017 78.4053 112.069C78.1939 112.129 77.975 112.159 77.7553 112.157H76.1269L76.123 107.403ZM76.7663 109.377H77.6445C77.7595 109.378 77.8741 109.365 77.9864 109.341C78.0874 109.318 78.183 109.276 78.2676 109.216C78.3482 109.158 78.4141 109.082 78.4602 108.994C78.5101 108.892 78.5343 108.779 78.5305 108.665C78.5332 108.485 78.4686 108.311 78.3494 108.175C78.2291 108.037 78.0384 107.967 77.7793 107.967H76.7673L76.7663 109.377ZM76.7663 111.596H77.711C77.8201 111.594 77.9289 111.584 78.0365 111.566C78.1537 111.546 78.2663 111.505 78.3687 111.444C78.4726 111.383 78.5617 111.299 78.6296 111.199C78.7065 111.077 78.7442 110.934 78.7375 110.79C78.7375 110.507 78.6457 110.296 78.4621 110.156C78.2446 110.005 77.983 109.93 77.7187 109.944H76.7663V111.596Z" fill="white"/>
<path d="M81.5586 107.403H82.303L83.6973 111.271H83.7108L85.1553 107.403H85.8582L83.992 112.159H83.3892L81.5586 107.403Z" fill="white"/>
<path d="M87.6121 107.403H88.1957L90.2266 112.157H89.4755L88.9998 110.982H86.7455L86.2765 112.157H85.5254L87.6121 107.403ZM88.7677 110.418L87.8827 108.236H87.8692L86.9708 110.418H88.7677Z" fill="white"/>
<path d="M94.1476 108.43C94.0133 108.256 93.8383 108.118 93.6382 108.028C93.4385 107.935 93.2209 107.887 93.0007 107.887C92.7503 107.883 92.5021 107.935 92.2737 108.038C92.0619 108.135 91.8727 108.276 91.7181 108.45C91.5602 108.63 91.4383 108.839 91.3589 109.065C91.2729 109.307 91.2299 109.563 91.2318 109.82C91.2305 110.062 91.2712 110.303 91.3521 110.532C91.4292 110.75 91.5476 110.95 91.7007 111.123C91.8554 111.295 92.0452 111.433 92.2573 111.525C92.4927 111.629 92.7475 111.68 93.0046 111.677C93.2539 111.683 93.5008 111.625 93.722 111.51C93.93 111.395 94.1089 111.234 94.2449 111.039L94.788 111.449C94.7286 111.524 94.6642 111.594 94.5954 111.66C94.4891 111.767 94.3697 111.859 94.24 111.935C94.0726 112.036 93.8939 112.118 93.7075 112.177C93.4743 112.251 93.2307 112.286 92.9863 112.281C92.6361 112.287 92.2892 112.213 91.9713 112.066C91.3943 111.797 90.9451 111.312 90.7195 110.716C90.6095 110.432 90.5527 110.13 90.5519 109.826C90.5483 109.479 90.6094 109.134 90.732 108.809C90.8457 108.51 91.0179 108.236 91.2385 108.004C91.4588 107.775 91.7249 107.595 92.0195 107.476C92.3386 107.346 92.6803 107.281 93.0248 107.283C93.3407 107.284 93.6536 107.346 93.9463 107.465C94.2397 107.579 94.4961 107.772 94.6878 108.022L94.1476 108.43Z" fill="white"/>
<path d="M97.0487 107.403H97.6322L99.6631 112.157H98.912L98.4363 110.982H96.182L95.713 112.157H94.9619L97.0487 107.403ZM98.2042 110.418L97.3193 108.236H97.3058L96.4073 110.418H98.2042Z" fill="white"/>
<path d="M100.28 107.403H101.125L103.739 111.311H103.753V107.403H104.396V112.159H103.578L100.937 108.251H100.924V112.159H100.28V107.403Z" fill="white"/>
<path d="M108.921 108.43C108.787 108.256 108.612 108.118 108.412 108.028C108.212 107.935 107.995 107.887 107.775 107.887C107.525 107.883 107.276 107.935 107.048 108.037C106.836 108.135 106.646 108.276 106.491 108.45C106.334 108.63 106.212 108.839 106.132 109.065C106.046 109.307 106.003 109.563 106.005 109.82C106.004 110.062 106.045 110.303 106.125 110.532C106.203 110.749 106.321 110.95 106.474 111.123C106.629 111.295 106.819 111.432 107.031 111.525C107.265 111.627 107.519 111.677 107.775 111.673C108.024 111.679 108.271 111.621 108.492 111.506C108.7 111.391 108.879 111.23 109.014 111.035L109.558 111.445C109.499 111.519 109.434 111.59 109.366 111.656C109.26 111.763 109.14 111.855 109.011 111.931C108.843 112.033 108.664 112.114 108.478 112.173C108.245 112.247 108.002 112.282 107.758 112.278C107.407 112.283 107.06 112.209 106.742 112.062C106.165 111.793 105.716 111.308 105.49 110.712C105.38 110.428 105.323 110.126 105.322 109.822C105.319 109.475 105.381 109.13 105.503 108.805C105.617 108.506 105.789 108.232 106.009 108C106.23 107.771 106.496 107.591 106.791 107.472C107.11 107.342 107.452 107.277 107.796 107.279C108.112 107.28 108.425 107.342 108.718 107.461C109.011 107.575 109.267 107.768 109.458 108.018L108.921 108.43Z" fill="white"/>
<path d="M111.455 110.133L109.664 107.403H110.488L111.783 109.491L113.116 107.403H113.9L112.099 110.133V112.159H111.455V110.133Z" fill="white"/>
<path d="M118.722 114.59H61.9395V115.785H118.722V114.59Z" fill="white"/>
<path d="M118.722 117.262H61.9395V118.457H118.722V117.262Z" fill="white"/>
<path d="M118.722 119.935H61.9395V121.13H118.722V119.935Z" fill="white"/>
<path d="M118.722 122.608H61.9395V123.803H118.722V122.608Z" fill="white"/>
<path d="M57.0665 124.489V136.561H85.6559V137.316C85.6559 137.404 85.6212 137.488 85.5595 137.55C85.4977 137.612 85.4139 137.646 85.3266 137.646H17.0324C16.9888 137.647 16.9456 137.639 16.9052 137.622C16.8648 137.606 16.828 137.582 16.797 137.551C16.7659 137.52 16.7412 137.484 16.7243 137.444C16.7073 137.403 16.6985 137.36 16.6982 137.316V123.733C16.6984 123.689 16.7071 123.646 16.724 123.606C16.7409 123.566 16.7656 123.529 16.7966 123.498C16.8277 123.467 16.8645 123.443 16.905 123.427C16.9454 123.41 16.9887 123.402 17.0324 123.402H85.3266C85.414 123.403 85.4978 123.438 85.5595 123.5C85.6212 123.562 85.6559 123.646 85.6559 123.733V124.488L57.0665 124.489Z" fill="#CF3737"/>
<path d="M55.2807 123.403H11.8983C11.701 123.403 11.541 123.564 11.541 123.761V137.286C11.541 137.483 11.701 137.643 11.8983 137.643H55.2807C55.478 137.643 55.6379 137.483 55.6379 137.286V123.761C55.6379 123.564 55.478 123.403 55.2807 123.403Z" fill="#F74242"/>
<path d="M84.8141 124.49H57.0664V136.557H84.8141V124.49Z" fill="white"/>
<path d="M19.1169 135.949C22.1084 135.949 24.5335 133.52 24.5335 130.524C24.5335 127.527 22.1084 125.098 19.1169 125.098C16.1253 125.098 13.7002 127.527 13.7002 130.524C13.7002 133.52 16.1253 135.949 19.1169 135.949Z" fill="#E5F0F8"/>
<path d="M19.1164 135.289C21.7442 135.289 23.8744 133.156 23.8744 130.523C23.8744 127.891 21.7442 125.758 19.1164 125.758C16.4886 125.758 14.3584 127.891 14.3584 130.523C14.3584 133.156 16.4886 135.289 19.1164 135.289Z" fill="white"/>
<path d="M48.1398 125.4H27.752V135.289H48.1398V125.4Z" fill="white"/>
<path d="M29.7324 126.468V134.222" stroke="#E5F0F8" stroke-width="3.94" stroke-miterlimit="10"/>
<path d="M32.0957 126.468V134.222" stroke="#E5F0F8" stroke-width="3.94" stroke-miterlimit="10"/>
<path d="M34.458 126.468V134.222" stroke="#E5F0F8" stroke-width="3.94" stroke-miterlimit="10"/>
<path d="M36.8213 126.468V134.222" stroke="#E5F0F8" stroke-width="3.94" stroke-miterlimit="10"/>
<path d="M39.1846 126.468V134.222" stroke="#E5F0F8" stroke-width="3.94" stroke-miterlimit="10"/>
<path d="M41.5479 126.468V134.222" stroke="#E5F0F8" stroke-width="3.94" stroke-miterlimit="10"/>
<path d="M43.9121 126.468V134.222" stroke="#E5F0F8" stroke-width="3.94" stroke-miterlimit="10"/>
<path d="M58.1151 124.49H57.0664V136.557H58.1151V124.49Z" fill="#586773"/>
<path d="M60.2363 126.321H82.7966" stroke="#E5F0F8" stroke-width="3.94" stroke-miterlimit="10"/>
<path d="M61.501 128.637H84.0603" stroke="#E5F0F8" stroke-width="3.94" stroke-miterlimit="10"/>
<path d="M60.0059 131.285H82.5661" stroke="#E5F0F8" stroke-width="3.94" stroke-miterlimit="10"/>
<path d="M61.501 134.739H84.0603" stroke="#E5F0F8" stroke-width="3.94" stroke-miterlimit="10"/>
<path d="M42.4312 110.235V122.302H13.8418V123.058C13.8418 123.145 13.8765 123.229 13.9383 123.291C14 123.353 14.0838 123.388 14.1711 123.388H82.4653C82.5088 123.388 82.5518 123.38 82.5921 123.363C82.6323 123.347 82.6689 123.323 82.6998 123.292C82.7306 123.261 82.7552 123.225 82.7719 123.185C82.7887 123.145 82.7974 123.102 82.7975 123.058V109.48C82.7974 109.436 82.7887 109.393 82.7719 109.352C82.755 109.312 82.7304 109.276 82.6995 109.245C82.6685 109.214 82.6318 109.19 82.5915 109.173C82.5511 109.157 82.5079 109.148 82.4643 109.149H14.1711C14.0837 109.149 13.9999 109.184 13.9382 109.246C13.8765 109.308 13.8418 109.392 13.8418 109.48V110.235H42.4312Z" fill="#088CFC"/>
<path d="M44.2174 123.389H87.5998C87.7971 123.389 87.957 123.229 87.957 123.031V109.507C87.957 109.309 87.7971 109.149 87.5998 109.149H44.2174C44.0201 109.149 43.8601 109.309 43.8601 109.507V123.031C43.8601 123.229 44.0201 123.389 44.2174 123.389Z" fill="#2EC6FC"/>
<path d="M42.4313 110.235H14.6836V122.302H42.4313V110.235Z" fill="white"/>
<path d="M80.3825 121.694C83.374 121.694 85.7991 119.265 85.7991 116.269C85.7991 113.272 83.374 110.843 80.3825 110.843C77.3909 110.843 74.9658 113.272 74.9658 116.269C74.9658 119.265 77.3909 121.694 80.3825 121.694Z" fill="#E5F0F8"/>
<path d="M81.468 120.913C84.0255 120.308 85.6095 117.741 85.0058 115.18C84.4022 112.618 81.8396 111.032 79.2821 111.636C76.7246 112.241 75.1407 114.808 75.7443 117.369C76.348 119.931 78.9106 121.517 81.468 120.913Z" fill="white"/>
<path d="M51.3583 121.033H71.7461V111.144H51.3583V121.033Z" fill="white"/>
<path d="M69.7666 112.212V119.966" stroke="#E5F0F8" stroke-width="3.94" stroke-miterlimit="10"/>
<path d="M67.4033 112.212V119.966" stroke="#E5F0F8" stroke-width="3.94" stroke-miterlimit="10"/>
<path d="M65.04 112.212V119.966" stroke="#E5F0F8" stroke-width="3.94" stroke-miterlimit="10"/>
<path d="M62.6768 112.212V119.966" stroke="#E5F0F8" stroke-width="3.94" stroke-miterlimit="10"/>
<path d="M60.3135 112.212V119.966" stroke="#E5F0F8" stroke-width="3.94" stroke-miterlimit="10"/>
<path d="M57.9502 112.212V119.966" stroke="#E5F0F8" stroke-width="3.94" stroke-miterlimit="10"/>
<path d="M55.5869 112.212V119.966" stroke="#E5F0F8" stroke-width="3.94" stroke-miterlimit="10"/>
<path d="M41.383 122.302H42.4316V110.235H41.383V122.302Z" fill="#586773"/>
<path d="M39.2614 112.065H16.7021" stroke="#E5F0F8" stroke-width="3.94" stroke-miterlimit="10"/>
<path d="M37.9978 114.381H15.4375" stroke="#E5F0F8" stroke-width="3.94" stroke-miterlimit="10"/>
<path d="M39.4919 117.03H16.9316" stroke="#E5F0F8" stroke-width="3.94" stroke-miterlimit="10"/>
<path d="M37.9978 120.485H15.4375" stroke="#E5F0F8" stroke-width="3.94" stroke-miterlimit="10"/>
<path d="M110.538 62.4921C111.122 62.805 111.807 62.8735 112.442 62.6827C113.077 62.4919 113.61 62.0572 113.926 61.4736L118.828 52.3521C119.14 51.7665 119.209 51.0807 119.018 50.4447C118.827 49.8087 118.393 49.2742 117.81 48.958C117.226 48.6438 116.541 48.5746 115.906 48.7655C115.271 48.9565 114.737 49.392 114.422 49.9765L109.521 59.098C109.208 59.6835 109.14 60.3691 109.331 61.005C109.521 61.641 109.955 62.1756 110.538 62.4921Z" fill="#F74242"/>
<path d="M112.864 62.8278C114.109 62.2259 114.694 60.8331 114.164 59.7326L108.331 50.8591C108.193 50.5108 108.081 50.1526 107.996 49.7875C107.831 48.9985 107.13 46.9084 106.829 47.0116C106.529 47.1148 106.72 48.6455 106.559 48.5847C106.399 48.524 105.996 47.436 105.861 46.9576C105.726 46.4792 105.603 45.4086 105.332 45.3054C105.06 45.2022 104.812 45.5504 104.812 45.5504C104.812 45.5504 104.812 45.1356 104.556 45.1838C104.301 45.2321 104.137 45.8773 104.137 45.8773C104.137 45.8773 104.162 45.6468 103.889 45.7703C103.617 45.8937 103.707 46.9364 103.707 46.9364C103.695 46.9103 103.677 46.8872 103.655 46.8691C103.633 46.8509 103.607 46.8382 103.579 46.8317C103.551 46.8253 103.522 46.8254 103.494 46.832C103.466 46.8386 103.44 46.8515 103.418 46.8698C103.226 46.9923 103.493 48.3484 103.986 49.2261C104.427 50.0103 105.682 51.757 105.946 52.1197L109.631 61.9211C110.166 63.0207 111.619 63.4296 112.864 62.8278Z" fill="#FDAE97"/>
<path d="M123.001 41.749C123.001 41.749 124.301 42.6991 124.019 44.6599C123.737 46.6208 123.579 47.6818 124.816 47.7831C126.054 47.8843 128.532 47.1455 128.734 48.8035C128.935 50.4615 127.771 51.5678 129.51 51.8736C131.249 52.1793 131.491 54.4276 131.491 54.4276C131.491 54.4276 125.265 58.3542 119.347 54.7488C113.428 51.1434 119.732 48.6559 119.732 48.6559L123.001 41.749Z" fill="#322A28"/>
<path d="M126.782 96.2183H106.488V97.2956H126.782V96.2183Z" fill="#322A28"/>
<path d="M128.816 110.358H108.522V111.436H128.816V110.358Z" fill="#322A28"/>
<path d="M130.38 124.498H110.708V125.575H130.38V124.498Z" fill="#322A28"/>
<path d="M112.83 138.384H111.683L104.979 86.3091H106.125L112.83 138.384Z" fill="#322A28"/>
<path d="M132.422 138.384H131.275L124.571 86.3091H125.718L132.422 138.384Z" fill="#322A28"/>
<path d="M117.861 138.384H119.008L125.712 86.3091H124.565L117.861 138.384Z" fill="#322A28"/>
<path d="M98.2695 138.384H99.4164L106.121 86.3091H104.974L98.2695 138.384Z" fill="#322A28"/>
<path d="M125.534 86.3091H105.24V87.3864H125.534V86.3091Z" fill="#322A28"/>
<path d="M122.888 71.8709C120.962 73.7613 116.621 74.9178 111.74 74.4635C106.86 74.0092 103.691 74.0439 103.691 74.0439C102.618 74.0439 101.59 73.6171 100.831 72.8574C100.073 72.0977 99.6465 71.0674 99.6465 69.993C99.6465 68.9186 100.073 67.8882 100.831 67.1285C101.59 66.3688 102.618 65.942 103.691 65.942L122.089 65.3633L122.888 71.8709Z" fill="#0775EF"/>
<path d="M122.039 47.9221L126.418 49.9081C126.418 49.9081 125.444 61.1929 125.343 62.4314C125.242 63.6698 125.62 65.5313 125.62 65.5313H115.124C115.124 65.5313 115.249 59.4828 114.546 57.7949C114.065 56.651 113.741 55.9546 114.018 54.6448C114.294 53.335 116.319 51.0173 115.993 48.7497L118.276 48.0166L122.039 47.9221Z" fill="#F74242"/>
<path d="M127.562 64.7509C128.213 64.6275 128.789 64.251 129.164 63.7036C129.539 63.1562 129.683 62.4825 129.564 61.8294L127.671 51.6451C127.548 50.9927 127.172 50.4158 126.626 50.0401C126.079 49.6644 125.407 49.5205 124.755 49.6398C124.103 49.7635 123.528 50.1401 123.153 50.6874C122.778 51.2347 122.634 51.9083 122.753 52.5613L124.645 62.7457C124.768 63.3981 125.144 63.9753 125.69 64.351C126.237 64.7268 126.91 64.8705 127.562 64.7509Z" fill="#F74242"/>
<path d="M117.5 41.863C117.5 41.863 116.826 40.4298 118.232 39.908L117.5 41.863Z" fill="#322A28"/>
<path d="M122.057 47.9221C122.011 48.0041 121.216 49.3447 119.713 49.2328C118.384 49.1364 118.284 48.0127 118.284 48.0127V42.9133H121.52L122.057 47.9221Z" fill="#FDAE97"/>
<path d="M118.281 47.4322L120.538 44.9736L118.28 45.8234L118.281 47.4322Z" fill="#E89780"/>
<path d="M120.488 45.8474C119.467 46.5226 118.224 46.594 117.447 46.1291C116.67 45.6642 116.73 44.5029 116.914 43.7564V43.7506C116.953 43.5963 117.011 43.3783 117.068 43.1323L117.652 40.7384C117.797 39.9861 119.831 38.1998 121.96 40.2706C124.089 42.3414 121.509 45.1684 120.488 45.8474Z" fill="#FDAE97"/>
<path d="M117.703 40.4347C117.703 40.4347 117.778 41.324 119.051 41.8516C120.324 42.3792 121.555 43.2241 121.481 44.5522C121.407 45.8804 121.893 46.5922 121.893 46.5922C121.893 46.5922 121.989 44.9438 122.74 43.5115C123.029 42.956 123.251 41.8053 122.666 40.8552C121.749 39.3506 119.52 38.2944 117.703 40.4347Z" fill="#322A28"/>
<path d="M121.258 44.2762C121.011 44.6871 120.951 44.9726 121.272 45.1665C121.457 45.2675 121.674 45.2933 121.878 45.2383C122.081 45.1833 122.256 45.0519 122.365 44.8713C122.612 44.4604 122.551 43.9705 122.229 43.7766C121.906 43.5827 121.508 43.8653 121.258 44.2762Z" fill="#FDAE97"/>
<path d="M121.976 44.5337C121.898 44.5005 121.814 44.4845 121.729 44.4869C121.645 44.4892 121.562 44.5098 121.486 44.5472C121.642 44.0852 122.194 44.2385 122.194 44.2385" stroke="#E89780" stroke-width="0.62" stroke-linecap="round" stroke-linejoin="round"/>
<path d="M119.341 43.166C119.301 43.3464 119.174 43.4727 119.058 43.4467C118.941 43.4206 118.879 43.2538 118.918 43.0724C118.958 42.8911 119.085 42.7657 119.207 42.7918C119.329 42.8178 119.381 42.9847 119.341 43.166Z" fill="#322A28"/>
<path d="M117.83 42.6848C117.789 42.8651 117.662 42.9915 117.541 42.9655C117.419 42.9394 117.362 42.7726 117.401 42.5912C117.44 42.4099 117.569 42.2845 117.685 42.3106C117.802 42.3366 117.869 42.5035 117.83 42.6848Z" fill="#322A28"/>
<path d="M119.832 42.8931C119.832 42.8931 119.569 42.3626 119.11 42.432" stroke="#2C3447" stroke-width="0.92" stroke-miterlimit="10"/>
<path d="M114.679 58.1825C114.679 58.1825 113.908 56.4965 113.933 55.2282C113.958 53.9598 114.823 52.8545 114.823 52.8545" stroke="white" stroke-width="1.23" stroke-miterlimit="10"/>
<path d="M106.305 91.6284H113.088L107.715 70.0232L107.708 69.948C107.636 68.9017 107.161 67.9244 106.383 67.2227C105.604 66.5209 104.584 66.1496 103.538 66.1872C102.491 66.2247 101.5 66.6682 100.774 67.424C100.048 68.1797 99.6438 69.1885 99.6465 70.2373C99.6465 70.3598 99.653 70.4821 99.6658 70.6039L106.305 91.6284Z" fill="#2A458F"/>
<path d="M105.553 95.4988L104.757 96.2183H112.773L112.59 95.4988L112.045 93.2245L111.548 91.6292H107.284L108.07 93.2245L105.553 95.4988Z" fill="#FDAE97"/>
<path d="M112.773 96.2194H104.759C104.77 96.0065 104.802 95.7951 104.855 95.5886C105.031 94.9115 105.426 94.3121 105.979 93.884C106.531 93.4559 107.21 93.2233 107.909 93.2227H112.049L112.592 95.5008L112.612 95.5886L112.773 96.2194Z" fill="#088CFF"/>
<path d="M109.052 94.1069H107.71" stroke="white" stroke-width="0.81" stroke-miterlimit="10"/>
<path d="M108.626 94.6299H107.283" stroke="white" stroke-width="0.81" stroke-miterlimit="10"/>
<path d="M110.03 94.4553C110.03 94.568 110.064 94.6782 110.126 94.772C110.189 94.8657 110.278 94.9388 110.382 94.9819C110.486 95.0251 110.6 95.0364 110.71 95.0144C110.821 94.9924 110.922 94.9381 111.002 94.8584C111.081 94.7786 111.136 94.6771 111.158 94.5665C111.18 94.4559 111.168 94.3413 111.125 94.2371C111.082 94.133 111.009 94.044 110.916 93.9813C110.822 93.9187 110.712 93.8853 110.599 93.8853C110.525 93.8853 110.451 93.9 110.382 93.9286C110.313 93.9573 110.25 93.9993 110.197 94.0522C110.144 94.1051 110.102 94.168 110.074 94.2371C110.045 94.3063 110.03 94.3804 110.03 94.4553Z" fill="white"/>
<path d="M117.928 42.0866C117.928 42.0866 117.676 41.9786 117.333 42.2024" stroke="#2C3447" stroke-width="0.92" stroke-miterlimit="10"/>
<path d="M124.989 105.768H131.77L129.618 84.1627L129.612 84.0885C129.539 83.0426 129.064 82.0657 128.287 81.364C127.509 80.6624 126.49 80.2908 125.443 80.3277C124.397 80.3646 123.407 80.8072 122.68 81.5619C121.954 82.3167 121.548 83.3246 121.55 84.373C121.55 84.4951 121.556 84.6171 121.568 84.7386L124.989 105.768Z" fill="#1B3375"/>
<path d="M112.773 96.2192H104.759C104.77 96.0062 104.802 95.7949 104.855 95.5884H112.612L112.773 96.2192Z" fill="white"/>
<path d="M118.369 42.8313C118.369 42.8313 118.151 43.7225 117.599 43.7158C117.688 43.8358 117.8 43.937 117.928 44.0138" stroke="#2C3447" stroke-width="0.92" stroke-miterlimit="10"/>
<path d="M125.62 65.5273C127.698 67.2509 129.116 70.9286 129.176 75.839C129.236 80.7493 129.597 83.8985 129.597 83.8985C129.709 84.967 129.393 86.0363 128.718 86.8713C128.043 87.7063 127.064 88.2384 125.997 88.3507C124.931 88.463 123.863 88.1462 123.029 87.4701C122.196 86.794 121.664 85.8138 121.552 84.7453L118.414 65.5254L125.62 65.5273Z" fill="#1B3375"/>
<path d="M117.678 44.739C117.678 44.739 118.206 45.1142 118.769 44.5625" stroke="#2C3447" stroke-width="0.92" stroke-miterlimit="10"/>
<path d="M120.141 43.9394C120.156 44.1323 119.863 44.3127 119.487 44.3436C119.11 44.3744 118.792 44.2471 118.777 44.0542C118.762 43.8613 119.053 43.681 119.43 43.6501C119.806 43.6192 120.124 43.7475 120.141 43.9394Z" fill="#E89780"/>
<path d="M118.056 46.7153H61.6934V80.7705H118.056V46.7153Z" fill="#93ACBF"/>
<path d="M119.203 46.7153H62.8398V80.7705H119.203V46.7153Z" fill="#AADFE3"/>
<path d="M71.5815 48.9368H72.1593V52.0039C72.1679 52.2319 72.1244 52.4589 72.0321 52.6675C71.9634 52.8167 71.8627 52.9489 71.7372 53.0548C71.6118 53.1606 71.4646 53.2375 71.3061 53.28C71.1758 53.3157 71.0415 53.3348 70.9064 53.3369C70.6327 53.3459 70.3636 53.2642 70.1409 53.1044C69.9219 52.9299 69.7799 52.6765 69.7451 52.3984L70.3142 52.2701C70.337 52.417 70.407 52.5525 70.5136 52.6559C70.6218 52.7512 70.7625 52.8009 70.9064 52.7948C71.0284 52.8009 71.1495 52.7715 71.255 52.71C71.3404 52.6551 71.4101 52.579 71.4573 52.4891C71.5073 52.3913 71.5399 52.2856 71.5536 52.1766C71.5694 52.058 71.5774 51.9384 71.5776 51.8187L71.5815 48.9368Z" fill="white"/>
<path d="M75.1286 53.3368C74.8193 53.3406 74.5125 53.2818 74.2263 53.1641C73.9612 53.0558 73.7213 52.894 73.5215 52.6886C73.323 52.4823 73.1666 52.2392 73.0612 51.9729C72.8403 51.3997 72.8403 50.7647 73.0612 50.1915C73.1669 49.9256 73.3232 49.6829 73.5215 49.4768C73.7215 49.2714 73.9614 49.1093 74.2263 49.0003C74.8056 48.7701 75.4507 48.7701 76.03 49.0003C76.2949 49.1093 76.5348 49.2714 76.7349 49.4768C76.9331 49.6827 77.0892 49.9255 77.1942 50.1915C77.4163 50.7645 77.4163 51.4 77.1942 51.9729C77.0894 52.2394 76.9333 52.4825 76.7349 52.6886C76.535 52.894 76.2951 53.0558 76.03 53.1641C75.7442 53.2818 75.4376 53.3405 75.1286 53.3368ZM75.1286 52.7918C75.3487 52.7958 75.5671 52.7529 75.7694 52.6661C75.9718 52.5794 76.1535 52.4506 76.3025 52.2883C76.446 52.1311 76.557 51.9468 76.6289 51.7463C76.7817 51.3171 76.7817 50.8483 76.6289 50.4191C76.5568 50.2184 76.4458 50.0339 76.3025 49.8761C76.1522 49.7148 75.9704 49.5862 75.7684 49.4982C75.5663 49.4103 75.3484 49.3649 75.1281 49.3649C74.9079 49.3649 74.6899 49.4103 74.4879 49.4982C74.2859 49.5862 74.1041 49.7148 73.9538 49.8761C73.8108 50.0341 73.6999 50.2186 73.6274 50.4191C73.4746 50.8483 73.4746 51.3171 73.6274 51.7463C73.6997 51.9466 73.8106 52.1308 73.9538 52.2883C74.1028 52.451 74.2845 52.58 74.4871 52.6668C74.6897 52.7536 74.9083 52.7962 75.1286 52.7918Z" fill="white"/>
<path d="M78.1951 48.9366H79.6839C79.8585 48.9351 80.0324 48.9575 80.201 49.0031C80.3488 49.0413 80.4883 49.1067 80.6122 49.196C80.7282 49.2836 80.8216 49.3977 80.8847 49.5288C80.9529 49.6781 80.9858 49.8412 80.981 50.0053C80.9902 50.225 80.9167 50.4402 80.7749 50.6081C80.6316 50.768 80.448 50.8863 80.2434 50.9505V50.963C80.3695 50.9695 80.4928 51.0023 80.6054 51.0595C80.7153 51.1176 80.8132 51.1958 80.8943 51.29C81.0702 51.4946 81.166 51.756 81.164 52.0259C81.1677 52.2042 81.127 52.3806 81.0455 52.5391C80.9672 52.6861 80.8566 52.8134 80.7219 52.9114C80.5764 53.0163 80.4134 53.0943 80.2405 53.1419C80.0493 53.1952 79.8515 53.2215 79.6531 53.22H78.1826L78.1951 48.9366ZM78.7729 50.719H79.5654C79.6691 50.7194 79.7725 50.7081 79.8736 50.6853C79.965 50.6655 80.0515 50.6275 80.1278 50.5734C80.2002 50.521 80.2593 50.4523 80.3002 50.3728C80.3452 50.2807 80.367 50.1791 80.3637 50.0766C80.3665 49.9139 80.3084 49.756 80.201 49.6339C80.0922 49.5085 79.9198 49.441 79.6858 49.441H78.7729V50.719ZM78.7729 52.7194H79.6251C79.7236 52.7183 79.8218 52.7092 79.9188 52.6924C80.0246 52.6746 80.1261 52.6374 80.2183 52.5825C80.3123 52.5273 80.3929 52.4518 80.4543 52.3616C80.5235 52.2509 80.5571 52.1216 80.5505 51.9912C80.5581 51.8829 80.5395 51.7743 80.4962 51.6748C80.453 51.5752 80.3864 51.4876 80.3021 51.4193C80.1053 51.2812 79.8679 51.2132 79.628 51.2264H78.7691L78.7729 52.7194Z" fill="white"/>
<path d="M83.1035 48.9368H83.7776L85.0362 52.4283H85.0487L86.3554 48.9368H86.991L85.301 53.2269H84.7559L83.1035 48.9368Z" fill="white"/>
<path d="M88.5672 48.9368H89.0939L90.9235 53.2279H90.2494L89.82 52.1669H87.7804L87.3577 53.2279H86.6836L88.5672 48.9368ZM89.6081 51.6586L88.8098 49.6891H88.7973L87.9865 51.6586H89.6081Z" fill="white"/>
<path d="M94.4669 49.8647C94.3458 49.7074 94.1876 49.5824 94.0066 49.5011C93.8256 49.4171 93.6284 49.3736 93.4288 49.3738C93.2026 49.3705 92.9784 49.4169 92.7721 49.5098C92.5807 49.5978 92.4098 49.7249 92.2704 49.8831C92.1281 50.0453 92.018 50.2332 91.9459 50.4367C91.8685 50.656 91.8297 50.887 91.8313 51.1196C91.8303 51.3384 91.8671 51.5557 91.9401 51.762C92.0098 51.9584 92.1168 52.1395 92.255 52.2953C92.3949 52.4508 92.5663 52.5748 92.7577 52.659C92.9703 52.751 93.2001 52.7964 93.4317 52.7921C93.6571 52.7972 93.88 52.7451 94.0798 52.6406C94.2676 52.5374 94.429 52.3922 94.5516 52.2162L95.0418 52.5856C94.9896 52.6539 94.9326 52.7183 94.8714 52.7786C94.7752 52.8741 94.6679 52.9577 94.5516 53.0274C94.4001 53.1184 94.2385 53.1916 94.0702 53.2454C93.8598 53.3123 93.64 53.3449 93.4192 53.3418C93.1034 53.347 92.7904 53.281 92.5034 53.1489C91.9799 52.9066 91.5722 52.4681 91.3681 51.9279C91.2692 51.6718 91.218 51.3999 91.2169 51.1254C91.2139 50.8114 91.2694 50.4997 91.3806 50.2062C91.4828 49.936 91.638 49.689 91.8371 49.4799C92.0359 49.2727 92.2765 49.1103 92.5429 49.0034C92.8312 48.8876 93.1394 48.8299 93.45 48.8337C93.7353 48.8344 94.0177 48.8901 94.282 48.9976C94.5467 49.1009 94.7779 49.275 94.9503 49.5011L94.4669 49.8647Z" fill="white"/>
<path d="M97.0876 48.9368H97.6134L99.443 53.2279H98.769L98.3395 52.1669H96.2999L95.8762 53.2279H95.2021L97.0876 48.9368ZM98.1286 51.6586L97.3293 49.6891H97.3178L96.506 51.6586H98.1286Z" fill="white"/>
<path d="M100.004 48.9368H100.766L103.126 52.465H103.138V48.9368H103.716V53.2269H102.978L100.593 49.6997H100.582V53.2269H100.004V48.9368Z" fill="white"/>
<path d="M107.804 49.8647C107.683 49.7073 107.525 49.5824 107.344 49.5011C107.163 49.417 106.965 49.3736 106.766 49.3738C106.54 49.3704 106.316 49.4168 106.11 49.5097C105.918 49.5975 105.747 49.7247 105.607 49.883C105.465 50.0453 105.355 50.2332 105.283 50.4366C105.205 50.6559 105.167 50.887 105.168 51.1195C105.167 51.3383 105.204 51.5557 105.277 51.7619C105.347 51.9583 105.454 52.1394 105.592 52.2953C105.732 52.4508 105.903 52.5747 106.095 52.6589C106.307 52.7509 106.537 52.7963 106.769 52.792C106.994 52.7972 107.217 52.7451 107.417 52.6406C107.605 52.5374 107.766 52.3921 107.889 52.2162L108.379 52.5856C108.327 52.6536 108.27 52.718 108.209 52.7785C108.113 52.8738 108.005 52.9574 107.889 53.0274C107.737 53.1186 107.576 53.1917 107.407 53.2453C107.197 53.3122 106.978 53.3448 106.757 53.3418C106.441 53.3468 106.128 53.2809 105.84 53.1489C105.457 52.9675 105.133 52.6809 104.905 52.3224C104.678 51.9639 104.556 51.5482 104.555 51.1234C104.552 50.8095 104.607 50.4978 104.718 50.2042C104.82 49.934 104.975 49.6871 105.174 49.4779C105.373 49.2707 105.613 49.1083 105.88 49.0014C106.168 48.8858 106.476 48.8281 106.787 48.8317C107.072 48.8325 107.355 48.8881 107.619 48.9957C107.884 49.0989 108.115 49.2731 108.287 49.4991L107.804 49.8647Z" fill="white"/>
<path d="M110.091 51.3943L108.47 48.9329H109.214L110.382 50.8185L111.586 48.9329H112.295L110.673 51.3943V53.2269H110.095L110.091 51.3943Z" fill="white"/>
<path d="M116.652 55.4241H65.3916V56.5034H116.652V55.4241Z" fill="white"/>
<path d="M116.652 57.8374H65.3916V58.9167H116.652V57.8374Z" fill="white"/>
<path d="M116.652 60.2495H65.3916V61.3288H116.652V60.2495Z" fill="white"/>
<path d="M116.652 62.6628H65.3916V63.7421H116.652V62.6628Z" fill="white"/>
<path d="M116.652 65.0752H65.3916V66.1545H116.652V65.0752Z" fill="white"/>
<path d="M116.652 67.4883H65.3916V68.5676H116.652V67.4883Z" fill="white"/>
<path d="M116.652 72.3137H65.3916V73.393H116.652V72.3137Z" fill="white"/>
<path d="M116.652 77.1392H65.3916V78.2185H116.652V77.1392Z" fill="white"/>
<path d="M116.652 69.9004H65.3916V70.9797H116.652V69.9004Z" fill="white"/>
<path d="M116.652 74.7271H65.3916V75.8063H116.652V74.7271Z" fill="white"/>
<path d="M117.309 43.6377C117.253 43.7429 117.101 43.7805 116.915 43.7506C116.954 43.5963 117.011 43.3783 117.069 43.1323C117.277 43.303 117.381 43.5056 117.309 43.6377Z" fill="#E89780"/>
<path d="M110.12 58.0264C110.247 57.7959 110.565 58.0592 110.565 58.0592C110.565 58.0592 110.454 57.6464 110.705 57.5017C110.956 57.357 111.861 57.9367 112.318 58.1344C112.775 58.3322 113.87 58.7074 114.019 58.6167C114.167 58.526 112.863 57.711 112.971 57.413C113.079 57.1149 115.141 57.8894 115.86 58.2598C116.196 58.4246 116.544 58.5639 116.901 58.6765L127.457 59.7558C128.643 60.0393 129.352 61.3733 129.031 62.7207C128.71 64.0682 127.477 64.9391 126.29 64.6498L116.371 61.3202C115.921 61.2942 113.777 61.1649 112.891 61.0116C111.899 60.8399 110.676 60.1927 110.708 59.9651C110.708 59.9368 110.715 59.909 110.727 59.8837C110.74 59.8585 110.758 59.8364 110.781 59.8191C110.803 59.8018 110.829 59.7899 110.856 59.7841C110.884 59.7783 110.913 59.7788 110.94 59.7857C110.94 59.7857 110.073 59.1973 110.152 58.907C110.231 58.6167 110.391 58.7826 110.391 58.7826C110.391 58.7826 109.994 58.2579 110.12 58.0264Z" fill="#FDAE97"/>
<path d="M124.526 42.1297C125.141 41.6655 125.078 40.5422 124.385 39.6207C123.692 38.6993 122.631 38.3286 122.016 38.7928C121.401 39.257 121.464 40.3803 122.158 41.3018C122.851 42.2232 123.911 42.5939 124.526 42.1297Z" fill="#322A28"/>
<path d="M121.123 45.174C121.11 45.2336 121.116 45.2955 121.138 45.3519C121.161 45.4083 121.2 45.4567 121.25 45.491C121.3 45.5253 121.36 45.5439 121.42 45.5445C121.481 45.5452 121.541 45.5277 121.591 45.4945C121.642 45.4612 121.682 45.4136 121.706 45.3576C121.73 45.3017 121.737 45.2399 121.725 45.1801C121.714 45.1203 121.685 45.0652 121.643 45.0217C121.6 44.9782 121.546 44.9483 121.487 44.9358C121.447 44.9275 121.406 44.927 121.367 44.9345C121.327 44.942 121.289 44.9572 121.255 44.9793C121.222 45.0014 121.192 45.03 121.17 45.0634C121.147 45.0969 121.131 45.1344 121.123 45.174V45.174Z" stroke="white" stroke-width="0.81" stroke-miterlimit="10"/>
<path d="M124.258 109.639L123.462 110.358H130.896L130.861 109.639L130.749 107.364L130.671 105.768H126.407L126.775 107.364L124.258 109.639Z" fill="#FDAE97"/>
<path d="M130.895 110.357H123.463L123.53 110.021C123.551 109.924 123.577 109.828 123.607 109.731C123.811 109.049 124.23 108.451 124.8 108.025C125.371 107.6 126.063 107.371 126.775 107.371H130.753L130.86 109.644L130.865 109.731L130.895 110.357Z" fill="#088CFC"/>
<path d="M127.757 108.247H126.414" stroke="white" stroke-width="0.81" stroke-miterlimit="10"/>
<path d="M127.332 108.769H125.989" stroke="white" stroke-width="0.81" stroke-miterlimit="10"/>
<path d="M128.736 108.59C128.736 108.703 128.769 108.813 128.832 108.907C128.894 109.001 128.983 109.074 129.087 109.118C129.191 109.161 129.306 109.172 129.416 109.15C129.527 109.128 129.628 109.074 129.708 108.994C129.788 108.915 129.842 108.813 129.864 108.702C129.886 108.592 129.874 108.477 129.831 108.373C129.788 108.268 129.715 108.179 129.621 108.117C129.527 108.054 129.417 108.021 129.304 108.021C129.154 108.021 129.01 108.082 128.903 108.188C128.797 108.295 128.737 108.439 128.736 108.59Z" fill="white"/>
<path d="M124.057 59.6659L123.238 55.2368" stroke="white" stroke-width="1.23" stroke-miterlimit="10"/>
<path d="M130.895 110.357H123.463L123.53 110.021C123.551 109.924 123.577 109.828 123.607 109.731H130.863L130.895 110.357Z" fill="white"/>
<path d="M162.598 137.768H6.18743C5.34448 137.768 4.66113 138.453 4.66113 139.297V139.47C4.66113 140.315 5.34448 140.999 6.18743 140.999H162.598C163.441 140.999 164.125 140.315 164.125 139.47V139.297C164.125 138.453 163.441 137.768 162.598 137.768Z" fill="#C8B6D4"/>
<path d="M51.405 48.3755L51.1239 49.4442L48.1387 48.5867C48.2422 47.9295 48.295 47.2652 48.2966 46.5998C48.2821 45.6527 48.546 43.0765 48.9158 43.1179C49.2856 43.1594 49.4637 44.9601 49.6332 44.8541C49.8027 44.748 49.9808 43.3928 50.0107 42.8112C50.0405 42.2296 52.471 42.2267 52.471 42.2267C52.4784 42.1944 52.4928 42.1641 52.5134 42.1382C52.534 42.1122 52.5602 42.0912 52.5899 42.0768C52.6197 42.0623 52.6524 42.0548 52.6855 42.0547C52.7186 42.0546 52.7512 42.062 52.7811 42.0762C53.0353 42.165 53.0767 43.7883 52.7416 44.9216C52.4065 46.0549 51.405 48.3755 51.405 48.3755Z" fill="#FDAE97"/>
<path d="M49.9123 60.7223C49.5858 62.0639 48.0769 62.8577 46.5593 62.4864C45.0416 62.115 44.069 60.7136 44.3964 59.3729L47.6956 47.8652L51.6042 48.6812L49.9123 60.7223Z" fill="#F74242"/>
<path d="M32.37 89.4678H42.8047V74.0123H32.37V89.4678Z" fill="#E5F0F8"/>
<path d="M48.5917 62.275C47.9112 62.6591 47.1066 62.7578 46.3537 62.5497C45.6007 62.3415 44.9606 61.8433 44.5732 61.1639L39.2548 51.7734C38.8713 51.0918 38.7728 50.2859 38.9806 49.5317C39.1885 48.7775 39.6859 48.1364 40.3641 47.7484C41.0448 47.3643 41.8495 47.2655 42.6026 47.4737C43.3557 47.6819 43.996 48.1801 44.3835 48.8595L49.702 58.2501C50.0854 58.9318 50.1838 59.7378 49.9758 60.492C49.7677 61.2461 49.2701 61.8872 48.5917 62.275Z" fill="#F74242"/>
<path d="M42.8046 65.5786L45.9053 83.3527C46.1116 83.9387 46.1878 84.5626 46.1284 85.1811C46.0691 85.7995 45.8757 86.3975 45.5617 86.9334C45.2478 87.4692 44.8208 87.9299 44.3107 88.2834C43.8006 88.6369 43.2196 88.8745 42.6083 88.9798C41.997 89.0851 41.3701 89.0555 40.7714 88.893C40.1727 88.7306 39.6166 88.4392 39.1419 88.0392C38.6673 87.6392 38.2856 87.1403 38.0234 86.5772C37.7612 86.0142 37.6248 85.4006 37.6238 84.7793L32.6328 65.5786H42.8046Z" fill="#2A458F"/>
<path d="M28.7222 65.4146L38.5694 63.8521L37.7895 78.0363L36.5857 80.9636L36.0975 85.1679L27.584 84.9634L28.7222 65.4146Z" fill="#2A458F"/>
<path d="M46.1087 85.4397C46.191 84.8597 46.1532 84.2689 45.9977 83.7042C45.8421 83.1395 45.5722 82.6129 45.2046 82.1572C44.8371 81.7015 44.3798 81.3265 43.8613 81.0555C43.3428 80.7845 42.7741 80.6233 42.1907 80.5819C41.6073 80.5406 41.0217 80.62 40.4702 80.8152C39.9188 81.0104 39.4133 81.3172 38.9854 81.7165C38.5575 82.1158 38.2162 82.5991 37.9828 83.1363C37.7494 83.6734 37.629 84.2529 37.6289 84.8388L37.8812 105.016H45.0697L46.1087 85.4397Z" fill="#2A458F"/>
<path d="M36.0499 84.5659C35.8729 83.4473 35.2594 82.445 34.3446 81.7793C33.4297 81.1137 32.2884 80.8393 31.1716 81.0165C28.846 81.3849 27.7232 82.5597 27.5836 84.9623C27.2581 90.543 26.7949 104.867 26.7949 104.867L34.2531 104.848L36.0971 85.1716C36.0959 84.9688 36.0801 84.7664 36.0499 84.5659Z" fill="#2A458F"/>
<path d="M38.2959 45.4636L42.8045 47.4978V65.8332H28.698L27.5771 47.6666L33.6833 45.1289L38.2959 45.4636Z" fill="white"/>
<path d="M38.2943 42.5988V45.4634C38.2943 45.4634 38.1228 46.0817 36.6688 46.0875C35.2147 46.0932 33.6836 45.1229 33.6836 45.1229L34.1333 38.8584L38.2943 42.5988Z" fill="#FDAE97"/>
<path d="M38.2959 45.0708L35.3252 41.9815L38.2959 41.9429V45.0708Z" fill="#E89780"/>
<path d="M39.2897 36.8349L39.5266 39.8249L39.6075 40.8512C39.672 41.6633 39.5401 42.8844 38.6503 43.2355C37.7606 43.5865 36.4808 43.3049 35.5332 42.4253C34.5857 41.5456 32.3092 37.4098 34.8775 35.6119C37.4457 33.814 39.1934 36.4211 39.2897 36.8349Z" fill="#FDAE97"/>
<path d="M35.1452 35.4451C35.1452 35.4451 38.2844 33.6809 39.1145 34.6098C39.9446 35.5386 38.7187 35.9833 38.7187 35.9833C38.7187 35.9833 40.2595 35.6765 40.2816 36.7308C40.3038 37.785 36.3017 36.6603 36.3017 36.6603C36.3017 36.6603 37.6373 37.1426 36.9286 37.6673C36.2198 38.192 35.3195 37.6528 35.3195 37.6528C35.3195 37.6528 34.6136 38.1351 34.8881 40.0699C35.1625 42.0047 33.8615 42.4012 33.8615 42.4012C33.8615 42.4012 33.9444 39.5693 33.3136 38.8324C32.6829 38.0955 33.2867 35.094 35.1452 35.4451Z" fill="#322A28"/>
<path d="M35.1067 40.5068C35.462 40.9775 35.5747 41.3199 35.203 41.5996C34.9894 41.7473 34.7271 41.807 34.4707 41.7662C34.2143 41.7255 33.9834 41.5874 33.826 41.3806C33.4706 40.9099 33.4812 40.3013 33.851 40.0216C34.2208 39.7419 34.7514 40.0351 35.1067 40.5068Z" fill="#FDAE97"/>
<path d="M34.0889 40.5493C34.0889 40.5493 34.4837 40.4576 34.7976 40.9486C34.61 40.9286 34.4203 40.9436 34.2381 40.9929" stroke="#E89780" stroke-width="0.75" stroke-miterlimit="10"/>
<path d="M37.1526 39.3119C37.1671 39.5 37.2778 39.6447 37.3991 39.635C37.5205 39.6254 37.6071 39.4653 37.5917 39.2772C37.5763 39.0891 37.4656 38.9444 37.3442 38.9541C37.2229 38.9637 37.1401 39.1238 37.1526 39.3119Z" fill="#322A28"/>
<path d="M37.3594 41.4319C37.3594 41.4319 37.7359 42.0434 38.5515 41.8283" stroke="#332B27" stroke-width="0.93" stroke-miterlimit="10"/>
<path d="M37.9932 39.3608L38.5006 40.5298C38.526 40.5874 38.5312 40.6518 38.5155 40.7127C38.4998 40.7736 38.464 40.8275 38.414 40.8655L38.0943 41.1124" stroke="#332B27" stroke-width="0.93" stroke-miterlimit="10"/>
<path d="M36.6572 38.7667C36.6572 38.7667 37.0954 38.406 37.5528 38.5738" stroke="#332B27" stroke-width="0.93" stroke-miterlimit="10"/>
<path d="M39.428 39.1314C39.4424 39.3195 39.3558 39.4796 39.2354 39.4893C39.115 39.4989 39.0033 39.3542 38.9889 39.1661C38.9744 38.9781 39.0602 38.818 39.1815 38.8083C39.3028 38.7987 39.4126 38.9433 39.428 39.1314Z" fill="#322A28"/>
<path d="M39.4784 38.5248C39.3679 38.4435 39.236 38.3964 39.0991 38.3893C38.9622 38.3823 38.8262 38.4157 38.708 38.4852" stroke="#332B27" stroke-width="0.93" stroke-miterlimit="10"/>
<path d="M25.2502 63.6918C24.4943 63.4943 23.8471 63.0052 23.4501 62.3312C23.0532 61.6573 22.9387 60.8534 23.1317 60.0951L25.828 49.6417C26.0251 48.8843 26.5136 48.236 27.1867 47.8383C27.8598 47.4407 28.6627 47.3262 29.4198 47.5197C30.1759 47.7172 30.8233 48.2065 31.2203 48.8807C31.6172 49.5549 31.7316 50.359 31.5383 51.1174L28.842 61.5699C28.6449 62.3272 28.1563 62.9756 27.4833 63.3732C26.8102 63.7709 26.0073 63.8854 25.2502 63.6918Z" fill="#F74242"/>
<path d="M33.0766 45.3806C33.0766 45.3806 35.7797 51.295 35.9886 56.8719C36.1976 62.4487 35.9886 72.5791 35.9886 72.5791H27.5771V47.6665L33.0766 45.3806Z" fill="#E01B36"/>
<path d="M37.4968 40.5204C37.4525 40.6979 37.1309 40.7702 36.7785 40.6824C36.426 40.5947 36.1766 40.3796 36.2209 40.2002C36.2652 40.0208 36.5859 39.9504 36.9383 40.0381C37.2908 40.1259 37.5382 40.3429 37.4968 40.5204Z" fill="#E89780"/>
<path d="M38.6426 45.6196C38.6426 45.6196 39.8675 56.4425 39.8145 59.7614C39.7615 63.0803 40.0764 71.7455 40.0764 71.7455H44.1469C44.1469 71.7455 44.3 66.595 44.1469 63.3687C43.9938 60.1424 42.8045 47.4975 42.8045 47.4975L38.6426 45.6196Z" fill="#E01B36"/>
<path d="M39.5266 39.8289L39.5786 40.4963C39.3003 40.5513 39.0643 40.4963 39.0143 40.3487C38.9584 40.178 39.1866 39.9456 39.5266 39.8289Z" fill="#E89780"/>
<path d="M33.854 78.1502C33.7288 78.4675 33.2348 78.4067 33.2348 78.4067C33.2348 78.4067 33.593 78.7337 33.3494 78.915C33.1231 79.0877 32.5126 78.7848 32.4336 78.7453C32.475 78.7809 32.5983 78.9121 32.321 79.0346C32.0157 79.1667 31.254 78.3595 31.1827 78.2852C31.1936 78.3155 31.1977 78.3479 31.1946 78.3799C31.1915 78.412 31.1813 78.443 31.1649 78.4707C31.1484 78.4983 31.126 78.522 31.0993 78.54C31.0725 78.5579 31.0422 78.5697 31.0104 78.5745C30.7494 78.6459 29.7951 77.3525 29.4253 76.2366C29.1153 75.2952 28.6376 73.043 28.4951 72.3688L31.4495 71.249C31.6337 71.6272 31.8479 71.9901 32.0898 72.3341C32.6397 73.0999 33.8867 75.3453 33.5593 75.5238C33.2319 75.7022 32.0687 74.3365 31.9955 74.5226C31.9223 74.7088 32.5434 75.9105 32.8458 76.4005C33.1481 76.8905 33.9753 77.8377 33.854 78.1502Z" fill="#FDAE97"/>
<path d="M38.4424 106.709L38.5117 104.956L44.3463 104.952L44.2981 106.709H38.4424Z" fill="#FDAE97"/>
<path d="M44.3049 106.18L38.5117 104.956L44.3463 104.952L44.3049 106.18Z" fill="#E89780"/>
<path d="M27.3584 106.708V104.867H32.9253L32.7375 106.708H27.3584Z" fill="#FDAE97"/>
<path d="M32.8097 106L27.3584 104.867H32.9253L32.8097 106Z" fill="#E89780"/>
<path d="M28.658 59.8031C28.2362 58.4789 26.6656 57.7863 25.1672 58.2599C23.6689 58.7335 22.7887 60.214 23.2115 61.5393L28.137 74.078L32.8796 72.4084C32.8873 72.4094 28.658 59.8031 28.658 59.8031Z" fill="#F74242"/>
<path d="M37.4749 40.0593C37.7681 40.0042 37.9504 39.6637 37.882 39.2988C37.8136 38.9338 37.5205 38.6827 37.2272 38.7378C36.934 38.793 36.7517 39.1335 36.8201 39.4984C36.8885 39.8633 37.1816 40.1144 37.4749 40.0593Z" stroke="#F7E7DC" stroke-width="1.05" stroke-miterlimit="10"/>
<path d="M39.5752 39.1691C39.6407 39.5144 39.4789 39.8327 39.2228 39.8819C38.9666 39.9311 38.6999 39.689 38.6354 39.3466C38.5708 39.0042 38.7316 38.683 38.9888 38.6338C39.2459 38.5846 39.5107 38.8248 39.5752 39.1691Z" stroke="#F7E7DC" stroke-width="1.05" stroke-miterlimit="10"/>
<path d="M37.8662 39.2327L38.6241 39.1401" stroke="#F7E7DC" stroke-width="1.05" stroke-miterlimit="10"/>
<path d="M38.2578 109.149H46.4295L46.4199 108.784C46.4199 108.731 46.4151 108.678 46.4102 108.625C46.3591 108.099 46.1136 107.61 45.7217 107.256C45.3298 106.901 44.8198 106.706 44.2917 106.709H38.4369L38.2925 108.625L38.2578 109.149Z" fill="#332B27"/>
<path d="M38.2578 109.149H46.4295L46.4199 108.784C46.4199 108.731 46.4151 108.678 46.4102 108.625H38.2963L38.2578 109.149Z" fill="white"/>
<path d="M44.0859 107.313C44.0859 107.313 44.2641 106.534 44.7042 106.745C45.1442 106.957 44.1139 107.341 44.1139 107.341L44.7263 107.765" stroke="white" stroke-width="0.51" stroke-linecap="round" stroke-linejoin="round"/>
<path d="M44.0857 107.313C44.0857 107.313 43.9076 106.534 43.4685 106.745C43.0293 106.957 44.0578 107.341 44.0578 107.341L43.4463 107.765" stroke="white" stroke-width="0.51" stroke-linecap="round" stroke-linejoin="round"/>
<path d="M25.0371 109.149H32.5704L32.6089 108.625L32.7389 106.708H27.3579C26.8147 106.708 26.289 106.9 25.8739 107.251C25.4588 107.602 25.1811 108.089 25.0901 108.625C25.0715 108.704 25.0602 108.784 25.0564 108.865L25.0371 109.149Z" fill="#332B27"/>
<path d="M25.0371 109.149H32.5704L32.6089 108.625H25.0901C25.0715 108.704 25.0602 108.784 25.0564 108.865L25.0371 109.149Z" fill="white"/>
<path d="M26.9268 107.313C26.9268 107.313 27.1049 106.534 27.545 106.745C27.9851 106.957 26.9547 107.341 26.9547 107.341L27.5671 107.765" stroke="white" stroke-width="0.51" stroke-linecap="round" stroke-linejoin="round"/>
<path d="M26.9275 107.313C26.9275 107.313 26.7494 106.534 26.3103 106.745C25.8711 106.957 26.8996 107.341 26.8996 107.341L26.2881 107.765" stroke="white" stroke-width="0.51" stroke-linecap="round" stroke-linejoin="round"/>
<path d="M44.4043 38.9009L45.7939 38.8035L45.8754 39.9696L44.4858 40.067C44.4306 40.0709 44.3762 40.0527 44.3345 40.0163C44.2927 39.98 44.2671 39.9285 44.2632 39.8733L44.2111 39.1268C44.2088 39.0992 44.2119 39.0714 44.2204 39.0451C44.2289 39.0188 44.2426 38.9944 44.2605 38.9734C44.2785 38.9524 44.3005 38.9351 44.3252 38.9227C44.3498 38.9103 44.3767 38.9029 44.4043 38.9009Z" fill="#F2BB16"/>
<path d="M51.6536 40.9616L48.6494 41.47L48.8169 42.4629L51.8211 41.9544L51.6536 40.9616Z" fill="#F9E181"/>
<path d="M48.7312 41.9795L51.7337 41.4596L51.6846 41.1211L48.6455 41.4731L48.7312 41.9795Z" fill="#F2BB16"/>
<path d="M60.4653 45.6893C59.3955 44.7248 55.9847 42.0242 54.0058 41.5159C52.6249 41.1609 50.7115 41.323 49.6725 41.4609L49.5762 40.18C51.3538 40.1472 52.9186 39.2579 55.8008 40.8359C57.4043 41.7155 58.9297 42.731 60.3604 43.8712L60.4653 45.6893Z" fill="#088CFC"/>
<path d="M49.5751 40.1799C49.1025 40.1939 48.6307 40.1317 48.1778 39.9957C45.756 39.2617 45.9823 36.5986 45.9939 36.4819C46.5981 35.8655 47.4077 35.4933 48.2684 35.4364C48.3377 35.4296 48.4022 35.4267 48.4706 35.4248C48.4706 35.4248 48.7595 35.4364 49.2246 35.4248L49.5751 40.1799Z" fill="#F9E181"/>
<path d="M60.3604 43.871C58.9309 42.7319 57.4067 41.7174 55.8046 40.8385C52.9225 39.2606 51.3577 40.1498 49.58 40.1826L49.2314 35.4218C50.2782 35.4035 52.1954 35.2887 53.5108 34.7321C55.3905 33.9412 58.3603 30.7776 59.2761 29.6655L59.9935 37.6652L60.3604 43.871Z" fill="#2EC6FC"/>
<path d="M60.5805 45.7312C61.1692 45.6878 61.3811 42.0419 61.0538 37.5879C60.7265 33.1339 59.9838 29.5584 59.3951 29.6018C58.8064 29.6452 58.5945 33.2911 58.9218 37.7451C59.2491 42.1991 59.9918 45.7746 60.5805 45.7312Z" fill="#F9E181"/>
<path d="M60.6689 44.8056C60.3801 44.8269 60.2414 44.0032 59.9419 42.7358C59.6673 41.5098 59.4686 40.2681 59.3468 39.0176C59.3015 38.5922 59.2621 38.1582 59.2293 37.7203C59.1966 37.2824 59.1735 36.8522 59.1552 36.4278C59.0942 35.17 59.1106 33.9095 59.2043 32.6537C59.3121 31.3554 59.3314 30.5211 59.6212 30.4999C59.9111 30.4787 60.0488 31.3024 60.3464 32.5688C60.668 33.9384 60.9241 35.7218 61.058 37.5843C61.1918 39.4468 61.2053 41.2495 61.0869 42.6509C60.9752 43.9491 60.9569 44.7835 60.6689 44.8056Z" fill="#F2BB16"/>
<path d="M60.2896 38.8865L60.1279 38.9077L59.3469 39.0176C59.3016 38.5923 59.2622 38.1582 59.2294 37.7204C59.1967 37.2825 59.1736 36.8523 59.1553 36.4279L60.0219 36.4202H60.1125C60.2651 36.419 60.4126 36.4759 60.525 36.5794C60.6374 36.6828 60.7065 36.8252 60.7182 36.9777L60.8145 38.246C60.826 38.3999 60.7779 38.5523 60.6802 38.6716C60.5824 38.7908 60.4426 38.8678 60.2896 38.8865Z" fill="#F9E181"/>
<path d="M51.4705 41.7044L49.0449 42.2939L50.5253 48.4043L52.9509 47.8148L51.4705 41.7044Z" fill="#F9E181"/>
<path d="M49.0811 42.4206L51.5491 42.0039L49.1908 42.8729L49.0811 42.4206Z" fill="#F2BB16"/>
<path d="M50.4176 47.9346L52.8433 47.3452L50.2559 47.269L50.4176 47.9346Z" fill="#F2BB16"/>
<path d="M53.0031 47.3111L50.249 47.9805L50.4311 48.7322L53.1852 48.0628L53.0031 47.3111Z" fill="#F9E181"/>
<path d="M60.29 38.8865L60.1282 38.9077C59.9634 38.0892 59.9261 37.2501 60.0175 36.4202H60.108C60.2607 36.419 60.4081 36.4759 60.5205 36.5794C60.633 36.6828 60.702 36.8252 60.7137 36.9777L60.81 38.246C60.8216 38.3991 60.7742 38.5509 60.6774 38.6701C60.5807 38.7892 60.442 38.8667 60.29 38.8865Z" fill="#F9ECB8"/>
<path d="M49.6711 41.4598C49.2157 41.5216 48.9268 41.5727 48.9268 41.5727V41.5669C48.8595 41.5777 48.7916 41.5851 48.7236 41.5891C46.8785 41.727 45.2743 40.4567 45.1452 38.7592C45.1174 38.3412 45.1786 37.9221 45.3249 37.5296C45.4711 37.1372 45.6991 36.7804 45.9936 36.4829C45.982 36.5996 45.7557 39.2627 48.1776 39.9966C48.6305 40.1324 49.1023 40.1942 49.5748 40.1799L49.6711 41.4598Z" fill="#F2BB16"/>
<path d="M50.3161 44.6727C50.2782 44.5471 50.2915 44.4116 50.353 44.2958C50.4145 44.1799 50.5193 44.0932 50.6445 44.0545L52.6349 43.4449C52.7602 43.4066 52.8955 43.4197 53.0112 43.4811C53.1269 43.5426 53.2135 43.6475 53.2522 43.7728C53.2904 43.8985 53.2772 44.0343 53.2157 44.1504C53.1542 44.2664 53.0492 44.3533 52.9238 44.392L50.9343 45.0016C50.8088 45.0393 50.6735 45.0259 50.5578 44.9644C50.442 44.9028 50.3552 44.798 50.3161 44.6727Z" fill="#FDAE97"/>
<path d="M50.3129 45.554C50.2753 45.4284 50.2887 45.293 50.3502 45.1773C50.4117 45.0615 50.5163 44.9747 50.6413 44.9358L52.6308 44.3262C52.7563 44.2885 52.8916 44.3019 53.0074 44.3634C53.1231 44.425 53.2099 44.5298 53.249 44.6551C53.2869 44.7807 53.2736 44.9162 53.2121 45.032C53.1506 45.1479 53.0458 45.2346 52.9207 45.2734L50.9302 45.8829C50.8048 45.9209 50.6695 45.9076 50.5539 45.846C50.4382 45.7843 50.3516 45.6794 50.3129 45.554Z" fill="#FDAE97"/>
<path d="M50.413 42.7136C50.3749 42.588 50.388 42.4524 50.4496 42.3365C50.5111 42.2206 50.6161 42.1339 50.7414 42.0954L52.7309 41.4858C52.8563 41.4476 52.9917 41.4608 53.1074 41.5224C53.2231 41.5841 53.3097 41.6892 53.3481 41.8147C53.3863 41.9402 53.3733 42.0757 53.3119 42.1916C53.2506 42.3075 53.1459 42.3943 53.0207 42.433L51.0303 43.0425C50.9049 43.0802 50.7697 43.0668 50.6541 43.0052C50.5386 42.9436 50.4519 42.8389 50.413 42.7136Z" fill="#FDAE97"/>
<path d="M50.3454 43.7208C50.3075 43.5952 50.3208 43.4597 50.3823 43.3438C50.4438 43.228 50.5486 43.1412 50.6738 43.1025L52.6633 42.4929C52.7888 42.455 52.9242 42.4682 53.04 42.5298C53.1558 42.5914 53.2426 42.6964 53.2815 42.8218C53.3191 42.9474 53.3057 43.0828 53.2442 43.1986C53.1827 43.3144 53.0781 43.4012 52.9531 43.4401L50.9627 44.0497C50.8373 44.0873 50.7021 44.0739 50.5865 44.0124C50.4709 43.9508 50.3843 43.846 50.3454 43.7208Z" fill="#FDAE97"/>
<path d="M46.3929 52.4092L45.3096 56.1872" stroke="white" stroke-width="1.71" stroke-miterlimit="10"/>
<path d="M32.8791 72.4122L29.0195 60.8823L30.8549 53.7651" stroke="white" stroke-width="1.71" stroke-miterlimit="10"/>
<path d="M156.482 18.9644L144.398 27.0094L132.316 18.9644H156.482Z" fill="#F2BB16"/>
<path d="M156.482 18.9645L144.398 10.9185L132.316 18.9645H156.482Z" fill="#F2BB16"/>
<path d="M155.519 1.50659H133.184V31.9603H155.519V1.50659Z" fill="#E5F0F8"/>
<path d="M151.857 3.2138C151.795 3.13297 151.714 3.06895 151.622 3.02765C151.531 2.98596 151.433 2.96394 151.333 2.96303C151.217 2.9614 151.103 2.9851 150.998 3.03248C150.9 3.0782 150.813 3.14392 150.742 3.22538C150.67 3.3082 150.614 3.40411 150.577 3.50799C150.537 3.6198 150.518 3.73759 150.518 3.85617C150.518 3.96758 150.537 4.07821 150.574 4.18315C150.609 4.28335 150.663 4.37573 150.734 4.45514C150.805 4.53428 150.893 4.59767 150.99 4.64129C151.098 4.68741 151.215 4.7104 151.333 4.70881C151.448 4.7112 151.561 4.68467 151.663 4.63165C151.759 4.57905 151.841 4.50513 151.904 4.41559L152.153 4.6085C152.127 4.64262 152.098 4.67485 152.067 4.70495C152.018 4.75378 151.963 4.79623 151.904 4.8313C151.827 4.87799 151.744 4.91553 151.658 4.94319C151.551 4.97665 151.439 4.99261 151.326 4.99045C151.165 4.99351 151.006 4.96056 150.859 4.894C150.664 4.80128 150.499 4.65519 150.383 4.47259C150.267 4.28999 150.205 4.07831 150.204 3.86196C150.202 3.7019 150.23 3.5429 150.287 3.39321C150.339 3.25529 150.418 3.12931 150.52 3.02283C150.621 2.91742 150.744 2.83459 150.879 2.77977C151.027 2.72122 151.184 2.69206 151.342 2.69393C151.488 2.6944 151.631 2.72255 151.766 2.77688C151.901 2.82999 152.019 2.91865 152.107 3.03344L151.857 3.2138Z" fill="#BBDBF3"/>
<path d="M140.653 5.86914H134.51V13.1638H140.653V5.86914Z" fill="#BBDBF3"/>
<path d="M140.653 2.74121H134.51V2.95051H140.653V2.74121Z" fill="white"/>
<path d="M140.653 3.17236H134.51V3.38166H140.653V3.17236Z" fill="white"/>
<path d="M140.653 3.60352H134.51V3.81282H140.653V3.60352Z" fill="white"/>
<path d="M138.127 4.03467H134.51V4.24397H138.127V4.03467Z" fill="white"/>
<path d="M139.143 28.8708C139.119 28.8708 139.095 28.8661 139.073 28.857C139.051 28.8478 139.031 28.8344 139.014 28.8175C138.997 28.8005 138.984 28.7804 138.975 28.7583C138.966 28.7362 138.961 28.7125 138.961 28.6886V28.486C138.961 28.4621 138.966 28.4384 138.975 28.4162C138.984 28.3941 138.997 28.374 139.014 28.3571C139.031 28.3402 139.051 28.3268 139.073 28.3176C139.095 28.3084 139.119 28.3037 139.143 28.3037C139.191 28.304 139.237 28.3233 139.271 28.3574C139.305 28.3916 139.324 28.4378 139.324 28.486V28.6886C139.324 28.7367 139.305 28.783 139.271 28.8171C139.237 28.8513 139.191 28.8706 139.143 28.8708Z" fill="#BBDBF3"/>
<path d="M138.174 27.4934L140.132 28.3046L138.174 27.966V27.4934Z" fill="#BBDBF3"/>
<path d="M137.093 20.8188H136.553V27.9659H137.093V20.8188Z" fill="#BBDBF3"/>
<path d="M138.174 27.4934H135.473V27.967H138.174V27.4934Z" fill="#BBDBF3"/>
<path d="M136.618 20.7168H135.053V21.1788H136.618V20.7168Z" fill="#BBDBF3"/>
<path d="M133.513 28.8708C133.561 28.8708 133.608 28.8516 133.642 28.8175C133.676 28.7833 133.695 28.7369 133.695 28.6886V28.486C133.695 28.4377 133.676 28.3913 133.642 28.3571C133.608 28.3229 133.561 28.3037 133.513 28.3037C133.465 28.304 133.419 28.3233 133.385 28.3574C133.351 28.3916 133.332 28.4378 133.332 28.486V28.6886C133.332 28.7367 133.351 28.783 133.385 28.8171C133.419 28.8513 133.465 28.8706 133.513 28.8708Z" fill="#BBDBF3"/>
<path d="M135.472 27.4934L133.514 28.3046L135.472 27.966V27.4934Z" fill="#BBDBF3"/>
<path d="M137.263 14.3431C137.263 14.3431 132.439 14.1097 132.256 17.5695C132.073 21.0292 135.481 22.7229 138.455 21.6021C142.582 20.0473 142.282 15.1283 137.263 14.3431Z" fill="#F9E181"/>
<path d="M134.981 18.782L134.973 17.4529L136.529 17.6834L134.981 18.782Z" fill="#2D628C"/>
<path d="M144.683 14.7116L145.044 14.4685C145.044 14.4685 145.483 14.3074 145.635 14.2312C145.755 14.1744 145.88 14.1298 146.009 14.0981C146.044 14.0981 146.105 14.1541 146.09 14.1859C145.997 14.2796 145.896 14.3651 145.788 14.4415L145.49 14.6759C145.49 14.6759 146.205 14.6122 146.443 14.5794C146.578 14.5601 146.967 14.483 146.986 14.5794C147.001 14.6498 146.611 14.7723 146.479 14.8128C146.346 14.8534 145.99 14.972 145.99 14.972L146.695 14.8611C146.823 14.8408 147.198 14.7328 147.223 14.836C147.248 14.9392 146.871 15.0173 146.748 15.0578L146.056 15.2884L146.795 15.1919C146.897 15.1784 147.197 15.0955 147.214 15.1919C147.232 15.2884 146.919 15.3327 146.817 15.3607L146.12 15.5469L146.658 15.4899C146.714 15.4842 146.886 15.4716 146.891 15.5276C146.896 15.6047 146.666 15.6394 146.59 15.6597L145.963 15.8256C145.913 15.8384 145.861 15.8455 145.809 15.8468L144.86 15.979L144.683 14.7116Z" fill="#FDAE97"/>
<path d="M137.06 16.9541L143.03 18.7587C143.243 18.7854 143.448 18.8585 143.631 18.9729C143.813 19.0873 143.968 19.2402 144.085 19.4209C144.202 19.6016 144.278 19.8058 144.308 20.0191C144.338 20.2324 144.321 20.4496 144.258 20.6556C144.196 20.8617 144.089 21.0515 143.945 21.2118C143.802 21.3721 143.625 21.499 143.427 21.5837C143.229 21.6683 143.015 21.7087 142.8 21.7019C142.586 21.695 142.375 21.6412 142.183 21.5442L135.48 20.1023L137.06 16.9541Z" fill="#0775EF"/>
<path d="M144.321 20.7157C144.35 20.5146 144.338 20.3096 144.284 20.1136C144.231 19.9175 144.137 19.7346 144.01 19.5763C143.883 19.418 143.725 19.2876 143.545 19.1934C143.365 19.0992 143.168 19.0432 142.965 19.0288C142.763 19.0145 142.56 19.0421 142.368 19.1099C142.177 19.1778 142.002 19.2844 141.854 19.4232C141.705 19.562 141.587 19.7299 141.507 19.9164C141.426 20.103 141.385 20.3042 141.386 20.5074L141.473 27.1066H143.929L144.321 20.7157Z" fill="#0775EF"/>
<path d="M135.821 20.3367L140.607 22.2214C141.015 22.3806 141.469 22.3716 141.87 22.1965C142.271 22.0213 142.586 21.6942 142.747 21.2867C142.906 20.8786 142.897 20.4241 142.723 20.0225C142.548 19.6208 142.222 19.3048 141.815 19.1436L137.029 17.2589C136.621 17.0999 136.168 17.1088 135.767 17.2837C135.365 17.4586 135.05 17.7854 134.888 18.1926C134.73 18.6008 134.738 19.0554 134.913 19.4571C135.088 19.8588 135.414 20.175 135.821 20.3367Z" fill="#088CFC"/>
<path d="M138.063 10.8931L139.623 11.5962L139.408 17.9447L134.973 18.0141L134.301 11.4834L136.466 10.7764L138.063 10.8931Z" fill="#E5F0F8"/>
<path d="M138.061 9.97483V10.9664C138.061 10.9664 138.003 11.1805 137.499 11.1824C136.995 11.1843 136.466 10.8506 136.466 10.8506L136.621 8.68237L138.061 9.97483Z" fill="#FDAE97"/>
<path d="M138.063 10.8314L137.034 9.76276L138.063 9.74829V10.8314Z" fill="#E89780"/>
<path d="M138.483 7.9812V9.37685C138.483 9.65849 138.405 10.0761 138.088 10.1726C137.771 10.269 137.338 10.1369 137.034 9.808C136.731 9.47909 136.059 7.98891 136.994 7.43914C137.929 6.88936 138.461 7.83556 138.483 7.9812Z" fill="#FDAE97"/>
<path d="M139.923 16.3524C139.971 16.552 140.087 16.7287 140.251 16.8519C140.415 16.9752 140.616 17.0373 140.821 17.0275L144.972 16.1469L144.912 15.5952L144.801 14.5796L144.789 14.4619L140.568 15.2981C140.343 15.3533 140.15 15.4949 140.029 15.6923C139.908 15.8898 139.87 16.1269 139.923 16.3524Z" fill="#93ACBF"/>
<path d="M142.863 20.5711C142.863 20.377 142.824 20.1848 142.75 20.0055C142.676 19.8261 142.567 19.6632 142.43 19.526C142.293 19.3887 142.13 19.2799 141.951 19.2057C141.772 19.1315 141.58 19.0934 141.386 19.0935C140.572 19.0935 140.125 19.434 139.942 20.2509C139.53 22.1404 138.664 27.1742 138.664 27.1742H141.221L142.841 20.7824C142.854 20.7126 142.861 20.642 142.863 20.5711Z" fill="#088CFC"/>
<path d="M141.278 16.8451C141.034 16.9607 140.754 16.9748 140.5 16.8844C140.245 16.7941 140.037 16.6066 139.92 16.3628L138.323 12.987C138.209 12.7418 138.195 12.4611 138.286 12.2061C138.378 11.9511 138.566 11.7426 138.81 11.6261C139.054 11.5105 139.334 11.4963 139.588 11.5867C139.843 11.677 140.051 11.8645 140.168 12.1083L141.764 15.4842C141.879 15.7293 141.892 16.0101 141.801 16.2651C141.71 16.52 141.522 16.7286 141.278 16.8451Z" fill="#93ACBF"/>
<path d="M137.092 7.38804C137.092 7.38804 138.223 6.86527 138.484 7.20864C138.745 7.552 138.31 7.6716 138.31 7.6716C138.31 7.6716 138.85 7.60794 138.829 7.97157C138.808 8.33519 137.457 7.83846 137.457 7.83846C137.457 7.83846 137.905 8.04198 137.65 8.20305C137.395 8.36413 137.095 8.15386 137.095 8.15386C137.095 8.15386 136.838 8.30143 136.881 8.97659C136.923 9.65176 136.521 9.8003 136.521 9.8003C136.521 9.8003 136.569 8.77791 136.371 8.50495C136.174 8.23199 136.46 7.21924 137.092 7.38804Z" fill="#322A28"/>
<path d="M136.94 9.13283C137.05 9.30548 137.079 9.42218 136.94 9.51285C136.862 9.55788 136.77 9.57118 136.683 9.54999C136.596 9.5288 136.52 9.47473 136.471 9.39903C136.361 9.22735 136.382 9.01323 136.516 8.93124C136.651 8.84926 136.83 8.96114 136.94 9.13283Z" fill="#FDAE97"/>
<path d="M136.588 9.11944C136.638 9.11841 136.688 9.13295 136.73 9.16108C136.772 9.18921 136.804 9.22956 136.822 9.27665C136.758 9.26528 136.693 9.26528 136.629 9.27665" stroke="#E89780" stroke-width="0.26" stroke-miterlimit="10"/>
<path d="M137.719 8.89084C137.761 8.89084 137.795 8.83772 137.795 8.7722C137.795 8.70668 137.761 8.65356 137.719 8.65356C137.677 8.65356 137.643 8.70668 137.643 8.7722C137.643 8.83772 137.677 8.89084 137.719 8.89084Z" fill="#2C3447"/>
<path d="M137.692 9.51392C137.732 9.58116 137.793 9.63384 137.864 9.66422C137.936 9.6946 138.016 9.70108 138.092 9.68271" stroke="#2C3447" stroke-width="0.32" stroke-miterlimit="10"/>
<path d="M137.968 8.81641L138.111 9.23404C138.118 9.25458 138.119 9.27702 138.112 9.29769C138.105 9.31837 138.091 9.33605 138.073 9.34786L137.955 9.42405" stroke="#2C3447" stroke-width="0.32" stroke-miterlimit="10"/>
<path d="M137.522 8.57528C137.568 8.54396 137.62 8.52387 137.674 8.51666C137.729 8.50945 137.785 8.51533 137.836 8.5338" stroke="#2C3447" stroke-width="0.32" stroke-miterlimit="10"/>
<path d="M138.355 8.89084C138.397 8.89084 138.431 8.83772 138.431 8.7722C138.431 8.70668 138.397 8.65356 138.355 8.65356C138.313 8.65356 138.279 8.70668 138.279 8.7722C138.279 8.83772 138.313 8.89084 138.355 8.89084Z" fill="#2C3447"/>
<path d="M138.503 8.56963C138.467 8.53856 138.423 8.51872 138.375 8.51256C138.328 8.50639 138.28 8.51416 138.237 8.53491" stroke="#2C3447" stroke-width="0.32" stroke-miterlimit="10"/>
<path d="M137.765 9.20337C137.744 9.26317 137.632 9.27957 137.512 9.23906C137.393 9.19855 137.313 9.1185 137.333 9.0587C137.353 8.9989 137.466 8.9825 137.585 9.02204C137.703 9.06159 137.783 9.1484 137.765 9.20337Z" fill="#E89780"/>
<path d="M138.483 9.02002V9.25151C138.387 9.26308 138.305 9.23607 138.291 9.18495C138.276 9.13383 138.36 9.05185 138.483 9.02002Z" fill="#E89780"/>
<path d="M141.769 28.0973L141.718 27.1077H143.712L143.743 28.0973H141.769Z" fill="#FDAE97"/>
<path d="M143.73 27.6825L141.718 27.1077H143.712L143.73 27.6825Z" fill="#E89780"/>
<path d="M138.656 28.161L138.82 27.1714H140.766L140.518 28.161H138.656Z" fill="#FDAE97"/>
<path d="M137.775 11.3599H137.414L137.382 11.4283L137.548 11.5518H137.691L137.809 11.4071L137.775 11.3599Z" fill="#F74242"/>
<path d="M140.646 27.6469L138.819 27.1714H140.765L140.646 27.6469Z" fill="#E89780"/>
<path d="M136.473 10.7649L137.607 11.1835L137.401 11.658L136.423 10.8691L136.473 10.7649Z" fill="white"/>
<path d="M138.062 10.8806L138.117 10.9915L137.822 11.6127L137.607 11.1835L138.062 10.8806Z" fill="white"/>
<path d="M137.691 11.5518L138.229 15.7329L137.81 16.274L137.265 15.7831L137.549 11.5518H137.691Z" fill="#F74242"/>
<path d="M135.31 13.613L134.713 16.0841" stroke="#2C3447" stroke-width="0.32" stroke-miterlimit="10"/>
<path d="M139.506 15.1138L139.557 13.613" stroke="#2C3447" stroke-width="0.32" stroke-miterlimit="10"/>
<path d="M138.656 28.1609L138.48 28.8814H141.092C141.112 28.7951 141.112 28.7055 141.092 28.6193C141.072 28.533 141.034 28.4523 140.979 28.383C140.924 28.3138 140.854 28.2579 140.774 28.2195C140.695 28.181 140.607 28.161 140.519 28.1609H138.656Z" fill="#403534"/>
<path d="M141.769 28.0962V28.8813H144.504V28.8167C144.494 28.6223 144.41 28.4393 144.269 28.3052C144.128 28.1712 143.941 28.0964 143.746 28.0962H141.771H141.769Z" fill="#403534"/>
<path d="M143.783 28.2524C143.783 28.2524 143.842 27.992 143.989 28.0595C144.137 28.127 143.797 28.2592 143.797 28.2592L144.002 28.401" stroke="white" stroke-width="0.17" stroke-linecap="round" stroke-linejoin="round"/>
<path d="M143.783 28.2524C143.783 28.2524 143.723 27.992 143.576 28.0595C143.429 28.127 143.769 28.2592 143.769 28.2592L143.564 28.401" stroke="white" stroke-width="0.17" stroke-linecap="round" stroke-linejoin="round"/>
<path d="M140.499 28.3423C140.499 28.3423 140.558 28.0818 140.705 28.1494C140.852 28.2169 140.513 28.349 140.513 28.349L140.718 28.4908" stroke="white" stroke-width="0.17" stroke-linecap="round" stroke-linejoin="round"/>
<path d="M140.499 28.3423C140.499 28.3423 140.439 28.0818 140.292 28.1494C140.145 28.2169 140.485 28.349 140.485 28.349L140.279 28.4908" stroke="white" stroke-width="0.17" stroke-linecap="round" stroke-linejoin="round"/>
<path d="M138.227 10.9683C138.227 10.9683 138.333 12.0861 138.506 13.774C138.678 15.462 138.686 18.2629 140.335 18.3835C140.335 18.3835 140.516 18.0671 141.106 18.1761C140.742 17.9626 140.434 17.665 140.208 17.308C139.823 16.7033 139.631 11.5981 139.631 11.5981L138.227 10.9683Z" fill="#93ACBF"/>
<path d="M138.319 11.9136L138.451 13.2292L138.032 12.8723L138.062 11.9387L138.319 11.9136Z" fill="#E5F0F8"/>
<path d="M136.08 10.9019C136.08 10.9019 136.499 12.7123 136.704 14.3915C136.909 16.0707 136.84 17.694 137.369 18.6807C137.369 18.6807 135.25 19.0617 135.25 19.9182C135.25 19.9182 134.652 19.2584 134.647 18.3547C134.643 17.4509 134.295 11.4825 134.295 11.4825L136.08 10.9019Z" fill="#93ACBF"/>
<path d="M134.299 16.8577C134.315 16.9773 133.895 18.4511 135.134 18.8957C136.374 19.3403 138.148 20.301 136.964 21.6619L134.974 20.9414L132.818 18.8957L133.238 17.0351L134.299 16.8577Z" fill="#F9E181"/>
<path d="M134.779 18.7125C134.779 18.7125 133.344 18.0422 133.446 16.8172C133.535 15.736 134.3 15.5161 134.3 15.5161" stroke="#F2BB16" stroke-width="1.03" stroke-miterlimit="10"/>
<path d="M141.168 15.9261C141.176 16.01 140.712 16.2299 140.342 16.2762C140.027 16.3167 139.292 16.3302 139.075 16.3331L138.883 15.085C139.005 15.0503 139.248 14.9538 139.364 14.9268C139.679 14.8564 140.333 14.8304 140.369 14.9394C140.404 15.0484 139.862 15.1921 139.916 15.2287C139.97 15.2654 140.427 15.2837 140.599 15.2181C140.77 15.1525 141.117 14.9529 141.207 15.0107C141.298 15.0686 141.25 15.22 141.25 15.22C141.25 15.22 141.373 15.1284 141.416 15.22C141.46 15.3117 141.303 15.4988 141.303 15.4988C141.303 15.4988 141.365 15.4399 141.388 15.548C141.412 15.656 141.082 15.8614 141.082 15.8614C141.092 15.8588 141.103 15.8585 141.113 15.8605C141.123 15.8625 141.132 15.8668 141.141 15.873C141.149 15.8792 141.156 15.8872 141.16 15.8964C141.165 15.9056 141.168 15.9157 141.168 15.9261Z" fill="#FDAE97"/>
<path d="M134.869 17.2098C134.599 17.2235 134.335 17.1298 134.134 16.9491C133.933 16.7684 133.811 16.5154 133.795 16.2453L133.593 12.5145C133.579 12.2442 133.673 11.9795 133.853 11.7781C134.034 11.5766 134.286 11.4548 134.556 11.4391C134.826 11.4254 135.09 11.5191 135.291 11.6998C135.492 11.8804 135.614 12.1334 135.63 12.4036L135.831 16.1343C135.845 16.4045 135.752 16.6692 135.571 16.8707C135.391 17.0722 135.139 17.1941 134.869 17.2098Z" fill="#93ACBF"/>
<path d="M133.791 16.3243C133.843 16.8654 134.279 17.2714 134.754 17.2242L139.28 16.4873L138.981 14.5496L134.679 15.1022C134.201 15.1456 133.738 15.7813 133.791 16.3243Z" fill="#93ACBF"/>
<path d="M136.753 14.8323L135.769 14.9586L135.676 13.2292" stroke="#586773" stroke-width="0.51" stroke-miterlimit="10"/>
<path d="M144.076 5.86914H141.412V6.23759H144.076V5.86914Z" fill="#BBDBF3"/>
<path d="M147.738 5.86914H144.898V6.23759H147.738V5.86914Z" fill="white"/>
<path d="M151.468 7.02271H144.898V7.39115H151.468V7.02271Z" fill="white"/>
<path d="M150.134 5.86914H148.188V6.23759H150.134V5.86914Z" fill="white"/>
<path d="M154.19 5.86914H150.563V6.23759H154.19V5.86914Z" fill="white"/>
<path d="M144.076 7.02271H141.412V7.39115H144.076V7.02271Z" fill="#BBDBF3"/>
<path d="M148.124 8.17725H144.898V8.54569H148.124V8.17725Z" fill="white"/>
<path d="M144.076 8.17725H141.412V8.54569H144.076V8.17725Z" fill="#BBDBF3"/>
<path d="M154.189 9.33154H144.898V9.69999H154.189V9.33154Z" fill="white"/>
<path d="M144.076 9.33154H141.412V9.69999H144.076V9.33154Z" fill="#BBDBF3"/>
<path d="M146.511 10.4863H144.898V10.8548H146.511V10.4863Z" fill="white"/>
<path d="M144.076 10.4863H141.412V10.8548H144.076V10.4863Z" fill="#BBDBF3"/>
<path d="M146.16 11.6406H144.898V12.0091H146.16V11.6406Z" fill="white"/>
<path d="M147.738 11.6406H146.477V12.0091H147.738V11.6406Z" fill="white"/>
<path d="M149.316 11.6406H148.055V12.0091H149.316V11.6406Z" fill="white"/>
<path d="M150.894 11.6406H149.633V12.0091H150.894V11.6406Z" fill="white"/>
<path d="M144.076 11.6406H141.412V12.0091H144.076V11.6406Z" fill="#BBDBF3"/>
<path d="M150.416 12.7954H144.898V13.1639H150.416V12.7954Z" fill="white"/>
<path d="M144.076 12.7954H141.412V13.1639H144.076V12.7954Z" fill="#BBDBF3"/>
<path d="M154.189 14.0183H134.51V14.4012H154.189V14.0183Z" fill="white"/>
<path d="M154.189 14.9316H134.51V15.3146H154.189V14.9316Z" fill="white"/>
<path d="M154.189 15.8452H134.51V16.2281H154.189V15.8452Z" fill="white"/>
<path d="M154.189 16.7595H134.51V17.1424H154.189V16.7595Z" fill="white"/>
<path d="M154.189 17.6729H134.51V18.0558H154.189V17.6729Z" fill="white"/>
<path d="M154.189 18.5864H134.51V18.9693H154.189V18.5864Z" fill="white"/>
<path d="M154.189 19.5005H134.51V19.8834H154.189V19.5005Z" fill="white"/>
<path d="M154.189 20.4141H134.51V20.797H154.189V20.4141Z" fill="white"/>
<path d="M154.189 21.3274H134.51V21.7103H154.189V21.3274Z" fill="white"/>
<path d="M154.189 22.2417H134.51V22.6246H154.189V22.2417Z" fill="white"/>
<path d="M154.189 23.1553H134.51V23.5382H154.189V23.1553Z" fill="white"/>
<path d="M154.189 24.0686H134.51V24.4515H154.189V24.0686Z" fill="white"/>
<path d="M154.189 24.9819H134.51V25.3648H154.189V24.9819Z" fill="white"/>
<path d="M156.482 18.9644V35.0554H132.316V18.9644L144.398 27.0094L156.482 18.9644Z" fill="#AADFE3"/>
<path d="M132.316 35.0553L144.398 27.0093L156.482 35.0553H132.316Z" fill="#CBE5E7"/>
</svg>
