<svg width="121" height="75" viewBox="0 0 121 75" fill="none" xmlns="http://www.w3.org/2000/svg">
<path d="M17.1103 74.8606C12.9892 68.1423 8.78434 61.2054 7.51124 53.4337C6.23814 45.662 8.59308 36.7773 15.2395 32.4978C20.4559 29.141 27.1293 29.2079 33.0211 27.2334C47.3002 22.4466 55.3661 6.4017 69.5899 1.4512C80.5607 -2.36844 93.4023 1.65505 101.468 9.96986C109.534 18.2847 113.123 30.2331 112.783 41.7754C112.442 53.3176 108.47 64.5146 103.094 74.7519L17.1103 74.8606Z" fill="#DCE7F9"/>
<path d="M99.3461 12.6072H33.7609C30.974 12.6072 28.7148 14.8664 28.7148 17.6532V69.3844C28.7148 72.1713 30.974 74.4305 33.7609 74.4305H99.3461C102.133 74.4305 104.392 72.1713 104.392 69.3844V17.6532C104.392 14.8664 102.133 12.6072 99.3461 12.6072Z" fill="#FFDCCF"/>
<path d="M48.4078 8.58945C49.3157 7.00775 49.5196 4.91108 48.493 3.4063C47.2524 1.58551 44.721 1.19259 42.5291 1.39992C38.304 1.80621 34.3999 3.79921 30.7951 6.04134C27.8975 7.84207 24.6171 10.3885 24.9866 14.2257C25.2575 17.0263 27.1017 18.0378 29.7267 17.9559C35.5669 17.7636 45.4266 13.7726 48.4078 8.58945Z" fill="#FFEDE6"/>
<path d="M102.719 17.3623V23.8647H27.042V17.3623C27.042 14.7356 29.55 12.6072 32.6314 12.6072H97.1265C100.215 12.6022 102.719 14.7356 102.719 17.3623Z" fill="#E01B36"/>
<path d="M102.719 47.4848V70.0282C102.719 72.4592 100.211 74.4305 97.1265 74.4305H32.6314C29.5466 74.4305 27.042 72.4592 27.042 70.0282V23.7794H102.719V47.4848Z" fill="#FDFFFE"/>
<path d="M48.4209 19.6128C49.4634 19.6128 50.3085 18.7168 50.3085 17.6115C50.3085 16.5061 49.4634 15.6101 48.4209 15.6101C47.3783 15.6101 46.5332 16.5061 46.5332 17.6115C46.5332 18.7168 47.3783 19.6128 48.4209 19.6128Z" fill="#D7E4F9"/>
<path d="M48.4063 8.52258H48.433C48.7514 8.52258 49.0567 8.64906 49.2819 8.8742C49.507 9.09933 49.6335 9.40468 49.6335 9.72307V17.2838C49.6335 17.6026 49.5068 17.9084 49.2814 18.1338C49.0559 18.3593 48.7502 18.4859 48.4313 18.4859H48.4046C48.0862 18.4859 47.7808 18.3595 47.5557 18.1343C47.3306 17.9092 47.2041 17.6038 47.2041 17.2855V9.72307C47.2041 9.56528 47.2352 9.40904 47.2956 9.26328C47.3561 9.11752 47.4447 8.9851 47.5563 8.87361C47.668 8.76211 47.8005 8.67372 47.9463 8.61349C48.0922 8.55325 48.2485 8.52236 48.4063 8.52258Z" fill="#A7B1D6"/>
<path d="M38.626 19.6128C39.6685 19.6128 40.5136 18.7168 40.5136 17.6115C40.5136 16.5061 39.6685 15.6101 38.626 15.6101C37.5834 15.6101 36.7383 16.5061 36.7383 17.6115C36.7383 18.7168 37.5834 19.6128 38.626 19.6128Z" fill="#D7E4F9"/>
<path d="M38.6384 8.52258H38.6133C37.9494 8.52258 37.4111 9.06081 37.4111 9.72474V17.2838C37.4111 17.9477 37.9494 18.4859 38.6133 18.4859H38.6384C39.3023 18.4859 39.8405 17.9477 39.8405 17.2838V9.72474C39.8405 9.06081 39.3023 8.52258 38.6384 8.52258Z" fill="#A7B1D6"/>
<path d="M59.0986 19.6128C60.1411 19.6128 60.9863 18.7168 60.9863 17.6115C60.9863 16.5061 60.1411 15.6101 59.0986 15.6101C58.0561 15.6101 57.2109 16.5061 57.2109 17.6115C57.2109 18.7168 58.0561 19.6128 59.0986 19.6128Z" fill="#D7E4F9"/>
<path d="M59.111 8.52258H59.0859C58.422 8.52258 57.8838 9.06081 57.8838 9.72474V17.2838C57.8838 17.9477 58.422 18.4859 59.0859 18.4859H59.111C59.775 18.4859 60.3132 17.9477 60.3132 17.2838V9.72474C60.3132 9.06081 59.775 8.52258 59.111 8.52258Z" fill="#A7B1D6"/>
<path d="M69.7783 19.6128C70.8208 19.6128 71.666 18.7168 71.666 17.6115C71.666 16.5061 70.8208 15.6101 69.7783 15.6101C68.7358 15.6101 67.8906 16.5061 67.8906 17.6115C67.8906 18.7168 68.7358 19.6128 69.7783 19.6128Z" fill="#D7E4F9"/>
<path d="M69.7649 8.52258H69.7917C70.1101 8.52258 70.4154 8.64906 70.6406 8.8742C70.8657 9.09933 70.9922 9.40468 70.9922 9.72307V17.2838C70.9922 17.6026 70.8655 17.9084 70.6401 18.1338C70.4146 18.3593 70.1088 18.4859 69.79 18.4859H69.7649C69.4465 18.4859 69.1412 18.3595 68.9161 18.1343C68.6909 17.9092 68.5645 17.6038 68.5645 17.2855V9.72307C68.5645 9.40468 68.6909 9.09933 68.9161 8.8742C69.1412 8.64906 69.4465 8.52258 69.7649 8.52258Z" fill="#A7B1D6"/>
<path d="M80.458 19.6128C81.5005 19.6128 82.3457 18.7168 82.3457 17.6115C82.3457 16.5061 81.5005 15.6101 80.458 15.6101C79.4155 15.6101 78.5703 16.5061 78.5703 17.6115C78.5703 18.7168 79.4155 19.6128 80.458 19.6128Z" fill="#D7E4F9"/>
<path d="M80.4435 8.5226H80.4652C80.7836 8.5226 81.089 8.64908 81.3141 8.87422C81.5392 9.09935 81.6657 9.4047 81.6657 9.72309V17.2838C81.6657 17.6026 81.5391 17.9084 81.3136 18.1339C81.0882 18.3593 80.7824 18.486 80.4636 18.486H80.4368C80.1184 18.486 79.8131 18.3595 79.5879 18.1343C79.3628 17.9092 79.2363 17.6039 79.2363 17.2855V9.72309C79.2363 9.56487 79.2676 9.40822 79.3283 9.26213C79.3891 9.11604 79.4781 8.98341 79.5903 8.87184C79.7025 8.76028 79.8356 8.67199 79.982 8.61206C80.1285 8.55212 80.2853 8.52172 80.4435 8.5226Z" fill="#A7B1D6"/>
<path d="M91.1357 19.6128C92.1782 19.6128 93.0234 18.7168 93.0234 17.6115C93.0234 16.5061 92.1782 15.6101 91.1357 15.6101C90.0932 15.6101 89.248 16.5061 89.248 17.6115C89.248 18.7168 90.0932 19.6128 91.1357 19.6128Z" fill="#D7E4F9"/>
<path d="M91.1501 8.52258H91.125C90.4611 8.52258 89.9229 9.06081 89.9229 9.72474V17.2838C89.9229 17.9477 90.4611 18.4859 91.125 18.4859H91.1501C91.814 18.4859 92.3522 17.9477 92.3522 17.2838V9.72474C92.3522 9.06081 91.814 8.52258 91.1501 8.52258Z" fill="#A7B1D6"/>
<path d="M38.6268 32.4972H31.5459V38.2856H38.6268V32.4972Z" fill="#DCE7F9"/>
<path d="M38.6268 41.6964H31.5459V47.4848H38.6268V41.6964Z" fill="#DCE7F9"/>
<path d="M38.6268 50.8939H31.5459V56.6823H38.6268V50.8939Z" fill="#DCE7F9"/>
<path d="M38.6268 60.0916H31.5459V65.88H38.6268V60.0916Z" fill="#DCE7F9"/>
<path d="M48.5555 32.4972H41.4746V38.2856H48.5555V32.4972Z" fill="#DCE7F9"/>
<path d="M48.5555 41.6964H41.4746V47.4848H48.5555V41.6964Z" fill="#F75D59"/>
<path d="M48.5555 50.8939H41.4746V56.6823H48.5555V50.8939Z" fill="#DCE7F9"/>
<path d="M48.5555 60.0916H41.4746V65.88H48.5555V60.0916Z" fill="#DCE7F9"/>
<path d="M58.49 32.4972H51.4092V38.2856H58.49V32.4972Z" fill="#DCE7F9"/>
<path d="M58.49 41.6964H51.4092V47.4848H58.49V41.6964Z" fill="#DCE7F9"/>
<path d="M58.49 50.8939H51.4092V56.6823H58.49V50.8939Z" fill="#DCE7F9"/>
<path d="M58.49 60.0916H51.4092V65.88H58.49V60.0916Z" fill="#DCE7F9"/>
<path d="M68.4227 32.4972H61.3418V38.2856H68.4227V32.4972Z" fill="#DCE7F9"/>
<path d="M68.4227 41.6964H61.3418V47.4848H68.4227V41.6964Z" fill="#DCE7F9"/>
<path d="M68.4227 50.8939H61.3418V56.6823H68.4227V50.8939Z" fill="#DCE7F9"/>
<path d="M68.4227 60.0916H61.3418V65.88H68.4227V60.0916Z" fill="#DCE7F9"/>
<path d="M78.3543 32.4972H71.2734V38.2856H78.3543V32.4972Z" fill="#DCE7F9"/>
<path d="M78.3543 41.6964H71.2734V47.4848H78.3543V41.6964Z" fill="#DCE7F9"/>
<path d="M78.3543 50.8939H71.2734V56.6823H78.3543V50.8939Z" fill="#DCE7F9"/>
<path d="M78.3543 60.0916H71.2734V65.88H78.3543V60.0916Z" fill="#DCE7F9"/>
<path d="M88.285 50.8939H81.2041V56.6823H88.285V50.8939Z" fill="#FCBEBE"/>
<path d="M88.285 32.4972H81.2041V38.2856H88.285V32.4972Z" fill="#FCBEBE"/>
<path d="M88.285 41.6964H81.2041V47.4848H88.285V41.6964Z" fill="#FCBEBE"/>
<path d="M88.285 60.0916H81.2041V65.88H88.285V60.0916Z" fill="#FCBEBE"/>
<path d="M98.2156 60.0916H91.1348V65.88H98.2156V60.0916Z" fill="#FCBEBE"/>
<path d="M98.2156 32.4972H91.1348V38.2856H98.2156V32.4972Z" fill="#FCBEBE"/>
<path d="M98.2156 41.6964H91.1348V47.4848H98.2156V41.6964Z" fill="#FCBEBE"/>
<path d="M98.2156 50.8939H91.1348V56.6823H98.2156V50.8939Z" fill="#FCBEBE"/>
<path d="M44.6542 46.7776L42.5859 44.0105L43.2414 43.4604L44.6458 45.3397L46.786 42.4004L47.4464 42.9404L44.6542 46.7776Z" fill="#FDFFFE"/>
<path d="M99.3886 74.6813H32.6313C29.411 74.6813 26.791 72.5947 26.791 70.0282V37.3058H27.2926V70.0282C27.2926 72.3171 29.6869 74.1797 32.6313 74.1797H99.3886V74.6813Z" fill="#5E3B3B"/>
<path d="M102.97 44.5221H102.469V55.5154H102.97V44.5221Z" fill="#5E3B3B"/>
<path d="M102.971 33.9752H102.469V17.3607C102.469 14.8778 100.073 12.858 97.1271 12.858H32.6319C31.5812 12.8515 30.5471 13.1201 29.6324 13.6372C28.1678 14.4732 27.2916 15.8709 27.2916 17.3607H26.79C26.79 15.6887 27.7581 14.1337 29.3816 13.2024C30.3721 12.6417 31.4921 12.3501 32.6303 12.3564H97.1271C100.349 12.3564 102.971 14.6019 102.971 17.3607V33.9752Z" fill="#5E3B3B"/>
<path d="M116.572 72.6749L116.843 69.5015H114.518L114.658 72.6749H116.572Z" fill="#FFB486"/>
<path d="M116.839 69.5517L116.683 71.3374C115.984 71.3727 115.283 71.3284 114.593 71.2053L114.51 69.3661L116.839 69.5517Z" fill="#FCA377"/>
<path d="M117.187 74.3719H111.135C111.119 74.1966 111.127 74.0199 111.16 73.8469L117.102 73.8804L117.187 74.3719Z" fill="#4A292F"/>
<path d="M117.1 73.8803L111.154 73.8419C111.211 73.2266 111.99 72.9373 112.704 72.7551L112.846 72.7183L113.147 72.6514L113.291 72.6197C113.487 72.5804 113.68 72.5245 113.866 72.4525C113.973 72.4006 114.104 72.327 114.216 72.2585C114.256 72.2351 114.291 72.2134 114.323 72.1916L114.507 72.0746C114.896 72.2017 115.481 72.5762 116.767 71.986L116.806 72.2083L116.827 72.3354L117.1 73.8803Z" fill="#4A292F"/>
<path d="M112.633 73.148C112.642 73.0142 112.668 72.8821 112.711 72.7551L112.633 73.148Z" fill="#4A292F"/>
<path d="M113.065 73.0711C113.073 72.9277 113.103 72.7862 113.152 72.6515L113.065 73.0711Z" fill="#4A292F"/>
<path d="M114.332 72.2001C114.558 72.394 115.385 72.9458 116.815 72.2168L114.332 72.2001Z" fill="#4A292F"/>
<path d="M112.676 70.5414C114.876 70.8858 116.921 71.0296 118.474 70.5414C118.474 70.5414 119.79 55.7928 117.458 42.243L112.795 42.2648C112.795 42.2648 111.001 58.5482 112.676 70.5414Z" fill="#39477A"/>
<path d="M112.493 28.7568C111.605 28.5411 111.053 28.1549 110.854 27.6065C110.563 26.8072 111.13 25.998 111.188 25.9077L111.364 26.0365C111.341 26.0682 110.794 26.8273 111.05 27.5312C111.217 28.0077 111.718 28.3488 112.536 28.5461L112.493 28.7568Z" fill="#5E3B3B"/>
<path d="M102.946 72.6749L103.945 69.5015H101.618L100.909 72.6749H102.946Z" fill="#FFB486"/>
<path d="M103.951 69.4731L103.4 71.2186C102.689 71.3523 101.958 71.3283 101.258 71.1484L101.654 69.3761H102.49L103.951 69.4731Z" fill="#FCA377"/>
<path d="M115.251 32.8683C115.251 32.8683 121.529 34.0203 120.964 40.225C120.73 42.8066 118.779 44.5906 118.779 44.5906L118.062 42.4086L115.554 43.253L115.251 32.8683Z" fill="#F75D59"/>
<path d="M111.765 33.4686L112.204 30.0929H114.201L114.672 33.4686H111.765Z" fill="#FFB587"/>
<path d="M112.785 31.3952C114.047 31.0408 115.537 29.2986 114.98 27.2872C114.539 25.6904 111.803 26.1302 111.083 27.5012C109.954 29.6263 109.884 32.2112 112.785 31.3952Z" fill="#FFB587"/>
<path d="M101.267 36.846C101.145 36.7591 100.747 36.4932 100.681 36.3578C100.616 36.2223 100.389 35.5218 100.242 35.5786C100.095 35.6355 100.35 36.1053 100.22 36.1371C100.138 36.1571 99.6064 35.2626 99.4659 35.4081C99.3723 35.5034 99.7669 36 99.7017 36.0317C99.6365 36.0635 99.2803 35.3462 99.1349 35.48C98.9894 35.6137 99.6365 36.2207 99.5595 36.2825C99.5228 36.3126 98.9576 35.5184 98.8423 35.6305C98.6884 35.7809 99.3271 36.3327 99.2636 36.4079C99.2318 36.4431 99.0396 36.209 98.9092 36.0836C98.8356 36.0134 98.7687 36.0602 98.7888 36.1254C99.0111 36.7942 100.081 37.4228 100.15 37.5215C100.253 37.6669 100.359 37.8074 100.464 37.9428L101.267 36.846Z" fill="#FFBA8C"/>
<path d="M99.8516 70.3994C101.975 70.7004 103.961 70.7689 105.687 70.3994C112.843 57.1222 115.836 42.1228 115.836 42.1228H110.308C103.165 54.4286 99.8516 70.3994 99.8516 70.3994Z" fill="#39477A"/>
<path d="M104.466 38.2655L101.326 36.5768L100.183 38.0632C100.183 38.0632 102.034 42.8868 105.662 42.4806C108.564 42.1562 110.315 36.7156 110.315 36.7156L104.466 38.2655Z" fill="#F75D59"/>
<path d="M118.847 46.164C113.853 48.4362 106.596 46.4465 106.596 46.4465L106.809 45.7075L106.842 45.5938L108.73 39.3072L103.766 39.247C103.766 39.247 107.091 34.5805 109.029 33.4469C109.64 33.119 110.303 32.8973 110.989 32.7914L111.169 32.7614C112.509 32.5497 113.876 32.5803 115.205 32.8516L115.344 32.8817C116.06 33.0335 116.747 33.294 117.384 33.6542C117.384 33.6542 117.028 35.6606 117.526 37.0216C118.661 40.1164 118.832 43.8148 118.85 45.3915C118.85 45.435 118.85 45.4785 118.85 45.5186C118.847 45.9282 118.847 46.164 118.847 46.164Z" fill="#F75D59"/>
<path d="M114.476 47.1954L114.255 47.2122C114.202 47.2122 114.148 47.2205 114.088 47.2222C110.204 47.4395 106.586 46.4464 106.586 46.4464L106.807 45.7074L106.84 45.5937L108.311 40.6914C108.559 40.4389 109.803 38.4125 109.997 37.5916C109.997 37.5916 110.08 39.6899 109.42 41.4104C109.004 42.4972 108.535 44.1106 109.086 45.1355C109.816 46.4664 114.414 47.177 114.476 47.1954Z" fill="#E05353"/>
<path d="M106.088 36.2085L104.015 38.7567L104.183 38.8939L106.257 36.3457L106.088 36.2085Z" fill="#5E3B3B"/>
<path d="M111.756 31.5993C111.399 31.6128 111.049 31.4937 110.774 31.2649L110.927 31.1094C110.948 31.1294 111.482 31.6344 112.498 31.2331L112.578 31.4337C112.317 31.5411 112.038 31.5973 111.756 31.5993Z" fill="#5E3B3B"/>
<path d="M114.569 32.7078C114.146 32.9102 113.682 33.01 113.214 32.9989C112.746 32.9879 112.287 32.8664 111.875 32.6443L111.908 32.3734L114.515 32.34L114.569 32.7078Z" fill="#FFB587"/>
<path d="M112.995 46.6771C110.895 46.666 108.806 46.3764 106.783 45.816L106.843 45.607C108.847 46.1617 110.916 46.4485 112.995 46.4597C115.168 46.4597 117.126 46.1086 118.806 45.4181L118.888 45.6187C117.183 46.321 115.2 46.6771 112.995 46.6771Z" fill="#5E3B3B"/>
<path d="M119.013 46.164H118.795C118.795 46.1105 118.78 40.7685 117.479 37.0366L117.683 36.9647C118.998 40.7317 119.013 46.1105 119.013 46.164Z" fill="#5E3B3B"/>
<path d="M113.526 33.5789C112.484 33.5789 111.498 33.0773 111.111 32.855L111.22 32.666C111.795 33.0004 113.781 33.9869 115.127 32.7714L115.273 32.9385C114.793 33.3664 114.168 33.5954 113.526 33.5789Z" fill="#5E3B3B"/>
<path d="M103.599 74.3719H97.5478C97.532 74.1966 97.5404 74.0199 97.5729 73.8469L103.515 73.8804L103.599 74.3719Z" fill="#4A292F"/>
<path d="M103.514 73.8803L97.5732 73.8419C97.6301 73.2266 98.4092 72.9373 99.1215 72.7551L99.2653 72.7183L99.5662 72.6514L99.71 72.6197C99.9062 72.5804 100.099 72.5245 100.285 72.4525C100.392 72.4006 100.523 72.327 100.635 72.2585L100.742 72.1916L100.926 72.0746C101.313 72.2017 101.9 72.5762 103.184 71.986L103.225 72.2083L103.246 72.3354L103.514 73.8803Z" fill="#4A292F"/>
<path d="M99.0439 73.148C99.0527 73.0143 99.0785 72.8823 99.1209 72.7551L99.0439 73.148Z" fill="#4A292F"/>
<path d="M99.4795 73.0711C99.4873 72.9277 99.5166 72.7862 99.5664 72.6515L99.4795 73.0711Z" fill="#4A292F"/>
<path d="M100.742 72.2001C100.968 72.394 101.796 72.9458 103.225 72.2168L100.742 72.2001Z" fill="#4A292F"/>
<path d="M110.4 37.7271L109.303 38.9578L109.465 39.1024L110.562 37.8717L110.4 37.7271Z" fill="#5E3B3B"/>
<path d="M118.388 45.7075H118.177C118.177 44.4769 118.01 42.7414 118.01 42.7247L118.225 42.7046C118.227 42.7263 118.388 44.4735 118.388 45.7075Z" fill="#5E3B3B"/>
<path d="M105.231 42.6761C101.807 42.6761 100.034 38.1701 100.018 38.125L100.22 38.0464C100.237 38.0916 101.954 42.4588 105.236 42.4588C105.376 42.4593 105.516 42.4515 105.656 42.4354C108.498 42.1177 110.198 36.9178 110.27 36.7021L110.478 36.769C110.404 36.9947 108.657 42.3183 105.681 42.6511C105.531 42.6679 105.381 42.6763 105.231 42.6761Z" fill="#5E3B3B"/>
<path d="M118.722 36.4914C117.412 37.2739 114.3 37.085 113.183 34.4851C112.36 32.5673 112.765 30.3971 112.957 29.7918L112.623 28.7184C112.129 28.4839 111.731 28.0851 111.498 27.5903C111.265 27.0954 111.211 26.535 111.346 26.0048C111.346 26.0048 111.533 26.1536 112.111 26.1067C112.432 26.0783 113.282 25.7623 114.118 25.9395C114.875 26.0365 116.458 26.5615 116.616 29.0662C116.749 31.1327 118.47 31.3551 119.291 32.1844C120.919 33.848 120.204 35.607 118.722 36.4914Z" fill="#5E3B3B"/>
<path d="M113.385 29.2351C113.385 29.3467 113.352 29.4559 113.29 29.5488C113.229 29.6417 113.141 29.7142 113.038 29.757C112.935 29.7999 112.821 29.8112 112.712 29.7895C112.602 29.7678 112.502 29.7141 112.423 29.6352C112.344 29.5563 112.29 29.4558 112.269 29.3463C112.247 29.2369 112.258 29.1234 112.301 29.0204C112.344 28.9174 112.416 28.8294 112.509 28.7676C112.602 28.7058 112.711 28.673 112.823 28.6733C112.897 28.6733 112.97 28.6879 113.038 28.7161C113.106 28.7443 113.168 28.7857 113.22 28.8379C113.272 28.8901 113.314 28.952 113.342 29.0201C113.37 29.0883 113.385 29.1614 113.385 29.2351Z" fill="#FFB587"/>
<path d="M120.675 33.2662C120.507 32.6764 120.16 32.1535 119.681 31.7698C119.403 31.552 119.099 31.369 118.777 31.2247C117.916 30.7934 117.026 30.3469 116.819 28.904C116.466 26.4546 114.854 26.1085 114.179 26.0733H114.166C113.555 25.9931 112.958 26.1753 112.564 26.2974C112.454 26.3343 112.343 26.3644 112.229 26.3877L112.194 26.1737C112.298 26.1507 112.401 26.1222 112.502 26.0884C112.915 25.963 113.539 25.7707 114.197 25.8577C114.926 25.8961 116.665 26.2656 117.04 28.8672C117.23 30.2048 118.068 30.6195 118.879 31.0258C119.218 31.1775 119.537 31.3707 119.829 31.6009C120.341 32.0142 120.712 32.5762 120.89 33.2094L120.675 33.2662Z" fill="#5E3B3B"/>
<path d="M117.433 70.7673C116.055 70.9612 114.423 70.8141 112.676 70.5416C112.022 65.86 111.932 60.5983 112.021 55.8281C112.021 55.8833 113.452 51.287 113.452 51.287C113.452 51.287 112.83 54.8784 113.042 57.0386C113.263 59.2707 114.079 59.9295 114.393 62.4441C114.577 63.9138 113.843 65.0207 114.111 66.5606C114.392 68.1824 115.634 69.1856 116.848 70.274C117.023 70.4362 117.241 70.5951 117.433 70.7673Z" fill="#39477A"/>
<path d="M112.053 56.1373L111.848 56.0654C112.431 54.3934 112.99 52.6712 113.508 50.9491L113.715 51.011C113.197 52.7298 112.637 54.4619 112.053 56.1373Z" fill="#39477A"/>
<path d="M106.018 69.7742C105.909 69.9831 105.799 70.1921 105.683 70.3995C103.959 70.769 101.973 70.6988 99.8496 70.3995C101.048 65.0354 102.612 59.7597 104.531 54.6093C104.678 56.1692 104.294 57.7944 103.836 59.3176C103.232 61.3239 102.498 63.3621 102.68 65.4471C102.814 66.9518 103.593 68.567 104.919 69.3779C105.262 69.5667 105.633 69.7004 106.018 69.7742Z" fill="#39477A"/>
<path d="M104.241 55.9434L104.037 55.8699C105.335 52.2567 106.657 49.0231 107.859 46.5201L108.055 46.6154C106.856 49.11 105.537 52.337 104.241 55.9434Z" fill="#FDFFFE"/>
<path d="M35.4881 36.0702L26.4159 33.8481C23.27 35.7446 19.5511 36.458 15.9267 35.8602C12.3023 35.2624 9.0095 33.3925 6.63923 30.5862C4.26896 27.7798 2.97635 24.2206 2.99333 20.5472C3.01031 16.8739 4.33578 13.3268 6.7319 10.5424C9.12801 7.75811 12.4379 5.91879 16.0677 5.35452C19.6975 4.79024 23.4096 5.53796 26.5379 7.46349C29.6662 9.38903 32.0059 12.3663 33.1372 15.8612C34.2686 19.3561 34.1174 23.1397 32.711 26.5332L35.4881 36.0702Z" fill="#6673AD"/>
<path d="M27.6439 29.8246C32.733 24.7355 32.733 16.4845 27.6439 11.3954C22.5548 6.30627 14.3037 6.30627 9.21462 11.3954C4.12553 16.4845 4.12553 24.7355 9.21462 29.8246C14.3037 34.9137 22.5548 34.9137 27.6439 29.8246Z" fill="white"/>
<path d="M27.6439 29.8246C32.733 24.7355 32.733 16.4845 27.6439 11.3954C22.5548 6.30627 14.3037 6.30627 9.21462 11.3954C4.12553 16.4845 4.12553 24.7355 9.21462 29.8246C14.3037 34.9137 22.5548 34.9137 27.6439 29.8246Z" fill="white"/>
<path d="M26.1139 22.5138L18.9009 20.1931L15.1356 11.2547C15.08 11.1216 14.9738 11.0162 14.8403 10.9614C14.7069 10.9067 14.5572 10.9072 14.4242 10.9629C14.2912 11.0185 14.1857 11.1248 14.131 11.2582C14.0763 11.3916 14.0768 11.5413 14.1324 11.6743L17.6904 20.1095L7.93774 17.2253C7.91291 17.2172 7.88693 17.2133 7.86083 17.2136C7.79605 17.214 7.73357 17.2377 7.68473 17.2802C7.63588 17.3228 7.60391 17.3815 7.59461 17.4456C7.5853 17.5097 7.59928 17.575 7.63402 17.6297C7.66875 17.6844 7.72193 17.7248 7.78392 17.7436L17.963 20.7532L18.0098 20.8652L17.9596 21.0241L18.0967 21.0692L18.1469 21.1896L18.2873 21.1294L25.7812 23.5421C25.8352 23.5595 25.8916 23.5685 25.9484 23.5688C26.0772 23.5686 26.2017 23.5225 26.2996 23.4387C26.3975 23.3549 26.4624 23.239 26.4825 23.1118C26.5026 22.9845 26.4767 22.8542 26.4095 22.7443C26.3422 22.6344 26.238 22.5521 26.1156 22.5121L26.1139 22.5138Z" fill="#5E3B3B"/>
<path d="M16.9137 11.7226V12.1122H18.3399V11.7226H17.8784V9.59253H17.524L16.7432 10.2613L16.8786 10.4469C16.8931 10.4692 16.9133 10.4871 16.9371 10.4987C16.9631 10.5135 16.9925 10.521 17.0224 10.5205C17.0423 10.5203 17.0621 10.5169 17.0809 10.5104C17.1021 10.5019 17.1219 10.49 17.1394 10.4753L17.417 10.2379V11.7176L16.9137 11.7226Z" fill="#5E3B3B"/>
<path d="M20.0631 11.6692H19.2505L19.6919 11.2178C19.7588 11.1492 19.8206 11.084 19.8808 11.0188C19.9419 10.9536 19.9978 10.8838 20.048 10.8098C20.0957 10.7373 20.1344 10.6593 20.1634 10.5774C20.1942 10.4905 20.2094 10.3988 20.2085 10.3066C20.2095 10.2003 20.1885 10.095 20.1467 9.99725C20.1079 9.9084 20.0509 9.82867 19.9795 9.76318C19.9058 9.69845 19.8199 9.649 19.727 9.61771C19.6283 9.58511 19.525 9.56874 19.421 9.56922C19.3165 9.56874 19.2126 9.58511 19.1134 9.61771C19.019 9.64794 18.9311 9.69558 18.8542 9.75816C18.7778 9.82384 18.7142 9.90323 18.6669 9.99224C18.6176 10.0898 18.5848 10.1949 18.57 10.3032L18.5583 10.3835L18.794 10.4253H18.8442C18.8878 10.4266 18.9305 10.4124 18.9646 10.3852C18.9993 10.3545 19.0233 10.3134 19.0331 10.2681C19.0422 10.2281 19.0574 10.1897 19.0783 10.1544C19.0999 10.1202 19.127 10.0897 19.1585 10.0641C19.229 10.0103 19.3156 9.982 19.4043 9.98388C19.4515 9.98308 19.4984 9.99043 19.5431 10.0056C19.582 10.0173 19.6179 10.0372 19.6484 10.0641C19.6786 10.0913 19.702 10.125 19.717 10.1628C19.736 10.21 19.7451 10.2607 19.7437 10.3116C19.744 10.3683 19.7356 10.4247 19.7186 10.4788C19.6996 10.5373 19.6738 10.5934 19.6417 10.646C19.6051 10.705 19.5637 10.7609 19.518 10.8132C19.4678 10.8717 19.4127 10.9319 19.3508 10.9921L18.5984 11.7495C18.5723 11.7748 18.5523 11.8057 18.5399 11.8398C18.528 11.8696 18.5218 11.9013 18.5215 11.9334V12.1157H20.257V11.8548C20.2575 11.8307 20.2532 11.8068 20.2443 11.7844C20.2354 11.762 20.2221 11.7416 20.2052 11.7244C20.1866 11.7058 20.1644 11.6914 20.1399 11.6819C20.1155 11.6724 20.0893 11.6681 20.0631 11.6692Z" fill="#5E3B3B"/>
<path d="M19.0912 30.0879C19.0187 30.0203 18.9334 29.968 18.8404 29.9341C18.7455 29.8998 18.6453 29.8823 18.5445 29.8822C18.4957 29.8827 18.4471 29.8866 18.399 29.8939L19.1263 28.9727H18.6949C18.6499 28.9724 18.6053 28.9821 18.5645 29.0011C18.5283 29.0192 18.4963 29.0448 18.4709 29.0763L17.8757 29.8789C17.7826 29.9994 17.7056 30.1314 17.6466 30.2718C17.5988 30.3857 17.5733 30.5077 17.5714 30.6313C17.57 30.7543 17.5904 30.8765 17.6315 30.9924C17.6703 31.097 17.73 31.1926 17.8071 31.2733C17.8844 31.3525 17.978 31.4141 18.0813 31.4539C18.1934 31.4965 18.3125 31.5175 18.4324 31.5157C18.5553 31.517 18.6773 31.4949 18.7919 31.4505C18.8967 31.4096 18.9926 31.3489 19.0745 31.2716C19.1534 31.1946 19.2159 31.1025 19.2584 31.0008C19.3024 30.8948 19.3246 30.7811 19.3236 30.6664C19.3253 30.5519 19.3042 30.4383 19.2617 30.332C19.2218 30.24 19.1638 30.157 19.0912 30.0879ZM18.0211 30.6814C18.0211 30.6281 18.0313 30.5754 18.0512 30.5259C18.07 30.4773 18.0984 30.4329 18.1348 30.3955C18.1726 30.3568 18.2182 30.3266 18.2686 30.3069C18.3258 30.2834 18.3873 30.272 18.4491 30.2735C18.5061 30.2728 18.5628 30.2824 18.6163 30.3019C18.6644 30.3193 18.7083 30.3467 18.7451 30.3821C18.7809 30.419 18.8087 30.4628 18.827 30.5109C18.8476 30.5677 18.8578 30.6277 18.8571 30.6881C18.8574 30.7452 18.8472 30.8019 18.827 30.8553C18.8072 30.9043 18.7776 30.9486 18.7401 30.9857C18.7017 31.0241 18.6555 31.0538 18.6046 31.0727C18.4889 31.1139 18.3625 31.1139 18.2468 31.0727C18.1995 31.0534 18.1568 31.0243 18.1214 30.9874C18.0866 30.95 18.0604 30.9055 18.0445 30.857C18.029 30.7998 18.0228 30.7406 18.0261 30.6814H18.0211Z" fill="#5E3B3B"/>
<path d="M29.3088 20.6276C29.2555 20.5637 29.1902 20.5108 29.1165 20.4721C29.1717 20.4374 29.2208 20.3939 29.262 20.3434C29.3048 20.2897 29.3371 20.2284 29.3573 20.1628C29.3801 20.0903 29.3914 20.0147 29.3907 19.9387C29.3917 19.8414 29.3718 19.7451 29.3322 19.6562C29.2935 19.5716 29.2364 19.4968 29.165 19.4372C29.0935 19.3758 29.0105 19.3292 28.9209 19.3C28.8233 19.2679 28.721 19.2521 28.6182 19.2532C28.5139 19.2522 28.41 19.268 28.3106 19.3C28.2161 19.3309 28.1282 19.3791 28.0514 19.4422C27.9747 19.5065 27.9116 19.5855 27.8659 19.6746C27.8149 19.7722 27.7815 19.878 27.7672 19.9872L27.7555 20.0675L27.9913 20.1076H28.0163H28.0414C28.0845 20.109 28.1267 20.0947 28.1601 20.0675C28.1947 20.0387 28.2188 19.9993 28.2287 19.9555C28.2384 19.9138 28.2554 19.8742 28.2788 19.8384C28.2989 19.804 28.3249 19.7734 28.3557 19.7481C28.3887 19.7221 28.4261 19.7023 28.4661 19.6896C28.5096 19.6744 28.5555 19.6671 28.6015 19.6679C28.6485 19.6674 28.6954 19.6742 28.7403 19.688C28.7782 19.7001 28.8134 19.7194 28.844 19.7448C28.872 19.7711 28.8942 19.803 28.9092 19.8384C28.927 19.8848 28.9355 19.9342 28.9343 19.9839C28.9347 20.0301 28.9268 20.076 28.9108 20.1193C28.8956 20.1573 28.8709 20.1907 28.8389 20.2163C28.7951 20.2482 28.7458 20.272 28.6935 20.2865C28.6182 20.3061 28.5405 20.3151 28.4628 20.3133H28.3909V20.6945H28.4745C28.5678 20.6925 28.661 20.702 28.752 20.7229C28.8075 20.7361 28.8594 20.7612 28.9042 20.7965C28.9358 20.822 28.9591 20.8563 28.971 20.8951C28.9865 20.9432 28.9938 20.9935 28.9928 21.0439C28.9923 21.0864 28.9838 21.1284 28.9677 21.1677C28.9507 21.2113 28.9251 21.2511 28.8925 21.2847C28.8553 21.3202 28.8123 21.3491 28.7654 21.37C28.7074 21.393 28.6455 21.4044 28.5831 21.4034C28.526 21.4045 28.4691 21.3943 28.4159 21.3733C28.3746 21.3553 28.3362 21.331 28.3022 21.3014C28.2734 21.2745 28.2486 21.2435 28.2287 21.2095C28.2086 21.171 28.1902 21.1359 28.1785 21.1108L28.1635 21.079C28.1488 21.0433 28.1222 21.0138 28.0882 20.9954C28.058 20.979 28.024 20.9709 27.9896 20.972C27.9552 20.9722 27.9211 20.9791 27.8893 20.9921L27.6953 21.074L27.717 21.1476C27.744 21.2365 27.7793 21.3227 27.8224 21.4051C27.8653 21.4865 27.9218 21.5601 27.9896 21.6224C28.0634 21.687 28.1492 21.7364 28.2421 21.7679C28.3538 21.8041 28.4707 21.8216 28.5882 21.8197C28.7018 21.8204 28.8148 21.8023 28.9225 21.7662C29.0236 21.7324 29.1172 21.6797 29.1984 21.6107C29.2815 21.5402 29.3478 21.4519 29.3924 21.3523C29.4369 21.2528 29.4586 21.1446 29.4559 21.0356C29.4558 20.8866 29.4038 20.7423 29.3088 20.6276Z" fill="#5E3B3B"/>
<path d="M8.89582 19.4941C8.82047 19.4204 8.73046 19.3635 8.63165 19.3269C8.41137 19.2432 8.16808 19.2432 7.94781 19.3269C7.84725 19.365 7.75479 19.4217 7.67527 19.4941C7.59606 19.5682 7.53338 19.6583 7.49135 19.7583C7.44807 19.8597 7.42643 19.969 7.42782 20.0793C7.42627 20.1891 7.44614 20.2981 7.48634 20.4003C7.52506 20.4906 7.58198 20.572 7.65354 20.6394C7.72099 20.7052 7.80203 20.7554 7.89096 20.7865C7.98076 20.8202 8.07595 20.8372 8.17185 20.8367C8.23361 20.8365 8.2952 20.8304 8.35577 20.8183L7.60338 21.8014H8.04144C8.08519 21.8015 8.12847 21.7924 8.16851 21.7747C8.20565 21.7565 8.23779 21.7295 8.26214 21.6961L8.83396 20.8701C8.87743 20.8066 8.91756 20.7447 8.951 20.6862C8.98562 20.6276 9.01634 20.5667 9.04296 20.504C9.06803 20.4411 9.08761 20.3762 9.10147 20.31C9.11648 20.2414 9.12377 20.1713 9.12321 20.101C9.12348 19.987 9.10367 19.8738 9.06469 19.7666C9.02747 19.6653 8.97002 19.5725 8.89582 19.4941ZM7.91938 19.8987C7.93695 19.8536 7.96371 19.8126 7.99796 19.7783C8.03386 19.7433 8.07653 19.716 8.12336 19.6981C8.17693 19.6786 8.23357 19.669 8.29056 19.6697C8.34749 19.6678 8.40424 19.6769 8.45776 19.6964C8.50271 19.7134 8.54328 19.7402 8.57647 19.775C8.61129 19.8094 8.63811 19.8511 8.65505 19.897C8.67554 19.9504 8.68575 20.0071 8.68515 20.0642C8.68564 20.1135 8.67655 20.1623 8.6584 20.208C8.641 20.2524 8.61484 20.2927 8.58149 20.3267C8.54524 20.3634 8.50204 20.3924 8.45442 20.412C8.40108 20.4327 8.34442 20.4435 8.28722 20.4438C8.23035 20.4447 8.17377 20.4356 8.12002 20.417C8.07658 20.4022 8.03712 20.3776 8.00465 20.3451C7.97205 20.3112 7.94698 20.2707 7.93109 20.2264C7.91312 20.1725 7.90409 20.116 7.90433 20.0592C7.89926 20.0053 7.90436 19.9508 7.91938 19.8987Z" fill="#5E3B3B"/>
<path d="M12.3748 9.25885L11.9404 9.50964L12.7831 10.9692L13.2175 10.7184L12.3748 9.25885Z" fill="#5E3B3B"/>
<path d="M24.2137 30.3781L23.7773 30.6289L24.62 32.0952L25.0564 31.8444L24.2137 30.3781Z" fill="#5E3B3B"/>
<path d="M7.43927 13.9428L7.18848 14.3772L8.68279 15.2399L8.93359 14.8055L7.43927 13.9428Z" fill="#5E3B3B"/>
<path d="M7.43927 13.9428L7.18848 14.3772L8.68279 15.2399L8.93359 14.8055L7.43927 13.9428Z" fill="#5E3B3B"/>
<path d="M28.1776 25.9161L27.9268 26.3505L29.4211 27.2132L29.6719 26.7788L28.1776 25.9161Z" fill="#5E3B3B"/>
<path d="M8.68084 25.9181L7.18652 26.7809L7.43732 27.2153L8.93164 26.3525L8.68084 25.9181Z" fill="#5E3B3B"/>
<path d="M8.68084 25.9181L7.18652 26.7809L7.43732 27.2153L8.93164 26.3525L8.68084 25.9181Z" fill="#5E3B3B"/>
<path d="M29.4191 13.9465L27.9248 14.8092L28.1756 15.2436L29.6699 14.3809L29.4191 13.9465Z" fill="#5E3B3B"/>
<path d="M12.7831 30.1853L11.9404 31.6449L12.3748 31.8957L13.2175 30.4361L12.7831 30.1853Z" fill="#5E3B3B"/>
<path d="M12.7831 30.1853L11.9404 31.6449L12.3748 31.8957L13.2175 30.4361L12.7831 30.1853Z" fill="#5E3B3B"/>
<path d="M24.4804 9.25601L23.6377 10.7156L24.0721 10.9664L24.9148 9.50681L24.4804 9.25601Z" fill="#5E3B3B"/>
<path d="M19.7617 20.8264C19.8815 20.0899 19.3816 19.3958 18.6452 19.276C17.9088 19.1562 17.2147 19.6561 17.0949 20.3925C16.9751 21.129 17.4749 21.8231 18.2114 21.9429C18.9478 22.0627 19.6419 21.5628 19.7617 20.8264Z" fill="#E01B36"/>
<path d="M35.8516 36.4162L26.4568 34.1156C23.3102 35.9787 19.6124 36.6864 16.0002 36.1166C12.388 35.5468 9.08762 33.7353 6.66734 30.994C4.24706 28.2527 2.85843 24.7533 2.74059 21.0983C2.62275 17.4434 3.78308 13.8618 6.02176 10.9703L6.41802 11.278C4.33368 13.9407 3.20694 17.2278 3.21951 20.6093C3.22049 23.3043 3.93729 25.9507 5.29659 28.2778C6.65588 30.605 8.60891 32.5293 10.9559 33.854C13.3029 35.1786 15.9596 35.8562 18.6544 35.8172C21.3491 35.7783 23.9852 35.0243 26.2929 33.6324L26.3815 33.5789L35.1327 35.7224L32.4575 26.5264L32.4909 26.4445C33.2599 24.5983 33.6538 22.6176 33.6496 20.6177C33.6485 17.9606 32.9515 15.3503 31.6281 13.0463C30.3047 10.7423 28.4011 8.82501 26.1066 7.48524C23.8121 6.14547 21.2068 5.42992 18.5498 5.4098C15.8929 5.38967 13.277 6.06567 10.9625 7.37053L10.715 6.93414C13.5559 5.33764 16.8228 4.66369 20.0636 5.00557C23.3044 5.34745 26.3588 6.68826 28.804 8.84241C31.2492 10.9966 32.9644 13.8575 33.7121 17.0294C34.4598 20.2012 34.2031 23.527 32.9775 26.5465L35.8516 36.4162Z" fill="#5E3B3B"/>
<path d="M18.427 33.8914C16.0185 33.8909 13.6554 33.2355 11.5907 31.9954C9.526 30.7552 7.83736 28.977 6.70549 26.851C5.57363 24.725 5.04116 22.3313 5.16505 19.9259C5.28894 17.5206 6.06454 15.1942 7.40884 13.1958C8.75314 11.1973 10.6155 9.60198 12.7967 8.58053C14.9779 7.55909 17.3958 7.14995 19.7917 7.39692C22.1875 7.64389 24.4711 8.53767 26.398 9.98259C28.325 11.4275 29.8228 13.3692 30.7311 15.5999L30.2663 15.7888C29.268 13.3407 27.535 11.2624 25.3061 9.84042C23.0772 8.41839 20.4622 7.72259 17.8214 7.84889C15.1805 7.97519 12.6438 8.91738 10.5608 10.5456C8.47785 12.1739 6.95109 14.408 6.19093 16.9403C5.43076 19.4725 5.47462 22.1781 6.31644 24.6844C7.15827 27.1907 8.75663 29.3742 10.8913 30.9341C13.0259 32.4939 15.5918 33.3534 18.2354 33.3941C20.8789 33.4347 23.47 32.6546 25.6516 31.161L25.9342 31.5757C23.7246 33.0911 21.1064 33.8988 18.427 33.8914Z" fill="#5E3B3B"/>
<path d="M29.2573 28.3005L28.8477 28.0112C30.389 25.8514 31.2146 23.2628 31.2085 20.6094H31.7101C31.7161 23.3664 30.8583 26.056 29.2573 28.3005Z" fill="#5E3B3B"/>
<path d="M97.662 23.6975H36.7383V24.1991H97.662V23.6975Z" fill="#5E3B3B"/>
<path d="M82.4199 66.517C82.7586 66.6902 83.0285 66.9731 83.1857 67.3195C83.3419 66.9721 83.612 66.6883 83.9515 66.5153C83.6128 66.3421 83.3428 66.0592 83.1857 65.7128C83.0282 66.0594 82.7584 66.3427 82.4199 66.517Z" fill="#FFF9EE"/>
<path d="M25.0768 58.5198C25.0768 58.5198 23.883 50.8789 29.6547 48.3391C35.4264 45.7994 25.0768 58.5198 25.0768 58.5198Z" fill="#4881F8"/>
<path d="M17.8042 58.4697C17.8042 58.4697 18.6252 51.9223 14.808 51.7668C10.9909 51.6113 17.8042 58.4697 17.8042 58.4697Z" fill="#4881F8"/>
<path d="M22.2846 53.7681C22.2846 53.7681 21.1962 42.7196 26.1302 41.9906C31.402 41.2131 22.2846 53.7681 22.2846 53.7681Z" fill="#4881F8"/>
<path d="M24.5815 63.4171L24.2471 63.4087C24.2471 63.3368 24.4661 56.2827 27.8502 52.8752L28.0876 53.111C24.7988 56.4265 24.5848 63.3469 24.5815 63.4171Z" fill="#47393D"/>
<path d="M19.0494 63.4306C19.0076 63.1915 18.0111 57.5786 16.207 55.6324L16.4528 55.405C18.3271 57.4298 19.3403 63.1313 19.3821 63.372L19.0494 63.4306Z" fill="#47393D"/>
<path d="M21.7213 63.4305C21.7079 63.3302 20.4305 53.3986 25.2793 45.985L25.5585 46.1689C20.7783 53.4755 22.039 63.2867 22.0474 63.3903L21.7213 63.4305Z" fill="#47393D"/>
<path d="M20.0324 56.0437C20.0324 56.0437 16.7135 48.1135 21.3114 44.8247C25.9094 41.5359 20.0324 56.0437 20.0324 56.0437Z" fill="#4881F8"/>
<path d="M20.8674 63.4305C20.8456 63.3569 18.8058 55.9249 20.8674 48.5883L21.1884 48.6785C19.1536 55.9266 21.1683 63.2666 21.1884 63.3402L20.8674 63.4305Z" fill="#47393D"/>
<path d="M22.3259 49.7386L22.0049 49.6449C22.6402 47.4713 22.9027 45.9582 22.789 45.1423L23.1234 45.0955C23.2422 45.9599 22.9746 47.5215 22.3259 49.7386Z" fill="white"/>
<path d="M24.4002 74.4304H18.4613C18.4613 74.4304 16.3814 67.1891 16.7894 62.1129H26.0806C26.5069 67.2359 24.4002 74.4304 24.4002 74.4304Z" fill="#91B3FA"/>
<path d="M26.1252 64.0675H16.7471V64.4019H26.1252V64.0675Z" fill="white"/>
<path d="M26.0698 65.1343H16.8037V65.4687H26.0698V65.1343Z" fill="white"/>
<path d="M119.256 74.3252H14.6855V74.8268H119.256V74.3252Z" fill="#5E3B3B"/>
<path d="M74.873 69.1319C75.344 69.3718 75.7191 69.7652 75.9364 70.2471C76.1553 69.7649 76.5306 69.3708 77.0015 69.1285C76.5307 68.8878 76.1553 68.4947 75.9364 68.0133C75.7186 68.4957 75.3438 68.8899 74.873 69.1319Z" fill="#FFF9EE"/>
<path d="M63.6553 65.9904C63.9938 66.1633 64.2633 66.4463 64.4194 66.7929C64.5775 66.4462 64.8479 66.1629 65.1868 65.9887C64.848 65.8151 64.5776 65.5324 64.4194 65.1862C64.2629 65.5329 63.9936 65.8164 63.6553 65.9904Z" fill="#FFF9EE"/>
</svg>
