<svg width="500" height="373" viewBox="0 0 500 373" fill="none" xmlns="http://www.w3.org/2000/svg">
<g clip-path="url(#clip0_313_523)">
<path d="M500 327.45H0V327.7H500V327.45Z" fill="#EBEBEB"/>
<path d="M449.9 343.54H416.78V343.79H449.9V343.54Z" fill="#EBEBEB"/>
<path d="M404.19 343.54H333.38V343.79H404.19V343.54Z" fill="#EBEBEB"/>
<path d="M294.33 334.26H275.14V334.51H294.33V334.26Z" fill="#EBEBEB"/>
<path d="M86.75 335.94H52.46V336.19H86.75V335.94Z" fill="#EBEBEB"/>
<path d="M158 335.94H95.65V336.19H158V335.94Z" fill="#EBEBEB"/>
<path d="M225.14 340.16H188.33V340.41H225.14V340.16Z" fill="#EBEBEB"/>
<path d="M237.01 282.85H43.91C40.76 282.85 38.2 280.29 38.2 277.14V5.71C38.2 2.56 40.76 0 43.91 0H237.01C240.16 0 242.72 2.56 242.72 5.71V277.14C242.72 280.29 240.16 282.85 237.01 282.85ZM43.91 0.25C40.9 0.25 38.45 2.7 38.45 5.71V277.14C38.45 280.15 40.9 282.6 43.91 282.6H237.01C240.02 282.6 242.47 280.15 242.47 277.14V5.71C242.47 2.7 240.02 0.25 237.01 0.25H43.91Z" fill="#EBEBEB"/>
<path d="M453.31 282.85H260.21C257.06 282.85 254.5 280.29 254.5 277.14V5.71C254.5 2.56 257.06 0 260.21 0H453.31C456.46 0 459.02 2.56 459.02 5.71V277.14C459.02 280.29 456.46 282.85 453.31 282.85ZM260.21 0.25C257.2 0.25 254.75 2.7 254.75 5.71V277.14C254.75 280.15 257.2 282.6 260.21 282.6H453.31C456.32 282.6 458.77 280.15 458.77 277.14V5.71C458.77 2.7 456.32 0.25 453.31 0.25H260.21Z" fill="#EBEBEB"/>
<path d="M75.84 138.27L211.54 138.27L211.54 20.7L75.84 20.7L75.84 138.27Z" fill="#E6E6E6"/>
<path d="M72.81 138.27L208.51 138.27L208.51 20.7L72.81 20.7L72.81 138.27Z" fill="#F5F5F5"/>
<path d="M203.1 134.07V24.9L78.2301 24.9V134.07H203.1Z" fill="#FAFAFA"/>
<path d="M153.02 134.07L175.65 24.9H128.31L105.69 134.07H153.02Z" fill="white"/>
<path d="M80.5101 134.07V24.9H78.2301V134.07H80.5101Z" fill="#E6E6E6"/>
<path d="M75.05 114.5L206.27 114.5V108.86L75.05 108.86V114.5Z" fill="#F5F5F5"/>
<path d="M205.24 321.49H226.91V227.52H205.24V321.49Z" fill="#F0F0F0"/>
<path d="M63.73 327.45H222.76V321.5H63.73V327.45Z" fill="#F0F0F0"/>
<path d="M205.24 227.52H59.5601V321.49H205.24V227.52Z" fill="#F5F5F5"/>
<path d="M196.73 239.09H68.0801V269.91H196.73V239.09Z" fill="#F0F0F0"/>
<path d="M196.73 279.1H68.0801V309.92H196.73V279.1Z" fill="#F0F0F0"/>
<path d="M97.7301 256.61H167.07C168.23 256.61 169.18 255.66 169.18 254.5C169.18 253.34 168.23 252.39 167.07 252.39H97.7301C96.5701 252.39 95.6201 253.34 95.6201 254.5C95.6201 255.66 96.5701 256.61 97.7301 256.61Z" fill="#F5F5F5"/>
<path d="M97.7301 296.63H167.07C168.23 296.63 169.18 295.68 169.18 294.52C169.18 293.36 168.23 292.41 167.07 292.41H97.7301C96.5701 292.41 95.6201 293.36 95.6201 294.52C95.6201 295.68 96.5701 296.63 97.7301 296.63Z" fill="#F5F5F5"/>
<path d="M431.62 82.15C443.96 78.75 448.18 56.36 417 47.22C423.88 69.73 410.11 88.08 431.62 82.15Z" fill="#EBEBEB"/>
<path d="M434.35 91.87C444.07 81.36 434.88 57.58 399.84 67.3C419.66 84.64 417.4 110.21 434.35 91.87Z" fill="#E0E0E0"/>
<path d="M424.75 94.56C416.61 86.5 428.27 58.45 455.15 71.45C439.92 86.01 438.95 108.61 424.75 94.56Z" fill="#FAFAFA"/>
<path d="M416.63 110.27H440.32L442.11 94.24H414.85L416.63 110.27Z" fill="#E6E6E6"/>
<path d="M414.58 97.11H442.38C443.36 97.11 444.15 96.32 444.15 95.34C444.15 94.36 443.36 93.57 442.38 93.57H414.58C413.6 93.57 412.81 94.36 412.81 95.34C412.81 96.32 413.6 97.11 414.58 97.11Z" fill="#E6E6E6"/>
<path d="M217.31 300.3V273.15H239.92V246H262.54V218.86H285.15V191.71H307.77V164.56H330.39V137.42H353V110.27H375.62H500V327.45H217.31H194.69V300.3H217.31Z" fill="#FAFAFA"/>
<path d="M341.69 300.3V273.15H364.31V246H386.92V218.86H409.54V191.71H432.15V164.56H454.77V137.42H477.38V110.27H500V137.42V327.45H341.69H319.08V300.3H341.69Z" fill="#E0E0E0"/>
<path d="M319.08 300.3H193.36V308.44H319.08V300.3Z" fill="#EBEBEB"/>
<path d="M341.7 273.15H215.98V281.29H341.7V273.15Z" fill="#EBEBEB"/>
<path d="M364.31 246H238.59V254.14H364.31V246Z" fill="#EBEBEB"/>
<path d="M386.93 218.86H261.21V227H386.93V218.86Z" fill="#EBEBEB"/>
<path d="M409.54 191.71H283.82V199.85H409.54V191.71Z" fill="#EBEBEB"/>
<path d="M432.16 164.56H306.44V172.7H432.16V164.56Z" fill="#EBEBEB"/>
<path d="M454.77 137.42H329.05V145.56H454.77V137.42Z" fill="#EBEBEB"/>
<path d="M477.39 110.27H351.67V118.41H477.39V110.27Z" fill="#EBEBEB"/>
<path d="M250 372.61C357.082 372.61 443.89 367.542 443.89 361.29C443.89 355.038 357.082 349.97 250 349.97C142.917 349.97 56.11 355.038 56.11 361.29C56.11 367.542 142.917 372.61 250 372.61Z" fill="#F5F5F5"/>
<path d="M334.7 103.67C334.53 106.67 334.18 109.42 333.79 112.27C333.4 115.1 332.87 117.91 332.26 120.71C331.08 126.31 329.45 131.87 327.21 137.28L326.31 139.3L326.08 139.8L325.97 140.05C325.93 140.13 325.9 140.2 325.82 140.37C325.54 140.93 325.18 141.53 324.67 142.1C324.16 142.67 323.51 143.23 322.76 143.61C322.02 144 321.2 144.25 320.48 144.33C318.99 144.51 317.83 144.24 316.85 143.95C314.92 143.32 313.53 142.45 312.21 141.56C310.92 140.65 309.76 139.69 308.66 138.71C304.32 134.71 300.7 130.43 297.36 125.77L300.68 122.97C302.63 124.82 304.66 126.68 306.69 128.46C308.71 130.25 310.81 131.94 312.91 133.46C313.96 134.22 315.02 134.92 316.07 135.5C317.09 136.08 318.16 136.56 318.89 136.7C319.24 136.77 319.48 136.73 319.37 136.7C319.27 136.65 318.83 136.86 318.73 136.98C318.67 137.03 318.67 137.03 318.69 136.97L319.01 136.13L319.71 134.31C321.44 129.38 322.75 124.21 323.76 118.95C324.28 116.33 324.66 113.66 325.05 111.01C325.43 108.38 325.73 105.63 325.96 103.1L334.71 103.65L334.7 103.67Z" fill="#FFC3BD"/>
<path d="M328.64 92.67C324.91 93.62 322.31 108.96 322.31 108.96L332.58 115.94C332.58 115.94 342.43 100.47 339.56 96.37C336.57 92.1 334.08 91.29 328.64 92.67Z" fill="#407BFF"/>
<path d="M328.64 92.67C324.91 93.62 322.31 108.96 322.31 108.96L332.58 115.94C332.58 115.94 342.43 100.47 339.56 96.37C336.57 92.1 334.08 91.29 328.64 92.67Z" fill="#407BFF"/>
<path opacity="0.4" d="M328.64 92.67C324.91 93.62 322.31 108.96 322.31 108.96L332.58 115.94C332.58 115.94 342.43 100.47 339.56 96.37C336.57 92.1 334.08 91.29 328.64 92.67Z" fill="black"/>
<path opacity="0.3" d="M328.97 96.09L326.11 111.55L331.88 115.47L328.97 96.09Z" fill="black"/>
<path d="M300.85 122.33L295.96 114.61L293.19 123.38C293.19 123.38 297.2 127.58 300.82 126.58L300.85 122.33Z" fill="#FFC3BD"/>
<path d="M288.8 112.06L286.88 119.53L293.19 123.39L295.96 114.62L288.8 112.06Z" fill="#FFC3BD"/>
<path d="M348.8 350.8H339.76L339.16 329.86H348.2L348.8 350.8Z" fill="#FFC3BD"/>
<path d="M428.59 308.8L421.7 314.65L405.93 300.58L412.82 294.72L428.59 308.8Z" fill="#FFC3BD"/>
<path d="M419.81 313.95L426.49 306.3C426.73 306.02 427.12 305.96 427.43 306.16L434.24 310.58C434.95 311.04 435.07 312.1 434.5 312.73C432.12 315.36 430.84 316.51 427.9 319.87C426.09 321.94 423.66 325.15 421.17 328.01C418.73 330.81 415.71 328.55 416.5 327.14C420.01 320.8 419.17 318.57 419.23 315.46C419.24 314.9 419.45 314.36 419.81 313.96V313.95Z" fill="#263238"/>
<path d="M339.45 349.76H349.61C349.98 349.76 350.28 350.02 350.33 350.38L351.49 358.42C351.61 359.25 350.89 360.04 350.04 360.03C346.5 359.97 344.79 359.76 340.32 359.76C337.57 359.76 331.89 360.05 328.09 360.05C324.29 360.05 324.09 356.3 325.67 355.96C332.76 354.44 335.55 352.33 337.93 350.33C338.36 349.97 338.9 349.77 339.44 349.77L339.45 349.76Z" fill="#263238"/>
<path opacity="0.2" d="M339.16 329.87L339.47 340.66H348.51L348.2 329.87H339.16Z" fill="black"/>
<path opacity="0.2" d="M412.83 294.73L405.93 300.58L414.07 307.84L420.96 301.98L412.83 294.73Z" fill="black"/>
<path d="M328.64 92.67C328.64 92.67 324.33 94.19 332.96 147.25H369.68C369.06 132.3 369.05 123.09 376.19 92.41C376.19 92.41 368.5 90.74 360.6 90.36C354.42 90.06 349.36 89.86 343.92 90.36C336.76 91.01 328.64 92.68 328.64 92.68V92.67Z" fill="#407BFF"/>
<path opacity="0.4" d="M328.64 92.67C328.64 92.67 324.33 94.19 332.96 147.25H369.68C369.06 132.3 369.05 123.09 376.19 92.41C376.19 92.41 368.5 90.74 360.6 90.36C354.42 90.06 349.36 89.86 343.92 90.36C336.76 91.01 328.64 92.68 328.64 92.68V92.67Z" fill="black"/>
<path d="M360.6 90.35C354.42 90.06 349.36 89.86 343.92 90.36C343.02 90.44 342.1 90.54 341.19 90.65C340.58 91.7 340.12 93.11 340.69 94.55C341.86 97.46 346.08 97.8 349.16 97.8C360.53 97.8 362.45 91.16 362.53 90.88L362.64 90.48C361.96 90.43 361.28 90.38 360.6 90.35Z" fill="white"/>
<path d="M358.95 71.57C357.9 76.94 356.85 86.77 360.6 90.35C360.6 90.35 359.13 95.79 349.16 95.79C338.2 95.79 343.92 90.35 343.92 90.35C349.9 88.92 349.75 84.48 348.71 80.31L358.95 71.57Z" fill="#FFC3BD"/>
<path opacity="0.2" d="M354.77 75.14L348.71 80.31C348.96 81.3 349.15 82.3 349.22 83.27C351.51 82.94 354.65 80.43 354.89 78.04C355.01 76.85 354.96 75.7 354.77 75.14Z" fill="black"/>
<path d="M352.71 42.39C351.78 39.25 350.98 34.28 356.59 32.09C354.4 29.41 353.87 24.37 356.56 21.38C359.25 18.39 363.36 19.49 363.36 19.49C363.36 19.49 364.56 12.18 373.45 13.46C382.34 14.74 378.38 20.62 378.38 20.62C378.38 20.62 390.51 18.22 391.32 29.65C392.13 41.08 385.17 39.67 385.17 39.67C385.17 39.67 390.58 44.21 387.59 49.2C384.6 54.19 377.66 52.47 377.66 52.47C377.66 52.47 374.4 61.29 366.72 56.27C359.04 51.25 352.72 42.4 352.72 42.4L352.71 42.39Z" fill="#263238"/>
<path d="M334.7 49.03C331.69 52.9 333.02 57.3 335.67 58.99C342.12 63.11 351.45 45.84 349.02 43.77C346.59 41.7 337.7 45.16 334.69 49.03H334.7Z" fill="#263238"/>
<path d="M361.79 39.81C357.55 38.1 353.25 39.89 351.91 42.47C348.64 48.76 363.49 60.09 367.79 52.23C370.34 47.56 366.17 41.58 361.79 39.81Z" fill="#407BFF"/>
<path d="M359.98 59.02C360.29 67.99 360.61 71.78 356.54 76.79C350.43 84.32 339.34 82.74 336.36 74.04C333.68 66.21 333.63 52.86 342.01 48.48C350.27 44.16 359.66 50.06 359.97 59.03L359.98 59.02Z" fill="#FFC3BD"/>
<path d="M358.65 63.75C354.68 62.26 353.64 57.59 354.3 55.79C352.32 55.71 347.92 54.99 346.28 52.51C343.16 54.47 336.57 56.5 335.85 53.19C335.13 49.87 345.09 41.29 352.6 40.64C361.54 39.86 370.36 48.65 368.08 57.05C365.8 65.45 358.64 63.75 358.64 63.75H358.65Z" fill="#263238"/>
<path d="M332.96 147.24C332.96 147.24 325.83 216.9 326.42 244.47C327.04 273.15 337.55 338.57 337.55 338.57H349.78C349.78 338.57 347.84 274.83 348.93 246.66C350.11 215.95 359.86 147.24 359.86 147.24H332.97H332.96Z" fill="#263238"/>
<path d="M350.83 339.01H336.49L335.43 334.43L351.5 333.87L350.83 339.01Z" fill="#407BFF"/>
<path opacity="0.2" d="M348.8 164.57C339.78 182.72 346.99 215.82 350.18 228.13C351.82 209.63 354.57 187.03 356.72 170.42C355.35 161.03 352.96 156.2 348.8 164.57Z" fill="black"/>
<path d="M342.66 147.24C342.66 147.24 350.98 219.66 357.26 242.9C364.72 270.5 411.05 307.65 411.05 307.65L420.45 299.67C420.45 299.67 386.87 259.32 381.17 244.78C369 213.75 379.42 167.5 369.69 147.24H342.66Z" fill="#263238"/>
<path d="M421.95 299.24L410.29 309.15L405.93 306.54L419.12 294.27L421.95 299.24Z" fill="#407BFF"/>
<path d="M346.69 62.81C346.76 63.54 346.43 64.16 345.96 64.21C345.49 64.26 345.04 63.7 344.97 62.98C344.9 62.26 345.23 61.63 345.7 61.58C346.17 61.53 346.62 62.09 346.69 62.81Z" fill="#263238"/>
<path d="M338.49 63.6C338.56 64.33 338.23 64.95 337.76 65C337.29 65.05 336.84 64.49 336.77 63.77C336.7 63.05 337.03 62.42 337.5 62.37C337.97 62.32 338.42 62.88 338.49 63.6Z" fill="#263238"/>
<path d="M337.71 62.38L335.92 62.04C335.92 62.04 336.95 63.32 337.71 62.38Z" fill="#263238"/>
<path d="M340.77 64.64C340.77 64.64 339.84 67.88 338.63 69.52C339.67 70.32 341.26 69.76 341.26 69.76L340.77 64.64Z" fill="#ED847E"/>
<path d="M345.3 72.15C344.93 72.25 344.53 72.33 344.09 72.37C343.97 72.38 343.87 72.29 343.86 72.18C343.85 72.06 343.93 71.96 344.05 71.95C347.23 71.65 348.51 69.28 348.52 69.25C348.57 69.14 348.7 69.1 348.81 69.16C348.91 69.21 348.96 69.34 348.9 69.45C348.85 69.54 347.82 71.45 345.29 72.15H345.3Z" fill="#263238"/>
<path d="M362.1 65.26C361.88 67.11 360.84 68.68 359.62 69.61C357.79 71.01 356.03 69.58 355.82 67.41C355.63 65.46 356.36 62.38 358.54 61.83C360.68 61.29 362.34 63.14 362.1 65.25V65.26Z" fill="#FFC3BD"/>
<path d="M347.57 57.66C347.46 57.69 347.34 57.68 347.23 57.61C345.59 56.63 344.17 57.3 344.15 57.31C343.94 57.41 343.68 57.32 343.58 57.11C343.48 56.9 343.57 56.64 343.78 56.54C343.85 56.5 345.64 55.66 347.67 56.88C347.87 57 347.94 57.26 347.82 57.47C347.76 57.57 347.67 57.63 347.57 57.66Z" fill="#263238"/>
<path d="M334.47 60.16C334.37 60.19 334.25 60.18 334.15 60.13C333.94 60.02 333.86 59.76 333.97 59.55C335.09 57.46 337.06 57.27 337.14 57.26C337.38 57.24 337.58 57.41 337.6 57.65C337.62 57.89 337.45 58.09 337.21 58.11C337.13 58.11 335.61 58.29 334.72 59.95C334.66 60.06 334.57 60.13 334.46 60.16H334.47Z" fill="#263238"/>
<path d="M379.94 102.16C382.02 107.22 383.72 112.22 385.21 117.42C386.67 122.61 387.94 127.88 388.53 133.46C388.7 134.84 388.75 136.28 388.82 137.71V137.84V138.06V138.52C388.79 138.81 388.76 139.1 388.72 139.37C388.64 139.91 388.52 140.4 388.38 140.85C388.11 141.76 387.76 142.53 387.4 143.26C385.92 146.1 384.16 148.26 382.33 150.35C378.62 154.45 374.68 158 370.36 161.27L367.43 158.06C370.76 154.18 374.13 150.18 376.97 146.1C378.37 144.08 379.71 141.96 380.47 140.06C380.65 139.59 380.79 139.15 380.86 138.79C380.89 138.61 380.92 138.46 380.92 138.35C380.92 138.29 380.92 138.26 380.92 138.22C380.92 138.2 380.92 138.2 380.91 138.19V138.06C380.76 136.87 380.67 135.7 380.45 134.49C379.7 129.67 378.33 124.76 376.86 119.9C375.33 115.06 373.62 110.15 371.82 105.47L379.94 102.15V102.16Z" fill="#FFC3BD"/>
<path d="M376.19 92.41C379.87 93.53 384.29 106.2 384.29 106.2L370.02 116.41C370.02 116.41 364.81 105.83 366.36 101.08C367.97 96.13 372 91.14 376.2 92.42L376.19 92.41Z" fill="#407BFF"/>
<path opacity="0.4" d="M376.19 92.41C379.87 93.53 384.29 106.2 384.29 106.2L370.02 116.41C370.02 116.41 364.81 105.83 366.36 101.08C367.97 96.13 372 91.14 376.2 92.42L376.19 92.41Z" fill="black"/>
<path d="M417.34 318.32C416.99 318.32 416.67 318.16 416.38 317.83C416.14 317.55 416.15 317.29 416.21 317.11C416.54 316.01 419.69 315.1 420.04 315C420.12 314.98 420.21 315 420.26 315.07C420.31 315.14 420.32 315.23 420.28 315.3C419.72 316.36 418.61 318.17 417.46 318.3C417.41 318.3 417.37 318.3 417.33 318.3L417.34 318.32ZM419.66 315.57C418.41 315.97 416.8 316.66 416.62 317.24C416.6 317.31 416.59 317.42 416.71 317.55C416.93 317.81 417.17 317.91 417.43 317.89C418.05 317.82 418.87 316.96 419.66 315.57Z" fill="#407BFF"/>
<path d="M418.67 315.6C417.63 315.6 416.46 315.39 416.05 314.87C415.93 314.71 415.77 314.38 416.07 313.93C416.26 313.65 416.54 313.48 416.88 313.44C418.18 313.27 420.15 314.98 420.23 315.05C420.29 315.1 420.31 315.18 420.3 315.25C420.29 315.32 420.23 315.39 420.16 315.41C419.82 315.53 419.26 315.6 418.66 315.6H418.67ZM417.08 313.85C417.08 313.85 416.99 313.85 416.94 313.85C416.72 313.88 416.55 313.98 416.43 314.16C416.28 314.39 416.33 314.51 416.39 314.59C416.78 315.09 418.55 315.28 419.64 315.09C418.99 314.59 417.86 313.84 417.08 313.84V313.85Z" fill="#407BFF"/>
<path d="M336.05 351.34C335.15 351.34 334.32 351.2 333.86 350.78C333.57 350.51 333.43 350.16 333.47 349.74C333.49 349.48 333.62 349.29 333.83 349.17C334.94 348.56 338.54 350.4 338.95 350.62C339.03 350.66 339.08 350.75 339.06 350.84C339.05 350.93 338.98 351 338.89 351.02C338.12 351.17 337.04 351.34 336.04 351.34H336.05ZM334.44 349.47C334.27 349.47 334.14 349.49 334.04 349.55C333.95 349.6 333.91 349.67 333.9 349.78C333.87 350.07 333.96 350.29 334.15 350.47C334.7 350.96 336.19 351.05 338.19 350.72C336.95 350.12 335.3 349.48 334.44 349.48V349.47Z" fill="#407BFF"/>
<path d="M338.86 351.02C338.86 351.02 338.8 351.02 338.77 351C337.69 350.51 335.56 348.56 335.73 347.54C335.77 347.3 335.94 347 336.53 346.94C336.97 346.9 337.37 347.02 337.72 347.31C338.86 348.26 339.07 350.69 339.07 350.79C339.07 350.87 339.04 350.94 338.98 350.98C338.94 351.01 338.9 351.02 338.86 351.02ZM336.71 347.35C336.71 347.35 336.62 347.35 336.58 347.35C336.19 347.39 336.16 347.55 336.15 347.6C336.05 348.22 337.5 349.75 338.59 350.41C338.49 349.7 338.18 348.24 337.44 347.62C337.22 347.43 336.97 347.34 336.7 347.34L336.71 347.35Z" fill="#407BFF"/>
<path d="M370.23 145.09L371.17 148.38C371.3 148.64 371 148.9 370.57 148.9H332.77C332.44 148.9 332.16 148.74 332.14 148.53L331.81 145.24C331.79 145.01 332.07 144.82 332.44 144.82H369.63C369.9 144.82 370.15 144.93 370.23 145.1V145.09Z" fill="#407BFF"/>
<path opacity="0.3" d="M370.23 145.09L371.17 148.38C371.3 148.64 371 148.9 370.57 148.9H332.77C332.44 148.9 332.16 148.74 332.14 148.53L331.81 145.24C331.79 145.01 332.07 144.82 332.44 144.82H369.63C369.9 144.82 370.15 144.93 370.23 145.1V145.09Z" fill="white"/>
<path d="M365.24 149.25H366.24C366.44 149.25 366.59 149.15 366.58 149.02L366.11 144.75C366.1 144.62 365.92 144.52 365.72 144.52H364.72C364.52 144.52 364.37 144.62 364.38 144.75L364.85 149.02C364.86 149.15 365.04 149.25 365.24 149.25Z" fill="#263238"/>
<path d="M335.58 149.25H336.58C336.78 149.25 336.93 149.15 336.92 149.02L336.45 144.75C336.44 144.62 336.26 144.52 336.06 144.52H335.06C334.86 144.52 334.71 144.62 334.72 144.75L335.19 149.02C335.2 149.15 335.38 149.25 335.58 149.25Z" fill="#263238"/>
<path d="M350.41 149.25H351.41C351.61 149.25 351.76 149.15 351.75 149.02L351.28 144.75C351.27 144.62 351.09 144.52 350.89 144.52H349.89C349.69 144.52 349.54 144.62 349.55 144.75L350.02 149.02C350.03 149.15 350.21 149.25 350.41 149.25Z" fill="#263238"/>
<path d="M345.92 61.6L344.13 61.26C344.13 61.26 345.16 62.54 345.92 61.6Z" fill="#263238"/>
<path opacity="0.2" d="M312.82 188.94C265.52 207.32 212.26 183.88 193.87 136.57C175.48 89.26 198.94 36 246.24 17.62C293.55 -0.769994 346.81 22.67 365.2 69.99C383.59 117.3 360.13 170.56 312.82 188.94Z" fill="#407BFF"/>
<path opacity="0.1" d="M296.19 12.89L224.11 176.6C223 175.76 221.9 174.89 220.82 174C213.95 168.32 207.87 161.59 202.83 153.92L265.08 12.51C275.55 10.82 286.07 11.01 296.19 12.89Z" fill="white"/>
<path opacity="0.1" d="M347.43 41.3L279.66 195.2C265.46 195.22 251.57 191.93 239.06 185.78L313.06 17.72C326.05 22.8 337.85 30.82 347.43 41.3Z" fill="white"/>
<path d="M203.88 41.37C238.07 -0.409988 299.67 -6.56999 341.45 27.62C383.23 61.81 389.38 123.4 355.19 165.18C320.99 206.97 259.4 213.12 217.62 178.93C175.84 144.74 169.69 83.15 203.89 41.36L203.88 41.37ZM349 160.13C380.39 121.77 374.75 65.21 336.38 33.81C298.01 2.41001 241.46 8.07001 210.06 46.43C178.66 84.8 184.3 141.36 222.67 172.76C261.04 204.16 317.59 198.5 349 160.13Z" fill="#407BFF"/>
<path d="M357.63 159.79C367.26 165.54 376.42 171.86 385.42 178.38C394.42 184.9 403.19 191.7 411.83 198.66C420.47 205.62 428.93 212.8 437.1 220.33C441.19 224.09 445.2 227.95 449.13 231.91C453.05 235.88 456.91 239.92 460.53 244.25C462.53 246.63 462.21 250.19 459.83 252.18C458.01 253.71 455.49 253.88 453.52 252.81C448.56 250.11 443.84 247.13 439.17 244.07C434.51 241 429.93 237.84 425.44 234.57C416.44 228.05 407.73 221.18 399.2 214.09C390.67 207 382.27 199.75 374.1 192.22C365.93 184.69 357.92 176.96 350.38 168.66C348.23 166.29 348.4 162.63 350.77 160.47C352.7 158.71 355.5 158.51 357.64 159.78L357.63 159.79Z" fill="#407BFF"/>
<path d="M368.39 157.06L358.73 158.53L365.65 164.59C365.65 164.59 371.11 162.61 371.65 158.89L368.4 157.06H368.39Z" fill="#FFC3BD"/>
<path d="M353.51 164.06L359.58 168.83L366.99 163.99L358.73 158.53L353.51 164.06Z" fill="#FFC3BD"/>
<path d="M307.84 174.6C309.57 169.73 314.43 166.27 319.55 166.27H399.6C405.67 166.27 410.02 171.08 409.32 177L388.65 350.55C387.94 356.48 382.45 361.28 376.37 361.28H122.34C116.27 361.28 111.92 356.47 112.62 350.55L129.98 204.77C130.69 198.84 136.18 194.04 142.26 194.04H280.49C292.46 194.04 303.8 185.97 307.84 174.59V174.6Z" fill="#407BFF"/>
<path d="M117.24 353.3H382.64L397.76 174.71H132.36L117.24 353.3Z" fill="#F0F0F0"/>
<path d="M117.24 353.3H382.64L393.58 174.71H132.36L117.24 353.3Z" fill="#E0E0E0"/>
<path d="M117.24 353.3H382.64L391.76 169.05H126.36L117.24 353.3Z" fill="#F0F0F0"/>
<path d="M117.24 353.3H382.64L386.25 169.05H126.36L117.24 353.3Z" fill="#E0E0E0"/>
<path d="M117.24 353.3H382.64L384.22 164.05H118.82L117.24 353.3Z" fill="#F0F0F0"/>
<path d="M117.24 353.3H382.64L377.19 167.63H113.5L117.24 353.3Z" fill="#E0E0E0"/>
<path d="M117.24 353.3H382.64L374.76 169.05H109.36L117.24 353.3Z" fill="#F0F0F0"/>
<path d="M117.24 353.3H382.64L370.09 171.83H104.69L117.24 353.3Z" fill="#E0E0E0"/>
<path d="M117.24 353.3H382.64L368.09 173.38H102.69L117.24 353.3Z" fill="#F0F0F0"/>
<path d="M250.14 185.87C250.31 180.88 254.07 177.34 259.19 177.34H339.24C345.31 177.34 351.2 182.26 352.38 188.34L384 350.3C385.19 356.37 381.22 361.3 375.15 361.3H121.14C115.07 361.3 109.18 356.38 108 350.3L81.93 216.8C80.74 210.73 84.71 205.8 90.78 205.8H229.01C240.98 205.8 249.74 197.54 250.15 185.87H250.14Z" fill="#407BFF"/>
<path opacity="0.2" d="M250.14 185.87C250.31 180.88 254.07 177.34 259.19 177.34H339.24C345.31 177.34 351.2 182.26 352.38 188.34L384 350.3C385.19 356.37 381.22 361.3 375.15 361.3H121.14C115.07 361.3 109.18 356.38 108 350.3L81.93 216.8C80.74 210.73 84.71 205.8 90.78 205.8H229.01C240.98 205.8 249.74 197.54 250.15 185.87H250.14Z" fill="black"/>
</g>
<defs>
<clipPath id="clip0_313_523">
<rect width="500" height="372.61" fill="white"/>
</clipPath>
</defs>
</svg>
