<svg width="67" height="67" viewBox="0 0 67 67" fill="none" xmlns="http://www.w3.org/2000/svg">
<path d="M17.6537 11.4602V1.76313C17.6537 0.793358 16.8594 0.00012207 15.8884 0.00012207C14.9174 0.00012207 14.123 0.793405 14.123 1.76313V11.4609C14.123 12.4306 14.9174 13.2239 15.8884 13.2239C16.8588 13.2239 17.6537 12.43 17.6537 11.4602Z" fill="#34BF86"/>
<path d="M51.1989 0C50.2279 0 49.4336 0.793283 49.4336 1.76301V11.4607C49.4336 12.4305 50.2279 13.2237 51.1989 13.2237C52.17 13.2237 52.9642 12.4305 52.9642 11.4607L52.9648 1.76301C52.9648 0.793236 52.1699 0 51.1989 0H51.1989Z" fill="#34BF86"/>
<path d="M41.4871 24.3948C41.4871 22.8962 40.3394 21.7499 38.8387 21.7499L28.246 21.7505C26.7455 21.7505 25.5977 22.8967 25.5977 24.3954V34.9742C25.5977 36.4729 26.7454 37.6191 28.246 37.6191H38.8387C40.3393 37.6191 41.4871 36.4729 41.4871 34.9742V24.3948ZM37.9558 34.0925H29.1285V25.2767H37.9558V34.0925Z" fill="#34BF86"/>
<path d="M60.0242 24.3948C60.0242 22.8962 58.8765 21.7499 57.3758 21.7499L46.7831 21.7505C45.2826 21.7505 44.1348 22.8967 44.1348 24.3954V34.9742C44.1348 36.4729 45.2825 37.6191 46.7831 37.6191H57.3758C58.8764 37.6191 60.0242 36.4729 60.0242 34.9742V24.3948ZM56.4936 34.0925H47.6662V25.2767H56.4936V34.0925Z" fill="#34BF86"/>
<path d="M20.3016 40.5525H9.70892C8.20834 40.5525 7.06055 41.6987 7.06055 43.1974V53.7762C7.06055 55.2749 8.2083 56.4211 9.70892 56.4211H20.3016C21.8022 56.4211 22.95 55.2749 22.95 53.7762V43.1974C22.95 41.6988 21.8029 40.5525 20.3016 40.5525ZM19.4192 52.895H10.5919V44.0791H19.4192V52.895Z" fill="#34BF86"/>
<path d="M38.8387 40.5525H28.246C26.7455 40.5525 25.5977 41.6987 25.5977 43.1974V53.7762C25.5977 55.2749 26.7454 56.4211 28.246 56.4211H38.8387C40.3393 56.4211 41.4871 55.2749 41.4871 53.7762V43.1974C41.4871 41.6988 40.3394 40.5525 38.8387 40.5525ZM37.9557 52.895H29.1284V44.0791H37.9557V52.895Z" fill="#34BF86"/>
<path d="M46.7831 56.1318H57.3758C58.8764 56.1318 60.0242 54.9856 60.0242 53.4869V42.9081C60.0242 41.4095 58.8765 40.2632 57.3758 40.2632H46.7831C45.2826 40.2632 44.1348 41.4094 44.1348 42.9081V53.4869C44.1354 54.9855 45.2825 56.1318 46.7831 56.1318ZM47.6661 43.79H56.4935V52.6058H47.6661V43.79Z" fill="#34BF86"/>
<path d="M22.95 22.9209C22.95 22.392 22.5972 22.0391 22.067 22.0391L7.94354 22.0397C7.41399 22.0397 7.06055 22.392 7.06055 22.9215V37.0272C7.06055 37.556 7.41337 37.909 7.94354 37.909H22.0677C22.5972 37.909 22.9507 37.5566 22.9507 37.0272L22.95 22.9209ZM15.0057 35.2634C14.4761 35.2634 14.1227 34.911 14.1227 34.3815C14.1227 33.8527 14.4755 33.4997 15.0057 33.4997C15.5352 33.4997 15.8887 33.8521 15.8887 34.3815C15.8881 34.9104 15.5352 35.2634 15.0057 35.2634ZM15.8881 30.8555C15.8881 31.3843 15.5352 31.7373 15.0051 31.7373C14.4755 31.7373 14.1221 31.3849 14.1221 30.8555V26.4475C14.1221 25.9187 14.4749 25.5657 15.0051 25.5657C15.5346 25.5657 15.8881 25.9181 15.8881 26.4475V30.8555Z" fill="#7D7D7D"/>
<path d="M48.5499 6.76301C48.5499 5.79324 47.7556 5 46.7846 5H20.3024C19.3314 5 18.5371 5.79328 18.5371 6.76301C18.5371 7.73278 19.3314 8.52602 20.3024 8.52602H46.7846C47.7556 8.52663 48.5505 7.73274 48.5505 6.76301H48.5499Z" fill="#34BF86"/>
<path d="M8.20932 66.7108H58.7902C63.292 66.7108 66.9994 63.0082 66.9994 58.5124L67 13.199C67 8.70311 63.2925 5.00061 58.7908 5.00061L55.6124 5C54.6413 5 53.847 5.79328 53.847 6.76301C53.847 7.73278 54.6414 8.52602 55.6124 8.52602H58.8783C61.438 8.52602 63.5568 10.642 63.5568 13.1984V58.4236C63.5568 60.9799 61.4381 63.096 58.8783 63.096H8.20915C5.64953 63.096 3.53064 60.9801 3.53064 58.4236V13.1984C3.53064 10.6421 5.64937 8.52602 8.20915 8.52602H11.4751C12.4462 8.52602 13.2404 7.73273 13.2404 6.76301C13.2404 5.79328 12.4461 5 11.4751 5H8.20915C3.70734 5 0 8.70265 0 13.1984V58.4236C0 63.0074 3.7075 66.71 8.20915 66.71L8.20932 66.7108Z" fill="#34BF86"/>
</svg>
