<svg width="71" height="71" viewBox="0 0 71 71" fill="none" xmlns="http://www.w3.org/2000/svg">
<path d="M23.8516 4.4375C25.7005 4.4375 26.625 5.36198 26.625 7.21094V21.6328C26.625 23.4818 25.7005 24.4062 23.8516 24.4062C22.0026 24.4062 21.0781 23.4818 21.0781 21.6328V7.21094C21.0781 5.36198 22.0026 4.4375 23.8516 4.4375Z" fill="#4881F8"/>
<path d="M44.9297 4.4375C46.7786 4.4375 47.7031 5.36198 47.7031 7.21094V21.6328C47.7031 23.4818 46.7786 24.4062 44.9297 24.4062C43.0807 24.4062 42.1562 23.4818 42.1562 21.6328V7.21094C42.1562 5.36198 43.0807 4.4375 44.9297 4.4375Z" fill="#4881F8"/>
<path d="M57.6875 34.9575V21.0781C57.6875 20.1955 57.3369 19.3489 56.7127 18.7248C56.0886 18.1006 55.242 17.75 54.3594 17.75H14.4219C13.5392 17.75 12.6927 18.1006 12.0685 18.7248C11.4444 19.3489 11.0938 20.1955 11.0938 21.0781V56.5781C11.0938 57.4608 11.4444 58.3073 12.0685 58.9315C12.6927 59.5556 13.5392 59.9062 14.4219 59.9062H34.6491C35.9422 62.1007 37.6911 63.9923 39.7777 65.4531H11.0938C9.62263 65.4531 8.21176 64.8687 7.17152 63.8285C6.13128 62.7882 5.54688 61.3774 5.54688 59.9062V17.75C5.54688 16.2789 6.13128 14.868 7.17152 13.8278C8.21176 12.7875 9.62263 12.2031 11.0938 12.2031H57.6875C59.1586 12.2031 60.5695 12.7875 61.6097 13.8278C62.65 14.868 63.2344 16.2789 63.2344 17.75V39.1842C61.6825 37.423 59.7973 35.9865 57.6875 34.9575Z" fill="#4881F8"/>
<path d="M49.9219 66.4338C46.8501 66.4338 43.8473 65.523 41.2932 63.8164C38.7391 62.1098 36.7484 59.6841 35.5729 56.8461C34.3974 54.0082 34.0898 50.8854 34.6891 47.8726C35.2883 44.8598 36.7675 42.0924 38.9396 39.9203C41.1117 37.7483 43.8791 36.2691 46.8919 35.6698C49.9047 35.0705 53.0275 35.3781 55.8654 36.5536C58.7034 37.7291 61.129 39.7198 62.8356 42.2739C64.5422 44.828 65.4531 47.8308 65.4531 50.9026C65.4531 52.9422 65.0514 54.9618 64.2709 56.8461C63.4904 58.7305 62.3463 60.4426 60.9041 61.8848C59.4619 63.3271 57.7498 64.4711 55.8654 65.2516C53.9811 66.0321 51.9615 66.4338 49.9219 66.4338ZM49.9219 40.9182C47.9472 40.9182 46.0168 41.5038 44.3749 42.6009C42.7329 43.698 41.4532 45.2573 40.6975 47.0817C39.9418 48.9061 39.7441 50.9137 40.1294 52.8504C40.5146 54.7872 41.4655 56.5663 42.8619 57.9626C44.2582 59.3589 46.0372 60.3099 47.974 60.6951C49.9108 61.0804 51.9183 60.8826 53.7427 60.127C55.5671 59.3713 57.1265 58.0915 58.2236 56.4496C59.3207 54.8077 59.9063 52.8773 59.9063 50.9026C59.9068 49.5911 59.649 48.2922 59.1475 47.0804C58.646 45.8685 57.9107 44.7673 56.9835 43.8397C56.0563 42.9121 54.9554 42.1763 53.7438 41.6742C52.5321 41.1722 51.2334 40.9138 49.9219 40.9138V40.9182Z" fill="#4881F8"/>
<path d="M58.2422 34.6312H55.8892C53.9889 33.869 51.9685 33.4498 49.9219 33.3932C47.874 33.417 45.8502 33.8375 43.9623 34.6312H10.5391C9.8035 34.6312 9.09807 34.339 8.57795 33.8189C8.05783 33.2988 7.76563 32.5933 7.76562 31.8578C7.76563 31.1222 8.05783 30.4168 8.57795 29.8967C9.09807 29.3766 9.8035 29.0844 10.5391 29.0844H58.2422C58.9777 29.0844 59.6832 29.3766 60.2033 29.8967C60.7234 30.4168 61.0156 31.1222 61.0156 31.8578C61.0156 32.5933 60.7234 33.2988 60.2033 33.8189C59.6832 34.339 58.9777 34.6312 58.2422 34.6312Z" fill="#4881F8"/>
<path d="M54.1686 56.3873C53.7525 56.8033 53.1882 57.0369 52.5999 57.0369C52.0116 57.0369 51.4473 56.8033 51.0312 56.3873L47.7031 52.1406V45.4844C47.7031 44.8959 47.9369 44.3316 48.353 43.9155C48.7691 43.4994 49.3334 43.2656 49.9219 43.2656C50.5103 43.2656 51.0747 43.4994 51.4908 43.9155C51.9069 44.3316 52.1406 44.8959 52.1406 45.4844V51.0312L54.1686 53.25C54.5845 53.6661 54.8182 54.2303 54.8182 54.8187C54.8182 55.407 54.5845 55.9712 54.1686 56.3873Z" fill="#7D7D7D"/>
</svg>
