<svg width="78" height="78" viewBox="0 0 78 78" fill="none" xmlns="http://www.w3.org/2000/svg">
<circle cx="39" cy="39" r="39" fill="#D9D9D9"/>
<path d="M58.625 61.0312V56.2188C58.625 53.666 57.6109 51.2179 55.8059 49.4128C54.0009 47.6078 51.5527 46.5938 49 46.5938H29.75C27.1973 46.5938 24.7491 47.6078 22.9441 49.4128C21.1391 51.2179 20.125 53.666 20.125 56.2188V61.0312" stroke="black" stroke-width="2" stroke-linecap="round" stroke-linejoin="round"/>
<path d="M39.375 36.9688C44.6907 36.9688 49 32.6595 49 27.3438C49 22.028 44.6907 17.7188 39.375 17.7188C34.0593 17.7188 29.75 22.028 29.75 27.3438C29.75 32.6595 34.0593 36.9688 39.375 36.9688Z" stroke="black" stroke-width="2" stroke-linecap="round" stroke-linejoin="round"/>
</svg>
